M48
;GenerationSoftware,Autodesk,EAGLE,9.2.1*%
;CreationDate,2019-03-18T19:55:10Z*%
FMAT,2
ICI,OFF
METRIC,TZ,000.0000
T4C0.3000
T3C0.4000
T2C1.0000
T1C1.2000
%
G90
M71
T1
X682700Y63500
X327100Y63500
X292100Y63500
X381000Y63500
X416000Y63500
X469900Y63500
X504900Y63500
X558800Y63500
X593800Y63500
X647700Y63500
T2
X508000Y292100
X533400Y292100
X558800Y292100
X584200Y292100
X609600Y292100
X635000Y292100
X381000Y469900
X406400Y469900
X431800Y469900
X457200Y469900
X482600Y469900
X508000Y469900
X533400Y469900
X558800Y469900
X584200Y469900
X609600Y469900
X635000Y469900
X355600Y292100
X355600Y469900
X558800Y41910
X499110Y34290
X381000Y292100
X406400Y292100
X431800Y292100
X457200Y292100
X482600Y292100
T3
X626110Y127000
X421640Y139700
X579736Y123190
T4
X35000Y35000
X981000Y727000
M30