G04 EAGLE Gerber RS-274X export*
G75*
%MOMM*%
%FSLAX34Y34*%
%LPD*%
%INSilkscreen Top*%
%IPPOS*%
%AMOC8*
5,1,8,0,0,1.08239X$1,22.5*%
G01*
%ADD10C,0.127000*%
%ADD11C,0.101600*%
%ADD12C,0.203200*%

G36*
X986751Y7755D02*
X986751Y7755D01*
X986780Y7753D01*
X987437Y7840D01*
X987473Y7853D01*
X987533Y7865D01*
X988146Y8119D01*
X988176Y8141D01*
X988231Y8169D01*
X988758Y8572D01*
X988782Y8602D01*
X988828Y8642D01*
X989231Y9169D01*
X989247Y9203D01*
X989281Y9255D01*
X989535Y9867D01*
X989541Y9905D01*
X989559Y9958D01*
X989559Y9959D01*
X989560Y9963D01*
X989647Y10620D01*
X989645Y10642D01*
X989650Y10670D01*
X989650Y15731D01*
X989767Y16914D01*
X990106Y18034D01*
X990658Y19066D01*
X991400Y19970D01*
X992304Y20712D01*
X993336Y21264D01*
X994456Y21603D01*
X995639Y21720D01*
X1000700Y21720D01*
X1000721Y21725D01*
X1000750Y21723D01*
X1001407Y21810D01*
X1001443Y21823D01*
X1001503Y21835D01*
X1002116Y22089D01*
X1002146Y22111D01*
X1002201Y22139D01*
X1002728Y22542D01*
X1002752Y22572D01*
X1002798Y22612D01*
X1003201Y23139D01*
X1003217Y23173D01*
X1003251Y23225D01*
X1003505Y23837D01*
X1003511Y23875D01*
X1003530Y23933D01*
X1003617Y24590D01*
X1003615Y24612D01*
X1003620Y24640D01*
X1003620Y32260D01*
X1003615Y32281D01*
X1003617Y32310D01*
X1003530Y32967D01*
X1003517Y33003D01*
X1003505Y33063D01*
X1003251Y33676D01*
X1003229Y33706D01*
X1003201Y33761D01*
X1002798Y34288D01*
X1002768Y34312D01*
X1002728Y34358D01*
X1002201Y34761D01*
X1002167Y34777D01*
X1002116Y34811D01*
X1001503Y35065D01*
X1001466Y35071D01*
X1001407Y35090D01*
X1000750Y35177D01*
X1000728Y35175D01*
X1000700Y35180D01*
X993080Y35180D01*
X993059Y35175D01*
X993030Y35177D01*
X992373Y35090D01*
X992337Y35077D01*
X992277Y35065D01*
X991665Y34811D01*
X991634Y34789D01*
X991579Y34761D01*
X991052Y34358D01*
X991028Y34328D01*
X990982Y34288D01*
X990579Y33761D01*
X990563Y33727D01*
X990529Y33676D01*
X990275Y33063D01*
X990269Y33026D01*
X990250Y32967D01*
X990163Y32310D01*
X990165Y32288D01*
X990160Y32260D01*
X990160Y27199D01*
X990043Y26016D01*
X989704Y24896D01*
X989152Y23864D01*
X988410Y22960D01*
X987506Y22218D01*
X986474Y21666D01*
X985354Y21327D01*
X984171Y21210D01*
X979110Y21210D01*
X979089Y21205D01*
X979060Y21207D01*
X978403Y21120D01*
X978367Y21107D01*
X978307Y21095D01*
X977695Y20841D01*
X977664Y20819D01*
X977609Y20791D01*
X977082Y20388D01*
X977058Y20358D01*
X977012Y20318D01*
X976609Y19791D01*
X976593Y19757D01*
X976559Y19706D01*
X976305Y19093D01*
X976299Y19056D01*
X976280Y18997D01*
X976193Y18340D01*
X976195Y18318D01*
X976190Y18290D01*
X976190Y10670D01*
X976195Y10649D01*
X976193Y10620D01*
X976280Y9963D01*
X976287Y9943D01*
X976287Y9931D01*
X976295Y9916D01*
X976305Y9867D01*
X976559Y9255D01*
X976581Y9224D01*
X976609Y9169D01*
X977012Y8642D01*
X977017Y8639D01*
X977017Y8638D01*
X977024Y8633D01*
X977042Y8618D01*
X977082Y8572D01*
X977609Y8169D01*
X977643Y8153D01*
X977695Y8119D01*
X978307Y7865D01*
X978345Y7859D01*
X978403Y7840D01*
X979060Y7753D01*
X979082Y7755D01*
X979110Y7750D01*
X986730Y7750D01*
X986751Y7755D01*
G37*
G36*
X972781Y21725D02*
X972781Y21725D01*
X972810Y21723D01*
X973467Y21810D01*
X973503Y21823D01*
X973563Y21835D01*
X974176Y22089D01*
X974206Y22111D01*
X974261Y22139D01*
X974788Y22542D01*
X974812Y22572D01*
X974858Y22612D01*
X975261Y23139D01*
X975277Y23173D01*
X975311Y23225D01*
X975565Y23837D01*
X975571Y23875D01*
X975589Y23927D01*
X975589Y23929D01*
X975590Y23933D01*
X975677Y24590D01*
X975675Y24612D01*
X975680Y24640D01*
X975680Y32260D01*
X975675Y32281D01*
X975677Y32310D01*
X975590Y32967D01*
X975577Y33003D01*
X975565Y33063D01*
X975311Y33676D01*
X975289Y33706D01*
X975261Y33761D01*
X974858Y34288D01*
X974828Y34312D01*
X974788Y34358D01*
X974261Y34761D01*
X974227Y34777D01*
X974176Y34811D01*
X973563Y35065D01*
X973526Y35071D01*
X973467Y35090D01*
X972810Y35177D01*
X972788Y35175D01*
X972760Y35180D01*
X965140Y35180D01*
X965119Y35175D01*
X965090Y35177D01*
X964433Y35090D01*
X964397Y35077D01*
X964337Y35065D01*
X963725Y34811D01*
X963694Y34789D01*
X963639Y34761D01*
X963112Y34358D01*
X963088Y34328D01*
X963042Y34288D01*
X962639Y33761D01*
X962623Y33727D01*
X962589Y33676D01*
X962335Y33063D01*
X962329Y33026D01*
X962310Y32967D01*
X962223Y32310D01*
X962225Y32288D01*
X962220Y32260D01*
X962220Y24640D01*
X962225Y24619D01*
X962223Y24590D01*
X962310Y23933D01*
X962317Y23913D01*
X962317Y23901D01*
X962325Y23886D01*
X962335Y23837D01*
X962589Y23225D01*
X962611Y23194D01*
X962639Y23139D01*
X963042Y22612D01*
X963047Y22609D01*
X963047Y22608D01*
X963054Y22603D01*
X963072Y22588D01*
X963112Y22542D01*
X963639Y22139D01*
X963673Y22123D01*
X963725Y22089D01*
X964337Y21835D01*
X964375Y21829D01*
X964433Y21810D01*
X965090Y21723D01*
X965112Y21725D01*
X965140Y21720D01*
X972760Y21720D01*
X972781Y21725D01*
G37*
D10*
X312420Y482600D02*
X342900Y482600D01*
X647700Y482600D01*
X678180Y467360D01*
X678180Y294640D02*
X647700Y279400D01*
X678180Y294640D02*
X678180Y467360D01*
X647700Y279400D02*
X342900Y279400D01*
X312420Y279400D01*
X678180Y294640D02*
X690960Y294640D01*
X700960Y294640D02*
X713740Y294640D01*
X713740Y304942D01*
X713740Y314942D02*
X713740Y325244D01*
X713740Y335244D02*
X713740Y345547D01*
X713740Y355547D02*
X713740Y365849D01*
X713740Y375849D02*
X713740Y386151D01*
X713740Y396151D02*
X713740Y406453D01*
X713740Y416453D02*
X713740Y426756D01*
X713740Y436756D02*
X713740Y447058D01*
X713740Y457058D02*
X713740Y467360D01*
X698393Y467360D01*
X688393Y467360D02*
X673047Y467360D01*
X663047Y467360D02*
X647700Y467360D01*
X647700Y457200D01*
X640000Y457200D01*
X630000Y457200D02*
X622300Y457200D01*
X622300Y446900D01*
X622300Y436900D02*
X622300Y426600D01*
X622300Y416600D02*
X622300Y406300D01*
X622300Y396300D02*
X622300Y386000D01*
X622300Y376000D02*
X622300Y365700D01*
X622300Y355700D02*
X622300Y345400D01*
X622300Y335400D02*
X622300Y325100D01*
X622300Y315100D02*
X622300Y304800D01*
X630000Y304800D01*
X640000Y304800D02*
X647700Y304800D01*
X647700Y294640D02*
X657940Y294640D01*
X667940Y294640D02*
X678180Y294640D01*
D11*
X670052Y352199D02*
X658368Y352199D01*
X658368Y358690D02*
X665508Y352199D01*
X662912Y354796D02*
X670052Y358690D01*
X670052Y363483D02*
X670052Y368675D01*
X670052Y363483D02*
X658368Y363483D01*
X658368Y368675D01*
X663561Y367377D02*
X663561Y363483D01*
X670052Y373389D02*
X670052Y378581D01*
X670052Y373389D02*
X658368Y373389D01*
X658368Y378581D01*
X663561Y377283D02*
X663561Y373389D01*
X658368Y383441D02*
X670052Y383441D01*
X658368Y383441D02*
X658368Y386687D01*
X658370Y386800D01*
X658376Y386913D01*
X658386Y387026D01*
X658400Y387139D01*
X658417Y387251D01*
X658439Y387362D01*
X658464Y387472D01*
X658494Y387582D01*
X658527Y387690D01*
X658564Y387797D01*
X658604Y387903D01*
X658649Y388007D01*
X658697Y388110D01*
X658748Y388211D01*
X658803Y388310D01*
X658861Y388407D01*
X658923Y388502D01*
X658988Y388595D01*
X659056Y388685D01*
X659127Y388773D01*
X659202Y388859D01*
X659279Y388942D01*
X659359Y389022D01*
X659442Y389099D01*
X659528Y389174D01*
X659616Y389245D01*
X659706Y389313D01*
X659799Y389378D01*
X659894Y389440D01*
X659991Y389498D01*
X660090Y389553D01*
X660191Y389604D01*
X660294Y389652D01*
X660398Y389697D01*
X660504Y389737D01*
X660611Y389774D01*
X660719Y389807D01*
X660829Y389837D01*
X660939Y389862D01*
X661050Y389884D01*
X661162Y389901D01*
X661275Y389915D01*
X661388Y389925D01*
X661501Y389931D01*
X661614Y389933D01*
X661727Y389931D01*
X661840Y389925D01*
X661953Y389915D01*
X662066Y389901D01*
X662178Y389884D01*
X662289Y389862D01*
X662399Y389837D01*
X662509Y389807D01*
X662617Y389774D01*
X662724Y389737D01*
X662830Y389697D01*
X662934Y389652D01*
X663037Y389604D01*
X663138Y389553D01*
X663237Y389498D01*
X663334Y389440D01*
X663429Y389378D01*
X663522Y389313D01*
X663612Y389245D01*
X663700Y389174D01*
X663786Y389099D01*
X663869Y389022D01*
X663949Y388942D01*
X664026Y388859D01*
X664101Y388773D01*
X664172Y388685D01*
X664240Y388595D01*
X664305Y388502D01*
X664367Y388407D01*
X664425Y388310D01*
X664480Y388211D01*
X664531Y388110D01*
X664579Y388007D01*
X664624Y387903D01*
X664664Y387797D01*
X664701Y387690D01*
X664734Y387582D01*
X664764Y387472D01*
X664789Y387362D01*
X664811Y387251D01*
X664828Y387139D01*
X664842Y387026D01*
X664852Y386913D01*
X664858Y386800D01*
X664860Y386687D01*
X664859Y386687D02*
X664859Y383441D01*
X666806Y394321D02*
X661614Y394321D01*
X661501Y394323D01*
X661388Y394329D01*
X661275Y394339D01*
X661162Y394353D01*
X661050Y394370D01*
X660939Y394392D01*
X660829Y394417D01*
X660719Y394447D01*
X660611Y394480D01*
X660504Y394517D01*
X660398Y394557D01*
X660294Y394602D01*
X660191Y394650D01*
X660090Y394701D01*
X659991Y394756D01*
X659894Y394814D01*
X659799Y394876D01*
X659706Y394941D01*
X659616Y395009D01*
X659528Y395080D01*
X659442Y395155D01*
X659359Y395232D01*
X659279Y395312D01*
X659202Y395395D01*
X659127Y395481D01*
X659056Y395569D01*
X658988Y395659D01*
X658923Y395752D01*
X658861Y395847D01*
X658803Y395944D01*
X658748Y396043D01*
X658697Y396144D01*
X658649Y396247D01*
X658604Y396351D01*
X658564Y396457D01*
X658527Y396564D01*
X658494Y396672D01*
X658464Y396782D01*
X658439Y396892D01*
X658417Y397003D01*
X658400Y397115D01*
X658386Y397228D01*
X658376Y397341D01*
X658370Y397454D01*
X658368Y397567D01*
X658370Y397680D01*
X658376Y397793D01*
X658386Y397906D01*
X658400Y398019D01*
X658417Y398131D01*
X658439Y398242D01*
X658464Y398352D01*
X658494Y398462D01*
X658527Y398570D01*
X658564Y398677D01*
X658604Y398783D01*
X658649Y398887D01*
X658697Y398990D01*
X658748Y399091D01*
X658803Y399190D01*
X658861Y399287D01*
X658923Y399382D01*
X658988Y399475D01*
X659056Y399565D01*
X659127Y399653D01*
X659202Y399739D01*
X659279Y399822D01*
X659359Y399902D01*
X659442Y399979D01*
X659528Y400054D01*
X659616Y400125D01*
X659706Y400193D01*
X659799Y400258D01*
X659894Y400320D01*
X659991Y400378D01*
X660090Y400433D01*
X660191Y400484D01*
X660294Y400532D01*
X660398Y400577D01*
X660504Y400617D01*
X660611Y400654D01*
X660719Y400687D01*
X660829Y400717D01*
X660939Y400742D01*
X661050Y400764D01*
X661162Y400781D01*
X661275Y400795D01*
X661388Y400805D01*
X661501Y400811D01*
X661614Y400813D01*
X661614Y400812D02*
X666806Y400812D01*
X666806Y400813D02*
X666919Y400811D01*
X667032Y400805D01*
X667145Y400795D01*
X667258Y400781D01*
X667370Y400764D01*
X667481Y400742D01*
X667591Y400717D01*
X667701Y400687D01*
X667809Y400654D01*
X667916Y400617D01*
X668022Y400577D01*
X668126Y400532D01*
X668229Y400484D01*
X668330Y400433D01*
X668429Y400378D01*
X668526Y400320D01*
X668621Y400258D01*
X668714Y400193D01*
X668804Y400125D01*
X668892Y400054D01*
X668978Y399979D01*
X669061Y399902D01*
X669141Y399822D01*
X669218Y399739D01*
X669293Y399653D01*
X669364Y399565D01*
X669432Y399475D01*
X669497Y399382D01*
X669559Y399287D01*
X669617Y399190D01*
X669672Y399091D01*
X669723Y398990D01*
X669771Y398887D01*
X669816Y398783D01*
X669856Y398677D01*
X669893Y398570D01*
X669926Y398462D01*
X669956Y398352D01*
X669981Y398242D01*
X670003Y398131D01*
X670020Y398019D01*
X670034Y397906D01*
X670044Y397793D01*
X670050Y397680D01*
X670052Y397567D01*
X670050Y397454D01*
X670044Y397341D01*
X670034Y397228D01*
X670020Y397115D01*
X670003Y397003D01*
X669981Y396892D01*
X669956Y396782D01*
X669926Y396672D01*
X669893Y396564D01*
X669856Y396457D01*
X669816Y396351D01*
X669771Y396247D01*
X669723Y396144D01*
X669672Y396043D01*
X669617Y395944D01*
X669559Y395847D01*
X669497Y395752D01*
X669432Y395659D01*
X669364Y395569D01*
X669293Y395481D01*
X669218Y395395D01*
X669141Y395312D01*
X669061Y395232D01*
X668978Y395155D01*
X668892Y395080D01*
X668804Y395009D01*
X668714Y394941D01*
X668621Y394876D01*
X668526Y394814D01*
X668429Y394756D01*
X668330Y394701D01*
X668229Y394650D01*
X668126Y394602D01*
X668022Y394557D01*
X667916Y394517D01*
X667809Y394480D01*
X667701Y394447D01*
X667591Y394417D01*
X667481Y394392D01*
X667370Y394370D01*
X667258Y394353D01*
X667145Y394339D01*
X667032Y394329D01*
X666919Y394323D01*
X666806Y394321D01*
X666806Y406132D02*
X658368Y406132D01*
X666806Y406131D02*
X666919Y406133D01*
X667032Y406139D01*
X667145Y406149D01*
X667258Y406163D01*
X667370Y406180D01*
X667481Y406202D01*
X667591Y406227D01*
X667701Y406257D01*
X667809Y406290D01*
X667916Y406327D01*
X668022Y406367D01*
X668126Y406412D01*
X668229Y406460D01*
X668330Y406511D01*
X668429Y406566D01*
X668526Y406624D01*
X668621Y406686D01*
X668714Y406751D01*
X668804Y406819D01*
X668892Y406890D01*
X668978Y406965D01*
X669061Y407042D01*
X669141Y407122D01*
X669218Y407205D01*
X669293Y407291D01*
X669364Y407379D01*
X669432Y407469D01*
X669497Y407562D01*
X669559Y407657D01*
X669617Y407754D01*
X669672Y407853D01*
X669723Y407954D01*
X669771Y408057D01*
X669816Y408161D01*
X669856Y408267D01*
X669893Y408374D01*
X669926Y408482D01*
X669956Y408592D01*
X669981Y408702D01*
X670003Y408813D01*
X670020Y408925D01*
X670034Y409038D01*
X670044Y409151D01*
X670050Y409264D01*
X670052Y409377D01*
X670050Y409490D01*
X670044Y409603D01*
X670034Y409716D01*
X670020Y409829D01*
X670003Y409941D01*
X669981Y410052D01*
X669956Y410162D01*
X669926Y410272D01*
X669893Y410380D01*
X669856Y410487D01*
X669816Y410593D01*
X669771Y410697D01*
X669723Y410800D01*
X669672Y410901D01*
X669617Y411000D01*
X669559Y411097D01*
X669497Y411192D01*
X669432Y411285D01*
X669364Y411375D01*
X669293Y411463D01*
X669218Y411549D01*
X669141Y411632D01*
X669061Y411712D01*
X668978Y411789D01*
X668892Y411864D01*
X668804Y411935D01*
X668714Y412003D01*
X668621Y412068D01*
X668526Y412130D01*
X668429Y412188D01*
X668330Y412243D01*
X668229Y412294D01*
X668126Y412342D01*
X668022Y412387D01*
X667916Y412427D01*
X667809Y412464D01*
X667701Y412497D01*
X667591Y412527D01*
X667481Y412552D01*
X667370Y412574D01*
X667258Y412591D01*
X667145Y412605D01*
X667032Y412615D01*
X666919Y412621D01*
X666806Y412623D01*
X658368Y412623D01*
X658368Y420426D02*
X670052Y420426D01*
X658368Y417181D02*
X658368Y423672D01*
D10*
X312420Y342900D02*
X312420Y279400D01*
X312420Y342900D02*
X294640Y342900D01*
X312420Y419100D02*
X312420Y482600D01*
X312420Y419100D02*
X294640Y419100D01*
X294640Y342900D01*
D11*
X349758Y227683D02*
X361442Y231577D01*
X349758Y235472D01*
X349758Y240721D02*
X361442Y240721D01*
X361442Y239423D02*
X361442Y242020D01*
X349758Y242020D02*
X349758Y239423D01*
X349758Y247001D02*
X361442Y247001D01*
X361442Y253492D02*
X349758Y247001D01*
X349758Y253492D02*
X361442Y253492D01*
X380351Y229108D02*
X380351Y227161D01*
X380351Y229108D02*
X386842Y229108D01*
X386842Y225213D01*
X386840Y225114D01*
X386834Y225014D01*
X386825Y224915D01*
X386812Y224817D01*
X386795Y224719D01*
X386774Y224621D01*
X386749Y224525D01*
X386721Y224430D01*
X386689Y224336D01*
X386654Y224243D01*
X386615Y224151D01*
X386572Y224061D01*
X386527Y223973D01*
X386477Y223886D01*
X386425Y223802D01*
X386369Y223719D01*
X386311Y223639D01*
X386249Y223561D01*
X386184Y223486D01*
X386116Y223413D01*
X386046Y223343D01*
X385973Y223275D01*
X385898Y223210D01*
X385820Y223148D01*
X385740Y223090D01*
X385657Y223034D01*
X385573Y222982D01*
X385486Y222932D01*
X385398Y222887D01*
X385308Y222844D01*
X385216Y222805D01*
X385123Y222770D01*
X385029Y222738D01*
X384934Y222710D01*
X384838Y222685D01*
X384740Y222664D01*
X384642Y222647D01*
X384544Y222634D01*
X384445Y222625D01*
X384345Y222619D01*
X384246Y222617D01*
X377754Y222617D01*
X377754Y222616D02*
X377655Y222618D01*
X377555Y222624D01*
X377456Y222633D01*
X377358Y222646D01*
X377260Y222664D01*
X377162Y222684D01*
X377066Y222709D01*
X376970Y222737D01*
X376876Y222769D01*
X376783Y222804D01*
X376692Y222843D01*
X376602Y222886D01*
X376513Y222931D01*
X376427Y222981D01*
X376342Y223033D01*
X376260Y223089D01*
X376180Y223148D01*
X376102Y223209D01*
X376026Y223274D01*
X375953Y223342D01*
X375883Y223412D01*
X375815Y223485D01*
X375750Y223561D01*
X375689Y223639D01*
X375630Y223719D01*
X375574Y223801D01*
X375522Y223886D01*
X375473Y223972D01*
X375427Y224061D01*
X375384Y224151D01*
X375345Y224242D01*
X375310Y224335D01*
X375278Y224429D01*
X375250Y224525D01*
X375225Y224621D01*
X375205Y224719D01*
X375187Y224817D01*
X375174Y224915D01*
X375165Y225014D01*
X375159Y225113D01*
X375157Y225213D01*
X375158Y225213D02*
X375158Y229108D01*
X375158Y234809D02*
X386842Y234809D01*
X386842Y241300D02*
X375158Y234809D01*
X375158Y241300D02*
X386842Y241300D01*
X386842Y247001D02*
X375158Y247001D01*
X375158Y250246D01*
X375160Y250359D01*
X375166Y250472D01*
X375176Y250585D01*
X375190Y250698D01*
X375207Y250810D01*
X375229Y250921D01*
X375254Y251031D01*
X375284Y251141D01*
X375317Y251249D01*
X375354Y251356D01*
X375394Y251462D01*
X375439Y251566D01*
X375487Y251669D01*
X375538Y251770D01*
X375593Y251869D01*
X375651Y251966D01*
X375713Y252061D01*
X375778Y252154D01*
X375846Y252244D01*
X375917Y252332D01*
X375992Y252418D01*
X376069Y252501D01*
X376149Y252581D01*
X376232Y252658D01*
X376318Y252733D01*
X376406Y252804D01*
X376496Y252872D01*
X376589Y252937D01*
X376684Y252999D01*
X376781Y253057D01*
X376880Y253112D01*
X376981Y253163D01*
X377084Y253211D01*
X377188Y253256D01*
X377294Y253296D01*
X377401Y253333D01*
X377509Y253366D01*
X377619Y253396D01*
X377729Y253421D01*
X377840Y253443D01*
X377952Y253460D01*
X378065Y253474D01*
X378178Y253484D01*
X378291Y253490D01*
X378404Y253492D01*
X383596Y253492D01*
X383709Y253490D01*
X383822Y253484D01*
X383935Y253474D01*
X384048Y253460D01*
X384160Y253443D01*
X384271Y253421D01*
X384381Y253396D01*
X384491Y253366D01*
X384599Y253333D01*
X384706Y253296D01*
X384812Y253256D01*
X384916Y253211D01*
X385019Y253163D01*
X385120Y253112D01*
X385219Y253057D01*
X385316Y252999D01*
X385411Y252937D01*
X385504Y252872D01*
X385594Y252804D01*
X385682Y252733D01*
X385768Y252658D01*
X385851Y252581D01*
X385931Y252501D01*
X386008Y252418D01*
X386083Y252332D01*
X386154Y252244D01*
X386222Y252154D01*
X386287Y252061D01*
X386349Y251966D01*
X386407Y251869D01*
X386462Y251770D01*
X386513Y251669D01*
X386561Y251566D01*
X386606Y251462D01*
X386646Y251356D01*
X386683Y251249D01*
X386716Y251141D01*
X386746Y251031D01*
X386771Y250921D01*
X386793Y250810D01*
X386810Y250698D01*
X386824Y250585D01*
X386834Y250472D01*
X386840Y250359D01*
X386842Y250246D01*
X386842Y247001D01*
X400558Y238929D02*
X412242Y238929D01*
X400558Y235684D02*
X400558Y242175D01*
X400558Y253492D02*
X412242Y245703D01*
X412242Y253492D02*
X400558Y245703D01*
X425958Y234995D02*
X437642Y234995D01*
X425958Y234995D02*
X425958Y238241D01*
X425960Y238354D01*
X425966Y238467D01*
X425976Y238580D01*
X425990Y238693D01*
X426007Y238805D01*
X426029Y238916D01*
X426054Y239026D01*
X426084Y239136D01*
X426117Y239244D01*
X426154Y239351D01*
X426194Y239457D01*
X426239Y239561D01*
X426287Y239664D01*
X426338Y239765D01*
X426393Y239864D01*
X426451Y239961D01*
X426513Y240056D01*
X426578Y240149D01*
X426646Y240239D01*
X426717Y240327D01*
X426792Y240413D01*
X426869Y240496D01*
X426949Y240576D01*
X427032Y240653D01*
X427118Y240728D01*
X427206Y240799D01*
X427296Y240867D01*
X427389Y240932D01*
X427484Y240994D01*
X427581Y241052D01*
X427680Y241107D01*
X427781Y241158D01*
X427884Y241206D01*
X427988Y241251D01*
X428094Y241291D01*
X428201Y241328D01*
X428309Y241361D01*
X428419Y241391D01*
X428529Y241416D01*
X428640Y241438D01*
X428752Y241455D01*
X428865Y241469D01*
X428978Y241479D01*
X429091Y241485D01*
X429204Y241487D01*
X429317Y241485D01*
X429430Y241479D01*
X429543Y241469D01*
X429656Y241455D01*
X429768Y241438D01*
X429879Y241416D01*
X429989Y241391D01*
X430099Y241361D01*
X430207Y241328D01*
X430314Y241291D01*
X430420Y241251D01*
X430524Y241206D01*
X430627Y241158D01*
X430728Y241107D01*
X430827Y241052D01*
X430924Y240994D01*
X431019Y240932D01*
X431112Y240867D01*
X431202Y240799D01*
X431290Y240728D01*
X431376Y240653D01*
X431459Y240576D01*
X431539Y240496D01*
X431616Y240413D01*
X431691Y240327D01*
X431762Y240239D01*
X431830Y240149D01*
X431895Y240056D01*
X431957Y239961D01*
X432015Y239864D01*
X432070Y239765D01*
X432121Y239664D01*
X432169Y239561D01*
X432214Y239457D01*
X432254Y239351D01*
X432291Y239244D01*
X432324Y239136D01*
X432354Y239026D01*
X432379Y238916D01*
X432401Y238805D01*
X432418Y238693D01*
X432432Y238580D01*
X432442Y238467D01*
X432448Y238354D01*
X432450Y238241D01*
X432449Y238241D02*
X432449Y234995D01*
X432449Y238890D02*
X437642Y241487D01*
X437642Y245703D02*
X425958Y253492D01*
X425958Y245703D02*
X437642Y253492D01*
X451358Y220119D02*
X463042Y222716D01*
X455253Y225312D01*
X463042Y227909D01*
X451358Y230505D01*
X451358Y235571D02*
X463042Y235571D01*
X458498Y235571D02*
X451358Y242062D01*
X455902Y238167D02*
X463042Y242062D01*
X463042Y247001D02*
X451358Y247001D01*
X451358Y250246D01*
X451360Y250359D01*
X451366Y250472D01*
X451376Y250585D01*
X451390Y250698D01*
X451407Y250810D01*
X451429Y250921D01*
X451454Y251031D01*
X451484Y251141D01*
X451517Y251249D01*
X451554Y251356D01*
X451594Y251462D01*
X451639Y251566D01*
X451687Y251669D01*
X451738Y251770D01*
X451793Y251869D01*
X451851Y251966D01*
X451913Y252061D01*
X451978Y252154D01*
X452046Y252244D01*
X452117Y252332D01*
X452192Y252418D01*
X452269Y252501D01*
X452349Y252581D01*
X452432Y252658D01*
X452518Y252733D01*
X452606Y252804D01*
X452696Y252872D01*
X452789Y252937D01*
X452884Y252999D01*
X452981Y253057D01*
X453080Y253112D01*
X453181Y253163D01*
X453284Y253211D01*
X453388Y253256D01*
X453494Y253296D01*
X453601Y253333D01*
X453709Y253366D01*
X453819Y253396D01*
X453929Y253421D01*
X454040Y253443D01*
X454152Y253460D01*
X454265Y253474D01*
X454378Y253484D01*
X454491Y253490D01*
X454604Y253492D01*
X454717Y253490D01*
X454830Y253484D01*
X454943Y253474D01*
X455056Y253460D01*
X455168Y253443D01*
X455279Y253421D01*
X455389Y253396D01*
X455499Y253366D01*
X455607Y253333D01*
X455714Y253296D01*
X455820Y253256D01*
X455924Y253211D01*
X456027Y253163D01*
X456128Y253112D01*
X456227Y253057D01*
X456324Y252999D01*
X456419Y252937D01*
X456512Y252872D01*
X456602Y252804D01*
X456690Y252733D01*
X456776Y252658D01*
X456859Y252581D01*
X456939Y252501D01*
X457016Y252418D01*
X457091Y252332D01*
X457162Y252244D01*
X457230Y252154D01*
X457295Y252061D01*
X457357Y251966D01*
X457415Y251869D01*
X457470Y251770D01*
X457521Y251669D01*
X457569Y251566D01*
X457614Y251462D01*
X457654Y251356D01*
X457691Y251249D01*
X457724Y251141D01*
X457754Y251031D01*
X457779Y250921D01*
X457801Y250810D01*
X457818Y250698D01*
X457832Y250585D01*
X457842Y250472D01*
X457848Y250359D01*
X457850Y250246D01*
X457849Y250246D02*
X457849Y247001D01*
X476758Y225091D02*
X488442Y225091D01*
X476758Y225091D02*
X476758Y228337D01*
X476760Y228450D01*
X476766Y228563D01*
X476776Y228676D01*
X476790Y228789D01*
X476807Y228901D01*
X476829Y229012D01*
X476854Y229122D01*
X476884Y229232D01*
X476917Y229340D01*
X476954Y229447D01*
X476994Y229553D01*
X477039Y229657D01*
X477087Y229760D01*
X477138Y229861D01*
X477193Y229960D01*
X477251Y230057D01*
X477313Y230152D01*
X477378Y230245D01*
X477446Y230335D01*
X477517Y230423D01*
X477592Y230509D01*
X477669Y230592D01*
X477749Y230672D01*
X477832Y230749D01*
X477918Y230824D01*
X478006Y230895D01*
X478096Y230963D01*
X478189Y231028D01*
X478284Y231090D01*
X478381Y231148D01*
X478480Y231203D01*
X478581Y231254D01*
X478684Y231302D01*
X478788Y231347D01*
X478894Y231387D01*
X479001Y231424D01*
X479109Y231457D01*
X479219Y231487D01*
X479329Y231512D01*
X479440Y231534D01*
X479552Y231551D01*
X479665Y231565D01*
X479778Y231575D01*
X479891Y231581D01*
X480004Y231583D01*
X480004Y231582D02*
X485196Y231582D01*
X485196Y231583D02*
X485309Y231581D01*
X485422Y231575D01*
X485535Y231565D01*
X485648Y231551D01*
X485760Y231534D01*
X485871Y231512D01*
X485981Y231487D01*
X486091Y231457D01*
X486199Y231424D01*
X486306Y231387D01*
X486412Y231347D01*
X486516Y231302D01*
X486619Y231254D01*
X486720Y231203D01*
X486819Y231148D01*
X486916Y231090D01*
X487011Y231028D01*
X487104Y230963D01*
X487194Y230895D01*
X487282Y230824D01*
X487368Y230749D01*
X487451Y230672D01*
X487531Y230592D01*
X487608Y230509D01*
X487683Y230423D01*
X487754Y230335D01*
X487822Y230245D01*
X487887Y230152D01*
X487949Y230057D01*
X488007Y229960D01*
X488062Y229861D01*
X488113Y229760D01*
X488161Y229657D01*
X488206Y229553D01*
X488246Y229447D01*
X488283Y229340D01*
X488316Y229232D01*
X488346Y229122D01*
X488371Y229012D01*
X488393Y228901D01*
X488410Y228789D01*
X488424Y228676D01*
X488434Y228563D01*
X488440Y228450D01*
X488442Y228337D01*
X488442Y225091D01*
X488442Y236253D02*
X476758Y240148D01*
X488442Y244043D01*
X485521Y243069D02*
X485521Y237227D01*
X488442Y250896D02*
X488442Y253492D01*
X488442Y250896D02*
X488440Y250797D01*
X488434Y250697D01*
X488425Y250598D01*
X488412Y250500D01*
X488395Y250402D01*
X488374Y250304D01*
X488349Y250208D01*
X488321Y250113D01*
X488289Y250019D01*
X488254Y249926D01*
X488215Y249834D01*
X488172Y249744D01*
X488127Y249656D01*
X488077Y249569D01*
X488025Y249485D01*
X487969Y249402D01*
X487911Y249322D01*
X487849Y249244D01*
X487784Y249169D01*
X487716Y249096D01*
X487646Y249026D01*
X487573Y248958D01*
X487498Y248893D01*
X487420Y248831D01*
X487340Y248773D01*
X487257Y248717D01*
X487173Y248665D01*
X487086Y248615D01*
X486998Y248570D01*
X486908Y248527D01*
X486816Y248488D01*
X486723Y248453D01*
X486629Y248421D01*
X486534Y248393D01*
X486438Y248368D01*
X486340Y248347D01*
X486242Y248330D01*
X486144Y248317D01*
X486045Y248308D01*
X485945Y248302D01*
X485846Y248300D01*
X485846Y248299D02*
X479354Y248299D01*
X479255Y248301D01*
X479155Y248307D01*
X479056Y248316D01*
X478958Y248329D01*
X478860Y248347D01*
X478762Y248367D01*
X478666Y248392D01*
X478570Y248420D01*
X478476Y248452D01*
X478383Y248487D01*
X478292Y248526D01*
X478202Y248569D01*
X478113Y248614D01*
X478027Y248664D01*
X477942Y248716D01*
X477860Y248772D01*
X477780Y248831D01*
X477702Y248892D01*
X477626Y248957D01*
X477553Y249025D01*
X477483Y249095D01*
X477415Y249168D01*
X477350Y249244D01*
X477289Y249322D01*
X477230Y249402D01*
X477174Y249484D01*
X477122Y249569D01*
X477073Y249655D01*
X477027Y249744D01*
X476984Y249834D01*
X476945Y249925D01*
X476910Y250018D01*
X476878Y250112D01*
X476850Y250208D01*
X476825Y250304D01*
X476805Y250402D01*
X476787Y250500D01*
X476774Y250598D01*
X476765Y250697D01*
X476759Y250796D01*
X476757Y250896D01*
X476758Y250896D02*
X476758Y253492D01*
X502158Y238816D02*
X513842Y234922D01*
X513842Y242711D02*
X502158Y238816D01*
X510921Y241737D02*
X510921Y235895D01*
X513842Y247001D02*
X513842Y250896D01*
X513840Y250995D01*
X513834Y251095D01*
X513825Y251194D01*
X513812Y251292D01*
X513795Y251390D01*
X513774Y251488D01*
X513749Y251584D01*
X513721Y251679D01*
X513689Y251773D01*
X513654Y251866D01*
X513615Y251958D01*
X513572Y252048D01*
X513527Y252136D01*
X513477Y252223D01*
X513425Y252307D01*
X513369Y252390D01*
X513311Y252470D01*
X513249Y252548D01*
X513184Y252623D01*
X513116Y252696D01*
X513046Y252766D01*
X512973Y252834D01*
X512898Y252899D01*
X512820Y252961D01*
X512740Y253019D01*
X512657Y253075D01*
X512573Y253127D01*
X512486Y253177D01*
X512398Y253222D01*
X512308Y253265D01*
X512216Y253304D01*
X512123Y253339D01*
X512029Y253371D01*
X511934Y253399D01*
X511838Y253424D01*
X511740Y253445D01*
X511642Y253462D01*
X511544Y253475D01*
X511445Y253484D01*
X511345Y253490D01*
X511246Y253492D01*
X509947Y253492D01*
X509848Y253490D01*
X509748Y253484D01*
X509649Y253475D01*
X509551Y253462D01*
X509453Y253445D01*
X509355Y253424D01*
X509259Y253399D01*
X509164Y253371D01*
X509070Y253339D01*
X508977Y253304D01*
X508885Y253265D01*
X508795Y253222D01*
X508707Y253177D01*
X508620Y253127D01*
X508536Y253075D01*
X508453Y253019D01*
X508373Y252961D01*
X508295Y252899D01*
X508220Y252834D01*
X508147Y252766D01*
X508077Y252696D01*
X508009Y252623D01*
X507944Y252548D01*
X507882Y252470D01*
X507824Y252390D01*
X507768Y252307D01*
X507716Y252223D01*
X507666Y252136D01*
X507621Y252048D01*
X507578Y251958D01*
X507539Y251866D01*
X507504Y251773D01*
X507472Y251679D01*
X507444Y251584D01*
X507419Y251488D01*
X507398Y251390D01*
X507381Y251292D01*
X507368Y251194D01*
X507359Y251095D01*
X507353Y250995D01*
X507351Y250896D01*
X507351Y247001D01*
X502158Y247001D01*
X502158Y253492D01*
X527558Y238816D02*
X539242Y234922D01*
X539242Y242711D02*
X527558Y238816D01*
X536321Y241737D02*
X536321Y235895D01*
X536646Y247001D02*
X527558Y249597D01*
X536646Y247001D02*
X536646Y253492D01*
X534049Y251545D02*
X539242Y251545D01*
X552958Y238816D02*
X564642Y234922D01*
X564642Y242711D02*
X552958Y238816D01*
X561721Y241737D02*
X561721Y235895D01*
X564642Y247001D02*
X564642Y250246D01*
X564640Y250359D01*
X564634Y250472D01*
X564624Y250585D01*
X564610Y250698D01*
X564593Y250810D01*
X564571Y250921D01*
X564546Y251031D01*
X564516Y251141D01*
X564483Y251249D01*
X564446Y251356D01*
X564406Y251462D01*
X564361Y251566D01*
X564313Y251669D01*
X564262Y251770D01*
X564207Y251869D01*
X564149Y251966D01*
X564087Y252061D01*
X564022Y252154D01*
X563954Y252244D01*
X563883Y252332D01*
X563808Y252418D01*
X563731Y252501D01*
X563651Y252581D01*
X563568Y252658D01*
X563482Y252733D01*
X563394Y252804D01*
X563304Y252872D01*
X563211Y252937D01*
X563116Y252999D01*
X563019Y253057D01*
X562920Y253112D01*
X562819Y253163D01*
X562716Y253211D01*
X562612Y253256D01*
X562506Y253296D01*
X562399Y253333D01*
X562291Y253366D01*
X562181Y253396D01*
X562071Y253421D01*
X561960Y253443D01*
X561848Y253460D01*
X561735Y253474D01*
X561622Y253484D01*
X561509Y253490D01*
X561396Y253492D01*
X561283Y253490D01*
X561170Y253484D01*
X561057Y253474D01*
X560944Y253460D01*
X560832Y253443D01*
X560721Y253421D01*
X560611Y253396D01*
X560501Y253366D01*
X560393Y253333D01*
X560286Y253296D01*
X560180Y253256D01*
X560076Y253211D01*
X559973Y253163D01*
X559872Y253112D01*
X559773Y253057D01*
X559676Y252999D01*
X559581Y252937D01*
X559488Y252872D01*
X559398Y252804D01*
X559310Y252733D01*
X559224Y252658D01*
X559141Y252581D01*
X559061Y252501D01*
X558984Y252418D01*
X558909Y252332D01*
X558838Y252244D01*
X558770Y252154D01*
X558705Y252061D01*
X558643Y251966D01*
X558585Y251869D01*
X558530Y251770D01*
X558479Y251669D01*
X558431Y251566D01*
X558386Y251462D01*
X558346Y251356D01*
X558309Y251249D01*
X558276Y251141D01*
X558246Y251031D01*
X558221Y250921D01*
X558199Y250810D01*
X558182Y250698D01*
X558168Y250585D01*
X558158Y250472D01*
X558152Y250359D01*
X558150Y250246D01*
X552958Y250896D02*
X552958Y247001D01*
X552958Y250896D02*
X552960Y250997D01*
X552966Y251097D01*
X552976Y251197D01*
X552989Y251297D01*
X553007Y251396D01*
X553028Y251495D01*
X553053Y251592D01*
X553082Y251689D01*
X553115Y251784D01*
X553151Y251878D01*
X553191Y251970D01*
X553234Y252061D01*
X553281Y252150D01*
X553331Y252237D01*
X553385Y252323D01*
X553442Y252406D01*
X553502Y252486D01*
X553565Y252565D01*
X553632Y252641D01*
X553701Y252714D01*
X553773Y252784D01*
X553847Y252852D01*
X553924Y252917D01*
X554004Y252978D01*
X554086Y253037D01*
X554170Y253092D01*
X554256Y253144D01*
X554344Y253193D01*
X554434Y253238D01*
X554526Y253280D01*
X554619Y253318D01*
X554714Y253352D01*
X554809Y253383D01*
X554906Y253410D01*
X555004Y253433D01*
X555103Y253453D01*
X555203Y253468D01*
X555303Y253480D01*
X555403Y253488D01*
X555504Y253492D01*
X555604Y253492D01*
X555705Y253488D01*
X555805Y253480D01*
X555905Y253468D01*
X556005Y253453D01*
X556104Y253433D01*
X556202Y253410D01*
X556299Y253383D01*
X556394Y253352D01*
X556489Y253318D01*
X556582Y253280D01*
X556674Y253238D01*
X556764Y253193D01*
X556852Y253144D01*
X556938Y253092D01*
X557022Y253037D01*
X557104Y252978D01*
X557184Y252917D01*
X557261Y252852D01*
X557335Y252784D01*
X557407Y252714D01*
X557476Y252641D01*
X557543Y252565D01*
X557606Y252486D01*
X557666Y252406D01*
X557723Y252323D01*
X557777Y252237D01*
X557827Y252150D01*
X557874Y252061D01*
X557917Y251970D01*
X557957Y251878D01*
X557993Y251784D01*
X558026Y251689D01*
X558055Y251592D01*
X558080Y251495D01*
X558101Y251396D01*
X558119Y251297D01*
X558132Y251197D01*
X558142Y251097D01*
X558148Y250997D01*
X558150Y250896D01*
X558151Y250896D02*
X558151Y248299D01*
X578358Y238816D02*
X590042Y234922D01*
X590042Y242711D02*
X578358Y238816D01*
X587121Y241737D02*
X587121Y235895D01*
X578358Y250571D02*
X578360Y250678D01*
X578366Y250784D01*
X578376Y250890D01*
X578389Y250996D01*
X578407Y251102D01*
X578428Y251206D01*
X578453Y251310D01*
X578482Y251413D01*
X578514Y251514D01*
X578551Y251614D01*
X578591Y251713D01*
X578634Y251811D01*
X578681Y251907D01*
X578732Y252001D01*
X578786Y252093D01*
X578843Y252183D01*
X578903Y252271D01*
X578967Y252356D01*
X579034Y252439D01*
X579104Y252520D01*
X579176Y252598D01*
X579252Y252674D01*
X579330Y252746D01*
X579411Y252816D01*
X579494Y252883D01*
X579579Y252947D01*
X579667Y253007D01*
X579757Y253064D01*
X579849Y253118D01*
X579943Y253169D01*
X580039Y253216D01*
X580137Y253259D01*
X580236Y253299D01*
X580336Y253336D01*
X580437Y253368D01*
X580540Y253397D01*
X580644Y253422D01*
X580748Y253443D01*
X580854Y253461D01*
X580960Y253474D01*
X581066Y253484D01*
X581172Y253490D01*
X581279Y253492D01*
X578358Y250571D02*
X578360Y250450D01*
X578366Y250329D01*
X578376Y250209D01*
X578389Y250088D01*
X578407Y249969D01*
X578428Y249849D01*
X578453Y249731D01*
X578482Y249614D01*
X578515Y249497D01*
X578551Y249382D01*
X578592Y249268D01*
X578635Y249155D01*
X578683Y249043D01*
X578734Y248934D01*
X578789Y248826D01*
X578847Y248719D01*
X578908Y248615D01*
X578973Y248513D01*
X579041Y248413D01*
X579112Y248315D01*
X579186Y248219D01*
X579263Y248126D01*
X579344Y248036D01*
X579427Y247948D01*
X579513Y247863D01*
X579602Y247780D01*
X579693Y247701D01*
X579787Y247624D01*
X579883Y247551D01*
X579981Y247481D01*
X580082Y247414D01*
X580185Y247350D01*
X580290Y247290D01*
X580397Y247232D01*
X580505Y247179D01*
X580615Y247129D01*
X580727Y247083D01*
X580840Y247040D01*
X580955Y247001D01*
X583551Y252518D02*
X583473Y252597D01*
X583393Y252673D01*
X583310Y252746D01*
X583224Y252816D01*
X583137Y252883D01*
X583046Y252947D01*
X582954Y253007D01*
X582860Y253065D01*
X582763Y253119D01*
X582665Y253169D01*
X582565Y253216D01*
X582464Y253260D01*
X582361Y253300D01*
X582256Y253336D01*
X582151Y253368D01*
X582044Y253397D01*
X581937Y253422D01*
X581828Y253444D01*
X581719Y253461D01*
X581610Y253475D01*
X581500Y253484D01*
X581389Y253490D01*
X581279Y253492D01*
X583551Y252518D02*
X590042Y247001D01*
X590042Y253492D01*
X603758Y238816D02*
X615442Y234922D01*
X615442Y242711D02*
X603758Y238816D01*
X612521Y241737D02*
X612521Y235895D01*
X606354Y247001D02*
X603758Y250246D01*
X615442Y250246D01*
X615442Y247001D02*
X615442Y253492D01*
X629158Y238816D02*
X640842Y234922D01*
X640842Y242711D02*
X629158Y238816D01*
X637921Y241737D02*
X637921Y235895D01*
X635000Y247001D02*
X634770Y247004D01*
X634540Y247012D01*
X634311Y247026D01*
X634082Y247045D01*
X633853Y247070D01*
X633625Y247100D01*
X633398Y247135D01*
X633172Y247176D01*
X632947Y247222D01*
X632723Y247274D01*
X632500Y247331D01*
X632279Y247393D01*
X632059Y247461D01*
X631841Y247534D01*
X631625Y247612D01*
X631411Y247695D01*
X631199Y247783D01*
X630988Y247876D01*
X630781Y247975D01*
X630781Y247974D02*
X630691Y248007D01*
X630602Y248043D01*
X630514Y248083D01*
X630429Y248127D01*
X630345Y248174D01*
X630263Y248224D01*
X630183Y248278D01*
X630106Y248334D01*
X630030Y248394D01*
X629957Y248457D01*
X629887Y248522D01*
X629819Y248591D01*
X629755Y248662D01*
X629693Y248735D01*
X629634Y248811D01*
X629578Y248889D01*
X629525Y248970D01*
X629476Y249052D01*
X629430Y249136D01*
X629387Y249223D01*
X629348Y249310D01*
X629312Y249400D01*
X629280Y249490D01*
X629252Y249582D01*
X629227Y249675D01*
X629206Y249769D01*
X629189Y249863D01*
X629175Y249958D01*
X629166Y250054D01*
X629160Y250150D01*
X629158Y250246D01*
X629160Y250342D01*
X629166Y250438D01*
X629175Y250534D01*
X629189Y250629D01*
X629206Y250723D01*
X629227Y250817D01*
X629252Y250910D01*
X629280Y251002D01*
X629312Y251092D01*
X629348Y251182D01*
X629387Y251270D01*
X629430Y251356D01*
X629476Y251440D01*
X629525Y251522D01*
X629578Y251603D01*
X629634Y251681D01*
X629693Y251757D01*
X629755Y251830D01*
X629819Y251901D01*
X629887Y251970D01*
X629957Y252035D01*
X630030Y252098D01*
X630106Y252158D01*
X630183Y252214D01*
X630263Y252268D01*
X630345Y252318D01*
X630429Y252365D01*
X630514Y252409D01*
X630602Y252449D01*
X630691Y252485D01*
X630781Y252518D01*
X630988Y252617D01*
X631199Y252710D01*
X631411Y252798D01*
X631625Y252881D01*
X631841Y252959D01*
X632059Y253032D01*
X632279Y253100D01*
X632500Y253162D01*
X632723Y253219D01*
X632947Y253271D01*
X633172Y253317D01*
X633398Y253358D01*
X633625Y253393D01*
X633853Y253423D01*
X634082Y253448D01*
X634311Y253467D01*
X634540Y253481D01*
X634770Y253489D01*
X635000Y253492D01*
X635000Y247001D02*
X635230Y247004D01*
X635460Y247012D01*
X635689Y247026D01*
X635918Y247045D01*
X636147Y247070D01*
X636375Y247100D01*
X636602Y247135D01*
X636828Y247176D01*
X637053Y247222D01*
X637277Y247274D01*
X637500Y247331D01*
X637721Y247393D01*
X637941Y247461D01*
X638159Y247534D01*
X638375Y247612D01*
X638589Y247695D01*
X638801Y247783D01*
X639012Y247876D01*
X639219Y247975D01*
X639219Y247974D02*
X639309Y248007D01*
X639398Y248043D01*
X639486Y248084D01*
X639571Y248127D01*
X639655Y248174D01*
X639737Y248224D01*
X639817Y248278D01*
X639894Y248334D01*
X639970Y248394D01*
X640043Y248457D01*
X640113Y248522D01*
X640181Y248591D01*
X640245Y248662D01*
X640307Y248735D01*
X640366Y248811D01*
X640422Y248889D01*
X640475Y248970D01*
X640524Y249052D01*
X640570Y249136D01*
X640613Y249223D01*
X640652Y249310D01*
X640688Y249400D01*
X640720Y249490D01*
X640748Y249582D01*
X640773Y249675D01*
X640794Y249769D01*
X640811Y249863D01*
X640825Y249958D01*
X640834Y250054D01*
X640840Y250150D01*
X640842Y250246D01*
X639219Y252518D02*
X639012Y252617D01*
X638801Y252710D01*
X638589Y252798D01*
X638375Y252881D01*
X638159Y252959D01*
X637941Y253032D01*
X637721Y253100D01*
X637500Y253162D01*
X637277Y253219D01*
X637053Y253271D01*
X636828Y253317D01*
X636602Y253358D01*
X636375Y253393D01*
X636147Y253423D01*
X635918Y253448D01*
X635689Y253467D01*
X635460Y253481D01*
X635230Y253489D01*
X635000Y253492D01*
X639219Y252518D02*
X639309Y252485D01*
X639398Y252449D01*
X639486Y252409D01*
X639571Y252365D01*
X639655Y252318D01*
X639737Y252268D01*
X639817Y252214D01*
X639894Y252158D01*
X639970Y252098D01*
X640043Y252035D01*
X640113Y251970D01*
X640181Y251901D01*
X640245Y251830D01*
X640307Y251757D01*
X640366Y251681D01*
X640422Y251603D01*
X640475Y251522D01*
X640524Y251440D01*
X640570Y251356D01*
X640613Y251269D01*
X640652Y251182D01*
X640688Y251092D01*
X640720Y251002D01*
X640748Y250910D01*
X640773Y250817D01*
X640794Y250723D01*
X640811Y250629D01*
X640825Y250534D01*
X640834Y250438D01*
X640840Y250342D01*
X640842Y250246D01*
X638246Y247650D02*
X631754Y252843D01*
X629158Y507508D02*
X640842Y507508D01*
X629158Y507508D02*
X629158Y510754D01*
X629160Y510867D01*
X629166Y510980D01*
X629176Y511093D01*
X629190Y511206D01*
X629207Y511318D01*
X629229Y511429D01*
X629254Y511539D01*
X629284Y511649D01*
X629317Y511757D01*
X629354Y511864D01*
X629394Y511970D01*
X629439Y512074D01*
X629487Y512177D01*
X629538Y512278D01*
X629593Y512377D01*
X629651Y512474D01*
X629713Y512569D01*
X629778Y512662D01*
X629846Y512752D01*
X629917Y512840D01*
X629992Y512926D01*
X630069Y513009D01*
X630149Y513089D01*
X630232Y513166D01*
X630318Y513241D01*
X630406Y513312D01*
X630496Y513380D01*
X630589Y513445D01*
X630684Y513507D01*
X630781Y513565D01*
X630880Y513620D01*
X630981Y513671D01*
X631084Y513719D01*
X631188Y513764D01*
X631294Y513804D01*
X631401Y513841D01*
X631509Y513874D01*
X631619Y513904D01*
X631729Y513929D01*
X631840Y513951D01*
X631952Y513968D01*
X632065Y513982D01*
X632178Y513992D01*
X632291Y513998D01*
X632404Y514000D01*
X632404Y513999D02*
X637596Y513999D01*
X637596Y514000D02*
X637709Y513998D01*
X637822Y513992D01*
X637935Y513982D01*
X638048Y513968D01*
X638160Y513951D01*
X638271Y513929D01*
X638381Y513904D01*
X638491Y513874D01*
X638599Y513841D01*
X638706Y513804D01*
X638812Y513764D01*
X638916Y513719D01*
X639019Y513671D01*
X639120Y513620D01*
X639219Y513565D01*
X639316Y513507D01*
X639411Y513445D01*
X639504Y513380D01*
X639594Y513312D01*
X639682Y513241D01*
X639768Y513166D01*
X639851Y513089D01*
X639931Y513009D01*
X640008Y512926D01*
X640083Y512840D01*
X640154Y512752D01*
X640222Y512662D01*
X640287Y512569D01*
X640349Y512474D01*
X640407Y512377D01*
X640462Y512278D01*
X640513Y512177D01*
X640561Y512074D01*
X640606Y511970D01*
X640646Y511864D01*
X640683Y511757D01*
X640716Y511649D01*
X640746Y511539D01*
X640771Y511429D01*
X640793Y511318D01*
X640810Y511206D01*
X640824Y511093D01*
X640834Y510980D01*
X640840Y510867D01*
X640842Y510754D01*
X640842Y507508D01*
X635000Y519319D02*
X634770Y519322D01*
X634540Y519330D01*
X634311Y519344D01*
X634082Y519363D01*
X633853Y519388D01*
X633625Y519418D01*
X633398Y519453D01*
X633172Y519494D01*
X632947Y519540D01*
X632723Y519592D01*
X632500Y519649D01*
X632279Y519711D01*
X632059Y519779D01*
X631841Y519852D01*
X631625Y519930D01*
X631411Y520013D01*
X631199Y520101D01*
X630988Y520194D01*
X630781Y520293D01*
X630691Y520326D01*
X630602Y520362D01*
X630514Y520402D01*
X630429Y520446D01*
X630345Y520493D01*
X630263Y520543D01*
X630183Y520597D01*
X630106Y520653D01*
X630030Y520713D01*
X629957Y520776D01*
X629887Y520841D01*
X629819Y520910D01*
X629755Y520981D01*
X629693Y521054D01*
X629634Y521130D01*
X629578Y521208D01*
X629525Y521289D01*
X629476Y521371D01*
X629430Y521455D01*
X629387Y521542D01*
X629348Y521629D01*
X629312Y521719D01*
X629280Y521809D01*
X629252Y521901D01*
X629227Y521994D01*
X629206Y522088D01*
X629189Y522182D01*
X629175Y522277D01*
X629166Y522373D01*
X629160Y522469D01*
X629158Y522565D01*
X629160Y522661D01*
X629166Y522757D01*
X629175Y522853D01*
X629189Y522948D01*
X629206Y523042D01*
X629227Y523136D01*
X629252Y523229D01*
X629280Y523321D01*
X629312Y523411D01*
X629348Y523501D01*
X629387Y523589D01*
X629430Y523675D01*
X629476Y523759D01*
X629525Y523841D01*
X629578Y523922D01*
X629634Y524000D01*
X629693Y524076D01*
X629755Y524149D01*
X629819Y524220D01*
X629887Y524289D01*
X629957Y524354D01*
X630030Y524417D01*
X630106Y524477D01*
X630183Y524533D01*
X630263Y524587D01*
X630345Y524637D01*
X630429Y524684D01*
X630514Y524728D01*
X630602Y524768D01*
X630691Y524804D01*
X630781Y524837D01*
X630781Y524836D02*
X630988Y524935D01*
X631199Y525028D01*
X631411Y525116D01*
X631625Y525199D01*
X631841Y525277D01*
X632059Y525350D01*
X632279Y525418D01*
X632500Y525480D01*
X632723Y525537D01*
X632947Y525589D01*
X633172Y525635D01*
X633398Y525676D01*
X633625Y525711D01*
X633853Y525741D01*
X634082Y525766D01*
X634311Y525785D01*
X634540Y525799D01*
X634770Y525807D01*
X635000Y525810D01*
X635000Y519319D02*
X635230Y519322D01*
X635460Y519330D01*
X635689Y519344D01*
X635918Y519363D01*
X636147Y519388D01*
X636375Y519418D01*
X636602Y519453D01*
X636828Y519494D01*
X637053Y519540D01*
X637277Y519592D01*
X637500Y519649D01*
X637721Y519711D01*
X637941Y519779D01*
X638159Y519852D01*
X638375Y519930D01*
X638589Y520013D01*
X638801Y520101D01*
X639012Y520194D01*
X639219Y520293D01*
X639309Y520326D01*
X639398Y520362D01*
X639486Y520403D01*
X639571Y520446D01*
X639655Y520493D01*
X639737Y520543D01*
X639817Y520597D01*
X639894Y520653D01*
X639970Y520713D01*
X640043Y520776D01*
X640113Y520841D01*
X640181Y520910D01*
X640245Y520981D01*
X640307Y521054D01*
X640366Y521130D01*
X640422Y521208D01*
X640475Y521289D01*
X640524Y521371D01*
X640570Y521455D01*
X640613Y521542D01*
X640652Y521629D01*
X640688Y521719D01*
X640720Y521809D01*
X640748Y521901D01*
X640773Y521994D01*
X640794Y522088D01*
X640811Y522182D01*
X640825Y522277D01*
X640834Y522373D01*
X640840Y522469D01*
X640842Y522565D01*
X639219Y524836D02*
X639012Y524935D01*
X638801Y525028D01*
X638589Y525116D01*
X638375Y525199D01*
X638159Y525277D01*
X637941Y525350D01*
X637721Y525418D01*
X637500Y525480D01*
X637277Y525537D01*
X637053Y525589D01*
X636828Y525635D01*
X636602Y525676D01*
X636375Y525711D01*
X636147Y525741D01*
X635918Y525766D01*
X635689Y525785D01*
X635460Y525799D01*
X635230Y525807D01*
X635000Y525810D01*
X639219Y524837D02*
X639309Y524804D01*
X639398Y524768D01*
X639486Y524728D01*
X639571Y524684D01*
X639655Y524637D01*
X639737Y524587D01*
X639817Y524533D01*
X639894Y524477D01*
X639970Y524417D01*
X640043Y524354D01*
X640113Y524289D01*
X640181Y524220D01*
X640245Y524149D01*
X640307Y524076D01*
X640366Y524000D01*
X640422Y523922D01*
X640475Y523841D01*
X640524Y523759D01*
X640570Y523675D01*
X640613Y523588D01*
X640652Y523501D01*
X640688Y523411D01*
X640720Y523321D01*
X640748Y523229D01*
X640773Y523136D01*
X640794Y523042D01*
X640811Y522948D01*
X640825Y522853D01*
X640834Y522757D01*
X640840Y522661D01*
X640842Y522565D01*
X638246Y519968D02*
X631754Y525161D01*
X615442Y507508D02*
X603758Y507508D01*
X603758Y510754D01*
X603760Y510867D01*
X603766Y510980D01*
X603776Y511093D01*
X603790Y511206D01*
X603807Y511318D01*
X603829Y511429D01*
X603854Y511539D01*
X603884Y511649D01*
X603917Y511757D01*
X603954Y511864D01*
X603994Y511970D01*
X604039Y512074D01*
X604087Y512177D01*
X604138Y512278D01*
X604193Y512377D01*
X604251Y512474D01*
X604313Y512569D01*
X604378Y512662D01*
X604446Y512752D01*
X604517Y512840D01*
X604592Y512926D01*
X604669Y513009D01*
X604749Y513089D01*
X604832Y513166D01*
X604918Y513241D01*
X605006Y513312D01*
X605096Y513380D01*
X605189Y513445D01*
X605284Y513507D01*
X605381Y513565D01*
X605480Y513620D01*
X605581Y513671D01*
X605684Y513719D01*
X605788Y513764D01*
X605894Y513804D01*
X606001Y513841D01*
X606109Y513874D01*
X606219Y513904D01*
X606329Y513929D01*
X606440Y513951D01*
X606552Y513968D01*
X606665Y513982D01*
X606778Y513992D01*
X606891Y513998D01*
X607004Y514000D01*
X607004Y513999D02*
X612196Y513999D01*
X612196Y514000D02*
X612309Y513998D01*
X612422Y513992D01*
X612535Y513982D01*
X612648Y513968D01*
X612760Y513951D01*
X612871Y513929D01*
X612981Y513904D01*
X613091Y513874D01*
X613199Y513841D01*
X613306Y513804D01*
X613412Y513764D01*
X613516Y513719D01*
X613619Y513671D01*
X613720Y513620D01*
X613819Y513565D01*
X613916Y513507D01*
X614011Y513445D01*
X614104Y513380D01*
X614194Y513312D01*
X614282Y513241D01*
X614368Y513166D01*
X614451Y513089D01*
X614531Y513009D01*
X614608Y512926D01*
X614683Y512840D01*
X614754Y512752D01*
X614822Y512662D01*
X614887Y512569D01*
X614949Y512474D01*
X615007Y512377D01*
X615062Y512278D01*
X615113Y512177D01*
X615161Y512074D01*
X615206Y511970D01*
X615246Y511864D01*
X615283Y511757D01*
X615316Y511649D01*
X615346Y511539D01*
X615371Y511429D01*
X615393Y511318D01*
X615410Y511206D01*
X615424Y511093D01*
X615434Y510980D01*
X615440Y510867D01*
X615442Y510754D01*
X615442Y507508D01*
X606354Y519319D02*
X603758Y522565D01*
X615442Y522565D01*
X615442Y525810D02*
X615442Y519319D01*
X590042Y507508D02*
X578358Y507508D01*
X578358Y510754D01*
X578360Y510867D01*
X578366Y510980D01*
X578376Y511093D01*
X578390Y511206D01*
X578407Y511318D01*
X578429Y511429D01*
X578454Y511539D01*
X578484Y511649D01*
X578517Y511757D01*
X578554Y511864D01*
X578594Y511970D01*
X578639Y512074D01*
X578687Y512177D01*
X578738Y512278D01*
X578793Y512377D01*
X578851Y512474D01*
X578913Y512569D01*
X578978Y512662D01*
X579046Y512752D01*
X579117Y512840D01*
X579192Y512926D01*
X579269Y513009D01*
X579349Y513089D01*
X579432Y513166D01*
X579518Y513241D01*
X579606Y513312D01*
X579696Y513380D01*
X579789Y513445D01*
X579884Y513507D01*
X579981Y513565D01*
X580080Y513620D01*
X580181Y513671D01*
X580284Y513719D01*
X580388Y513764D01*
X580494Y513804D01*
X580601Y513841D01*
X580709Y513874D01*
X580819Y513904D01*
X580929Y513929D01*
X581040Y513951D01*
X581152Y513968D01*
X581265Y513982D01*
X581378Y513992D01*
X581491Y513998D01*
X581604Y514000D01*
X581604Y513999D02*
X586796Y513999D01*
X586796Y514000D02*
X586909Y513998D01*
X587022Y513992D01*
X587135Y513982D01*
X587248Y513968D01*
X587360Y513951D01*
X587471Y513929D01*
X587581Y513904D01*
X587691Y513874D01*
X587799Y513841D01*
X587906Y513804D01*
X588012Y513764D01*
X588116Y513719D01*
X588219Y513671D01*
X588320Y513620D01*
X588419Y513565D01*
X588516Y513507D01*
X588611Y513445D01*
X588704Y513380D01*
X588794Y513312D01*
X588882Y513241D01*
X588968Y513166D01*
X589051Y513089D01*
X589131Y513009D01*
X589208Y512926D01*
X589283Y512840D01*
X589354Y512752D01*
X589422Y512662D01*
X589487Y512569D01*
X589549Y512474D01*
X589607Y512377D01*
X589662Y512278D01*
X589713Y512177D01*
X589761Y512074D01*
X589806Y511970D01*
X589846Y511864D01*
X589883Y511757D01*
X589916Y511649D01*
X589946Y511539D01*
X589971Y511429D01*
X589993Y511318D01*
X590010Y511206D01*
X590024Y511093D01*
X590034Y510980D01*
X590040Y510867D01*
X590042Y510754D01*
X590042Y507508D01*
X578358Y522889D02*
X578360Y522996D01*
X578366Y523102D01*
X578376Y523208D01*
X578389Y523314D01*
X578407Y523420D01*
X578428Y523524D01*
X578453Y523628D01*
X578482Y523731D01*
X578514Y523832D01*
X578551Y523932D01*
X578591Y524031D01*
X578634Y524129D01*
X578681Y524225D01*
X578732Y524319D01*
X578786Y524411D01*
X578843Y524501D01*
X578903Y524589D01*
X578967Y524674D01*
X579034Y524757D01*
X579104Y524838D01*
X579176Y524916D01*
X579252Y524992D01*
X579330Y525064D01*
X579411Y525134D01*
X579494Y525201D01*
X579579Y525265D01*
X579667Y525325D01*
X579757Y525382D01*
X579849Y525436D01*
X579943Y525487D01*
X580039Y525534D01*
X580137Y525577D01*
X580236Y525617D01*
X580336Y525654D01*
X580437Y525686D01*
X580540Y525715D01*
X580644Y525740D01*
X580748Y525761D01*
X580854Y525779D01*
X580960Y525792D01*
X581066Y525802D01*
X581172Y525808D01*
X581279Y525810D01*
X578358Y522889D02*
X578360Y522768D01*
X578366Y522647D01*
X578376Y522527D01*
X578389Y522406D01*
X578407Y522287D01*
X578428Y522167D01*
X578453Y522049D01*
X578482Y521932D01*
X578515Y521815D01*
X578551Y521700D01*
X578592Y521586D01*
X578635Y521473D01*
X578683Y521361D01*
X578734Y521252D01*
X578789Y521144D01*
X578847Y521037D01*
X578908Y520933D01*
X578973Y520831D01*
X579041Y520731D01*
X579112Y520633D01*
X579186Y520537D01*
X579263Y520444D01*
X579344Y520354D01*
X579427Y520266D01*
X579513Y520181D01*
X579602Y520098D01*
X579693Y520019D01*
X579787Y519942D01*
X579883Y519869D01*
X579981Y519799D01*
X580082Y519732D01*
X580185Y519668D01*
X580290Y519608D01*
X580397Y519550D01*
X580505Y519497D01*
X580615Y519447D01*
X580727Y519401D01*
X580840Y519358D01*
X580955Y519319D01*
X583551Y524836D02*
X583473Y524915D01*
X583393Y524991D01*
X583310Y525064D01*
X583224Y525134D01*
X583137Y525201D01*
X583046Y525265D01*
X582954Y525325D01*
X582860Y525383D01*
X582763Y525437D01*
X582665Y525487D01*
X582565Y525534D01*
X582464Y525578D01*
X582361Y525618D01*
X582256Y525654D01*
X582151Y525686D01*
X582044Y525715D01*
X581937Y525740D01*
X581828Y525762D01*
X581719Y525779D01*
X581610Y525793D01*
X581500Y525802D01*
X581389Y525808D01*
X581279Y525810D01*
X583551Y524836D02*
X590042Y519319D01*
X590042Y525810D01*
X564642Y507508D02*
X552958Y507508D01*
X552958Y510754D01*
X552960Y510867D01*
X552966Y510980D01*
X552976Y511093D01*
X552990Y511206D01*
X553007Y511318D01*
X553029Y511429D01*
X553054Y511539D01*
X553084Y511649D01*
X553117Y511757D01*
X553154Y511864D01*
X553194Y511970D01*
X553239Y512074D01*
X553287Y512177D01*
X553338Y512278D01*
X553393Y512377D01*
X553451Y512474D01*
X553513Y512569D01*
X553578Y512662D01*
X553646Y512752D01*
X553717Y512840D01*
X553792Y512926D01*
X553869Y513009D01*
X553949Y513089D01*
X554032Y513166D01*
X554118Y513241D01*
X554206Y513312D01*
X554296Y513380D01*
X554389Y513445D01*
X554484Y513507D01*
X554581Y513565D01*
X554680Y513620D01*
X554781Y513671D01*
X554884Y513719D01*
X554988Y513764D01*
X555094Y513804D01*
X555201Y513841D01*
X555309Y513874D01*
X555419Y513904D01*
X555529Y513929D01*
X555640Y513951D01*
X555752Y513968D01*
X555865Y513982D01*
X555978Y513992D01*
X556091Y513998D01*
X556204Y514000D01*
X556204Y513999D02*
X561396Y513999D01*
X561396Y514000D02*
X561509Y513998D01*
X561622Y513992D01*
X561735Y513982D01*
X561848Y513968D01*
X561960Y513951D01*
X562071Y513929D01*
X562181Y513904D01*
X562291Y513874D01*
X562399Y513841D01*
X562506Y513804D01*
X562612Y513764D01*
X562716Y513719D01*
X562819Y513671D01*
X562920Y513620D01*
X563019Y513565D01*
X563116Y513507D01*
X563211Y513445D01*
X563304Y513380D01*
X563394Y513312D01*
X563482Y513241D01*
X563568Y513166D01*
X563651Y513089D01*
X563731Y513009D01*
X563808Y512926D01*
X563883Y512840D01*
X563954Y512752D01*
X564022Y512662D01*
X564087Y512569D01*
X564149Y512474D01*
X564207Y512377D01*
X564262Y512278D01*
X564313Y512177D01*
X564361Y512074D01*
X564406Y511970D01*
X564446Y511864D01*
X564483Y511757D01*
X564516Y511649D01*
X564546Y511539D01*
X564571Y511429D01*
X564593Y511318D01*
X564610Y511206D01*
X564624Y511093D01*
X564634Y510980D01*
X564640Y510867D01*
X564642Y510754D01*
X564642Y507508D01*
X564642Y519319D02*
X564642Y522565D01*
X564640Y522678D01*
X564634Y522791D01*
X564624Y522904D01*
X564610Y523017D01*
X564593Y523129D01*
X564571Y523240D01*
X564546Y523350D01*
X564516Y523460D01*
X564483Y523568D01*
X564446Y523675D01*
X564406Y523781D01*
X564361Y523885D01*
X564313Y523988D01*
X564262Y524089D01*
X564207Y524188D01*
X564149Y524285D01*
X564087Y524380D01*
X564022Y524473D01*
X563954Y524563D01*
X563883Y524651D01*
X563808Y524737D01*
X563731Y524820D01*
X563651Y524900D01*
X563568Y524977D01*
X563482Y525052D01*
X563394Y525123D01*
X563304Y525191D01*
X563211Y525256D01*
X563116Y525318D01*
X563019Y525376D01*
X562920Y525431D01*
X562819Y525482D01*
X562716Y525530D01*
X562612Y525575D01*
X562506Y525615D01*
X562399Y525652D01*
X562291Y525685D01*
X562181Y525715D01*
X562071Y525740D01*
X561960Y525762D01*
X561848Y525779D01*
X561735Y525793D01*
X561622Y525803D01*
X561509Y525809D01*
X561396Y525811D01*
X561283Y525809D01*
X561170Y525803D01*
X561057Y525793D01*
X560944Y525779D01*
X560832Y525762D01*
X560721Y525740D01*
X560611Y525715D01*
X560501Y525685D01*
X560393Y525652D01*
X560286Y525615D01*
X560180Y525575D01*
X560076Y525530D01*
X559973Y525482D01*
X559872Y525431D01*
X559773Y525376D01*
X559676Y525318D01*
X559581Y525256D01*
X559488Y525191D01*
X559398Y525123D01*
X559310Y525052D01*
X559224Y524977D01*
X559141Y524900D01*
X559061Y524820D01*
X558984Y524737D01*
X558909Y524651D01*
X558838Y524563D01*
X558770Y524473D01*
X558705Y524380D01*
X558643Y524285D01*
X558585Y524188D01*
X558530Y524089D01*
X558479Y523988D01*
X558431Y523885D01*
X558386Y523781D01*
X558346Y523675D01*
X558309Y523568D01*
X558276Y523460D01*
X558246Y523350D01*
X558221Y523240D01*
X558199Y523129D01*
X558182Y523017D01*
X558168Y522904D01*
X558158Y522791D01*
X558152Y522678D01*
X558150Y522565D01*
X552958Y523214D02*
X552958Y519319D01*
X552958Y523214D02*
X552960Y523315D01*
X552966Y523415D01*
X552976Y523515D01*
X552989Y523615D01*
X553007Y523714D01*
X553028Y523813D01*
X553053Y523910D01*
X553082Y524007D01*
X553115Y524102D01*
X553151Y524196D01*
X553191Y524288D01*
X553234Y524379D01*
X553281Y524468D01*
X553331Y524555D01*
X553385Y524641D01*
X553442Y524724D01*
X553502Y524804D01*
X553565Y524883D01*
X553632Y524959D01*
X553701Y525032D01*
X553773Y525102D01*
X553847Y525170D01*
X553924Y525235D01*
X554004Y525296D01*
X554086Y525355D01*
X554170Y525410D01*
X554256Y525462D01*
X554344Y525511D01*
X554434Y525556D01*
X554526Y525598D01*
X554619Y525636D01*
X554714Y525670D01*
X554809Y525701D01*
X554906Y525728D01*
X555004Y525751D01*
X555103Y525771D01*
X555203Y525786D01*
X555303Y525798D01*
X555403Y525806D01*
X555504Y525810D01*
X555604Y525810D01*
X555705Y525806D01*
X555805Y525798D01*
X555905Y525786D01*
X556005Y525771D01*
X556104Y525751D01*
X556202Y525728D01*
X556299Y525701D01*
X556394Y525670D01*
X556489Y525636D01*
X556582Y525598D01*
X556674Y525556D01*
X556764Y525511D01*
X556852Y525462D01*
X556938Y525410D01*
X557022Y525355D01*
X557104Y525296D01*
X557184Y525235D01*
X557261Y525170D01*
X557335Y525102D01*
X557407Y525032D01*
X557476Y524959D01*
X557543Y524883D01*
X557606Y524804D01*
X557666Y524724D01*
X557723Y524641D01*
X557777Y524555D01*
X557827Y524468D01*
X557874Y524379D01*
X557917Y524288D01*
X557957Y524196D01*
X557993Y524102D01*
X558026Y524007D01*
X558055Y523910D01*
X558080Y523813D01*
X558101Y523714D01*
X558119Y523615D01*
X558132Y523515D01*
X558142Y523415D01*
X558148Y523315D01*
X558150Y523214D01*
X558151Y523214D02*
X558151Y520617D01*
X539242Y507508D02*
X527558Y507508D01*
X527558Y510754D01*
X527560Y510867D01*
X527566Y510980D01*
X527576Y511093D01*
X527590Y511206D01*
X527607Y511318D01*
X527629Y511429D01*
X527654Y511539D01*
X527684Y511649D01*
X527717Y511757D01*
X527754Y511864D01*
X527794Y511970D01*
X527839Y512074D01*
X527887Y512177D01*
X527938Y512278D01*
X527993Y512377D01*
X528051Y512474D01*
X528113Y512569D01*
X528178Y512662D01*
X528246Y512752D01*
X528317Y512840D01*
X528392Y512926D01*
X528469Y513009D01*
X528549Y513089D01*
X528632Y513166D01*
X528718Y513241D01*
X528806Y513312D01*
X528896Y513380D01*
X528989Y513445D01*
X529084Y513507D01*
X529181Y513565D01*
X529280Y513620D01*
X529381Y513671D01*
X529484Y513719D01*
X529588Y513764D01*
X529694Y513804D01*
X529801Y513841D01*
X529909Y513874D01*
X530019Y513904D01*
X530129Y513929D01*
X530240Y513951D01*
X530352Y513968D01*
X530465Y513982D01*
X530578Y513992D01*
X530691Y513998D01*
X530804Y514000D01*
X530804Y513999D02*
X535996Y513999D01*
X535996Y514000D02*
X536109Y513998D01*
X536222Y513992D01*
X536335Y513982D01*
X536448Y513968D01*
X536560Y513951D01*
X536671Y513929D01*
X536781Y513904D01*
X536891Y513874D01*
X536999Y513841D01*
X537106Y513804D01*
X537212Y513764D01*
X537316Y513719D01*
X537419Y513671D01*
X537520Y513620D01*
X537619Y513565D01*
X537716Y513507D01*
X537811Y513445D01*
X537904Y513380D01*
X537994Y513312D01*
X538082Y513241D01*
X538168Y513166D01*
X538251Y513089D01*
X538331Y513009D01*
X538408Y512926D01*
X538483Y512840D01*
X538554Y512752D01*
X538622Y512662D01*
X538687Y512569D01*
X538749Y512474D01*
X538807Y512377D01*
X538862Y512278D01*
X538913Y512177D01*
X538961Y512074D01*
X539006Y511970D01*
X539046Y511864D01*
X539083Y511757D01*
X539116Y511649D01*
X539146Y511539D01*
X539171Y511429D01*
X539193Y511318D01*
X539210Y511206D01*
X539224Y511093D01*
X539234Y510980D01*
X539240Y510867D01*
X539242Y510754D01*
X539242Y507508D01*
X536646Y519319D02*
X527558Y521915D01*
X536646Y519319D02*
X536646Y525810D01*
X534049Y523863D02*
X539242Y523863D01*
X513842Y507508D02*
X502158Y507508D01*
X502158Y510754D01*
X502160Y510867D01*
X502166Y510980D01*
X502176Y511093D01*
X502190Y511206D01*
X502207Y511318D01*
X502229Y511429D01*
X502254Y511539D01*
X502284Y511649D01*
X502317Y511757D01*
X502354Y511864D01*
X502394Y511970D01*
X502439Y512074D01*
X502487Y512177D01*
X502538Y512278D01*
X502593Y512377D01*
X502651Y512474D01*
X502713Y512569D01*
X502778Y512662D01*
X502846Y512752D01*
X502917Y512840D01*
X502992Y512926D01*
X503069Y513009D01*
X503149Y513089D01*
X503232Y513166D01*
X503318Y513241D01*
X503406Y513312D01*
X503496Y513380D01*
X503589Y513445D01*
X503684Y513507D01*
X503781Y513565D01*
X503880Y513620D01*
X503981Y513671D01*
X504084Y513719D01*
X504188Y513764D01*
X504294Y513804D01*
X504401Y513841D01*
X504509Y513874D01*
X504619Y513904D01*
X504729Y513929D01*
X504840Y513951D01*
X504952Y513968D01*
X505065Y513982D01*
X505178Y513992D01*
X505291Y513998D01*
X505404Y514000D01*
X505404Y513999D02*
X510596Y513999D01*
X510596Y514000D02*
X510709Y513998D01*
X510822Y513992D01*
X510935Y513982D01*
X511048Y513968D01*
X511160Y513951D01*
X511271Y513929D01*
X511381Y513904D01*
X511491Y513874D01*
X511599Y513841D01*
X511706Y513804D01*
X511812Y513764D01*
X511916Y513719D01*
X512019Y513671D01*
X512120Y513620D01*
X512219Y513565D01*
X512316Y513507D01*
X512411Y513445D01*
X512504Y513380D01*
X512594Y513312D01*
X512682Y513241D01*
X512768Y513166D01*
X512851Y513089D01*
X512931Y513009D01*
X513008Y512926D01*
X513083Y512840D01*
X513154Y512752D01*
X513222Y512662D01*
X513287Y512569D01*
X513349Y512474D01*
X513407Y512377D01*
X513462Y512278D01*
X513513Y512177D01*
X513561Y512074D01*
X513606Y511970D01*
X513646Y511864D01*
X513683Y511757D01*
X513716Y511649D01*
X513746Y511539D01*
X513771Y511429D01*
X513793Y511318D01*
X513810Y511206D01*
X513824Y511093D01*
X513834Y510980D01*
X513840Y510867D01*
X513842Y510754D01*
X513842Y507508D01*
X513842Y519319D02*
X513842Y523214D01*
X513840Y523313D01*
X513834Y523413D01*
X513825Y523512D01*
X513812Y523610D01*
X513795Y523708D01*
X513774Y523806D01*
X513749Y523902D01*
X513721Y523997D01*
X513689Y524091D01*
X513654Y524184D01*
X513615Y524276D01*
X513572Y524366D01*
X513527Y524454D01*
X513477Y524541D01*
X513425Y524625D01*
X513369Y524708D01*
X513311Y524788D01*
X513249Y524866D01*
X513184Y524941D01*
X513116Y525014D01*
X513046Y525084D01*
X512973Y525152D01*
X512898Y525217D01*
X512820Y525279D01*
X512740Y525337D01*
X512657Y525393D01*
X512573Y525445D01*
X512486Y525495D01*
X512398Y525540D01*
X512308Y525583D01*
X512216Y525622D01*
X512123Y525657D01*
X512029Y525689D01*
X511934Y525717D01*
X511838Y525742D01*
X511740Y525763D01*
X511642Y525780D01*
X511544Y525793D01*
X511445Y525802D01*
X511345Y525808D01*
X511246Y525810D01*
X509947Y525810D01*
X509848Y525808D01*
X509748Y525802D01*
X509649Y525793D01*
X509551Y525780D01*
X509453Y525763D01*
X509355Y525742D01*
X509259Y525717D01*
X509164Y525689D01*
X509070Y525657D01*
X508977Y525622D01*
X508885Y525583D01*
X508795Y525540D01*
X508707Y525495D01*
X508620Y525445D01*
X508536Y525393D01*
X508453Y525337D01*
X508373Y525279D01*
X508295Y525217D01*
X508220Y525152D01*
X508147Y525084D01*
X508077Y525014D01*
X508009Y524941D01*
X507944Y524866D01*
X507882Y524788D01*
X507824Y524708D01*
X507768Y524625D01*
X507716Y524541D01*
X507666Y524454D01*
X507621Y524366D01*
X507578Y524276D01*
X507539Y524184D01*
X507504Y524091D01*
X507472Y523997D01*
X507444Y523902D01*
X507419Y523806D01*
X507398Y523708D01*
X507381Y523610D01*
X507368Y523512D01*
X507359Y523413D01*
X507353Y523313D01*
X507351Y523214D01*
X507351Y519319D01*
X502158Y519319D01*
X502158Y525810D01*
X488442Y507508D02*
X476758Y507508D01*
X476758Y510754D01*
X476760Y510867D01*
X476766Y510980D01*
X476776Y511093D01*
X476790Y511206D01*
X476807Y511318D01*
X476829Y511429D01*
X476854Y511539D01*
X476884Y511649D01*
X476917Y511757D01*
X476954Y511864D01*
X476994Y511970D01*
X477039Y512074D01*
X477087Y512177D01*
X477138Y512278D01*
X477193Y512377D01*
X477251Y512474D01*
X477313Y512569D01*
X477378Y512662D01*
X477446Y512752D01*
X477517Y512840D01*
X477592Y512926D01*
X477669Y513009D01*
X477749Y513089D01*
X477832Y513166D01*
X477918Y513241D01*
X478006Y513312D01*
X478096Y513380D01*
X478189Y513445D01*
X478284Y513507D01*
X478381Y513565D01*
X478480Y513620D01*
X478581Y513671D01*
X478684Y513719D01*
X478788Y513764D01*
X478894Y513804D01*
X479001Y513841D01*
X479109Y513874D01*
X479219Y513904D01*
X479329Y513929D01*
X479440Y513951D01*
X479552Y513968D01*
X479665Y513982D01*
X479778Y513992D01*
X479891Y513998D01*
X480004Y514000D01*
X480004Y513999D02*
X485196Y513999D01*
X485196Y514000D02*
X485309Y513998D01*
X485422Y513992D01*
X485535Y513982D01*
X485648Y513968D01*
X485760Y513951D01*
X485871Y513929D01*
X485981Y513904D01*
X486091Y513874D01*
X486199Y513841D01*
X486306Y513804D01*
X486412Y513764D01*
X486516Y513719D01*
X486619Y513671D01*
X486720Y513620D01*
X486819Y513565D01*
X486916Y513507D01*
X487011Y513445D01*
X487104Y513380D01*
X487194Y513312D01*
X487282Y513241D01*
X487368Y513166D01*
X487451Y513089D01*
X487531Y513009D01*
X487608Y512926D01*
X487683Y512840D01*
X487754Y512752D01*
X487822Y512662D01*
X487887Y512569D01*
X487949Y512474D01*
X488007Y512377D01*
X488062Y512278D01*
X488113Y512177D01*
X488161Y512074D01*
X488206Y511970D01*
X488246Y511864D01*
X488283Y511757D01*
X488316Y511649D01*
X488346Y511539D01*
X488371Y511429D01*
X488393Y511318D01*
X488410Y511206D01*
X488424Y511093D01*
X488434Y510980D01*
X488440Y510867D01*
X488442Y510754D01*
X488442Y507508D01*
X481951Y519319D02*
X481951Y523214D01*
X481953Y523313D01*
X481959Y523413D01*
X481968Y523512D01*
X481981Y523610D01*
X481998Y523708D01*
X482019Y523806D01*
X482044Y523902D01*
X482072Y523997D01*
X482104Y524091D01*
X482139Y524184D01*
X482178Y524276D01*
X482221Y524366D01*
X482266Y524454D01*
X482316Y524541D01*
X482368Y524625D01*
X482424Y524708D01*
X482482Y524788D01*
X482544Y524866D01*
X482609Y524941D01*
X482677Y525014D01*
X482747Y525084D01*
X482820Y525152D01*
X482895Y525217D01*
X482973Y525279D01*
X483053Y525337D01*
X483136Y525393D01*
X483220Y525445D01*
X483307Y525495D01*
X483395Y525540D01*
X483485Y525583D01*
X483577Y525622D01*
X483670Y525657D01*
X483764Y525689D01*
X483859Y525717D01*
X483955Y525742D01*
X484053Y525763D01*
X484151Y525780D01*
X484249Y525793D01*
X484348Y525802D01*
X484448Y525808D01*
X484547Y525810D01*
X485196Y525810D01*
X485196Y525811D02*
X485309Y525809D01*
X485422Y525803D01*
X485535Y525793D01*
X485648Y525779D01*
X485760Y525762D01*
X485871Y525740D01*
X485981Y525715D01*
X486091Y525685D01*
X486199Y525652D01*
X486306Y525615D01*
X486412Y525575D01*
X486516Y525530D01*
X486619Y525482D01*
X486720Y525431D01*
X486819Y525376D01*
X486916Y525318D01*
X487011Y525256D01*
X487104Y525191D01*
X487194Y525123D01*
X487282Y525052D01*
X487368Y524977D01*
X487451Y524900D01*
X487531Y524820D01*
X487608Y524737D01*
X487683Y524651D01*
X487754Y524563D01*
X487822Y524473D01*
X487887Y524380D01*
X487949Y524285D01*
X488007Y524188D01*
X488062Y524089D01*
X488113Y523988D01*
X488161Y523885D01*
X488206Y523781D01*
X488246Y523675D01*
X488283Y523568D01*
X488316Y523460D01*
X488346Y523350D01*
X488371Y523240D01*
X488393Y523129D01*
X488410Y523017D01*
X488424Y522904D01*
X488434Y522791D01*
X488440Y522678D01*
X488442Y522565D01*
X488440Y522452D01*
X488434Y522339D01*
X488424Y522226D01*
X488410Y522113D01*
X488393Y522001D01*
X488371Y521890D01*
X488346Y521780D01*
X488316Y521670D01*
X488283Y521562D01*
X488246Y521455D01*
X488206Y521349D01*
X488161Y521245D01*
X488113Y521142D01*
X488062Y521041D01*
X488007Y520942D01*
X487949Y520845D01*
X487887Y520750D01*
X487822Y520657D01*
X487754Y520567D01*
X487683Y520479D01*
X487608Y520393D01*
X487531Y520310D01*
X487451Y520230D01*
X487368Y520153D01*
X487282Y520078D01*
X487194Y520007D01*
X487104Y519939D01*
X487011Y519874D01*
X486916Y519812D01*
X486819Y519754D01*
X486720Y519699D01*
X486619Y519648D01*
X486516Y519600D01*
X486412Y519555D01*
X486306Y519515D01*
X486199Y519478D01*
X486091Y519445D01*
X485981Y519415D01*
X485871Y519390D01*
X485760Y519368D01*
X485648Y519351D01*
X485535Y519337D01*
X485422Y519327D01*
X485309Y519321D01*
X485196Y519319D01*
X481951Y519319D01*
X481808Y519321D01*
X481665Y519327D01*
X481522Y519337D01*
X481380Y519351D01*
X481238Y519368D01*
X481096Y519390D01*
X480955Y519415D01*
X480815Y519445D01*
X480676Y519478D01*
X480538Y519515D01*
X480401Y519556D01*
X480265Y519600D01*
X480130Y519649D01*
X479997Y519701D01*
X479865Y519756D01*
X479735Y519816D01*
X479606Y519879D01*
X479479Y519945D01*
X479355Y520015D01*
X479232Y520088D01*
X479111Y520165D01*
X478992Y520244D01*
X478876Y520328D01*
X478761Y520414D01*
X478650Y520503D01*
X478541Y520596D01*
X478434Y520691D01*
X478330Y520790D01*
X478229Y520891D01*
X478130Y520995D01*
X478035Y521101D01*
X477942Y521211D01*
X477853Y521322D01*
X477767Y521436D01*
X477684Y521553D01*
X477604Y521672D01*
X477527Y521793D01*
X477454Y521915D01*
X477384Y522040D01*
X477318Y522167D01*
X477255Y522296D01*
X477195Y522426D01*
X477140Y522558D01*
X477088Y522691D01*
X477039Y522826D01*
X476995Y522962D01*
X476954Y523099D01*
X476917Y523237D01*
X476884Y523376D01*
X476854Y523516D01*
X476829Y523657D01*
X476807Y523799D01*
X476790Y523941D01*
X476776Y524083D01*
X476766Y524226D01*
X476760Y524369D01*
X476758Y524512D01*
X463042Y507508D02*
X451358Y507508D01*
X451358Y510754D01*
X451360Y510867D01*
X451366Y510980D01*
X451376Y511093D01*
X451390Y511206D01*
X451407Y511318D01*
X451429Y511429D01*
X451454Y511539D01*
X451484Y511649D01*
X451517Y511757D01*
X451554Y511864D01*
X451594Y511970D01*
X451639Y512074D01*
X451687Y512177D01*
X451738Y512278D01*
X451793Y512377D01*
X451851Y512474D01*
X451913Y512569D01*
X451978Y512662D01*
X452046Y512752D01*
X452117Y512840D01*
X452192Y512926D01*
X452269Y513009D01*
X452349Y513089D01*
X452432Y513166D01*
X452518Y513241D01*
X452606Y513312D01*
X452696Y513380D01*
X452789Y513445D01*
X452884Y513507D01*
X452981Y513565D01*
X453080Y513620D01*
X453181Y513671D01*
X453284Y513719D01*
X453388Y513764D01*
X453494Y513804D01*
X453601Y513841D01*
X453709Y513874D01*
X453819Y513904D01*
X453929Y513929D01*
X454040Y513951D01*
X454152Y513968D01*
X454265Y513982D01*
X454378Y513992D01*
X454491Y513998D01*
X454604Y514000D01*
X454604Y513999D02*
X459796Y513999D01*
X459796Y514000D02*
X459909Y513998D01*
X460022Y513992D01*
X460135Y513982D01*
X460248Y513968D01*
X460360Y513951D01*
X460471Y513929D01*
X460581Y513904D01*
X460691Y513874D01*
X460799Y513841D01*
X460906Y513804D01*
X461012Y513764D01*
X461116Y513719D01*
X461219Y513671D01*
X461320Y513620D01*
X461419Y513565D01*
X461516Y513507D01*
X461611Y513445D01*
X461704Y513380D01*
X461794Y513312D01*
X461882Y513241D01*
X461968Y513166D01*
X462051Y513089D01*
X462131Y513009D01*
X462208Y512926D01*
X462283Y512840D01*
X462354Y512752D01*
X462422Y512662D01*
X462487Y512569D01*
X462549Y512474D01*
X462607Y512377D01*
X462662Y512278D01*
X462713Y512177D01*
X462761Y512074D01*
X462806Y511970D01*
X462846Y511864D01*
X462883Y511757D01*
X462916Y511649D01*
X462946Y511539D01*
X462971Y511429D01*
X462993Y511318D01*
X463010Y511206D01*
X463024Y511093D01*
X463034Y510980D01*
X463040Y510867D01*
X463042Y510754D01*
X463042Y507508D01*
X452656Y519319D02*
X451358Y519319D01*
X451358Y525810D01*
X463042Y522565D01*
X431151Y513999D02*
X431151Y512052D01*
X431151Y513999D02*
X437642Y513999D01*
X437642Y510104D01*
X437640Y510005D01*
X437634Y509905D01*
X437625Y509806D01*
X437612Y509708D01*
X437595Y509610D01*
X437574Y509512D01*
X437549Y509416D01*
X437521Y509321D01*
X437489Y509227D01*
X437454Y509134D01*
X437415Y509042D01*
X437372Y508952D01*
X437327Y508864D01*
X437277Y508777D01*
X437225Y508693D01*
X437169Y508610D01*
X437111Y508530D01*
X437049Y508452D01*
X436984Y508377D01*
X436916Y508304D01*
X436846Y508234D01*
X436773Y508166D01*
X436698Y508101D01*
X436620Y508039D01*
X436540Y507981D01*
X436457Y507925D01*
X436373Y507873D01*
X436286Y507823D01*
X436198Y507778D01*
X436108Y507735D01*
X436016Y507696D01*
X435923Y507661D01*
X435829Y507629D01*
X435734Y507601D01*
X435638Y507576D01*
X435540Y507555D01*
X435442Y507538D01*
X435344Y507525D01*
X435245Y507516D01*
X435145Y507510D01*
X435046Y507508D01*
X428554Y507508D01*
X428455Y507510D01*
X428355Y507516D01*
X428256Y507525D01*
X428158Y507538D01*
X428060Y507556D01*
X427962Y507576D01*
X427866Y507601D01*
X427770Y507629D01*
X427676Y507661D01*
X427583Y507696D01*
X427492Y507735D01*
X427402Y507778D01*
X427313Y507823D01*
X427227Y507873D01*
X427142Y507925D01*
X427060Y507981D01*
X426980Y508040D01*
X426902Y508101D01*
X426826Y508166D01*
X426753Y508234D01*
X426683Y508304D01*
X426615Y508377D01*
X426550Y508453D01*
X426489Y508531D01*
X426430Y508611D01*
X426374Y508693D01*
X426322Y508778D01*
X426273Y508864D01*
X426227Y508953D01*
X426184Y509043D01*
X426145Y509134D01*
X426110Y509227D01*
X426078Y509321D01*
X426050Y509417D01*
X426025Y509513D01*
X426005Y509611D01*
X425987Y509709D01*
X425974Y509807D01*
X425965Y509906D01*
X425959Y510005D01*
X425957Y510105D01*
X425958Y510104D02*
X425958Y513999D01*
X425958Y519700D02*
X437642Y519700D01*
X437642Y526191D02*
X425958Y519700D01*
X425958Y526191D02*
X437642Y526191D01*
X437642Y531892D02*
X425958Y531892D01*
X425958Y535137D01*
X425960Y535250D01*
X425966Y535363D01*
X425976Y535476D01*
X425990Y535589D01*
X426007Y535701D01*
X426029Y535812D01*
X426054Y535922D01*
X426084Y536032D01*
X426117Y536140D01*
X426154Y536247D01*
X426194Y536353D01*
X426239Y536457D01*
X426287Y536560D01*
X426338Y536661D01*
X426393Y536760D01*
X426451Y536857D01*
X426513Y536952D01*
X426578Y537045D01*
X426646Y537135D01*
X426717Y537223D01*
X426792Y537309D01*
X426869Y537392D01*
X426949Y537472D01*
X427032Y537549D01*
X427118Y537624D01*
X427206Y537695D01*
X427296Y537763D01*
X427389Y537828D01*
X427484Y537890D01*
X427581Y537948D01*
X427680Y538003D01*
X427781Y538054D01*
X427884Y538102D01*
X427988Y538147D01*
X428094Y538187D01*
X428201Y538224D01*
X428309Y538257D01*
X428419Y538287D01*
X428529Y538312D01*
X428640Y538334D01*
X428752Y538351D01*
X428865Y538365D01*
X428978Y538375D01*
X429091Y538381D01*
X429204Y538383D01*
X434396Y538383D01*
X434396Y538384D02*
X434509Y538382D01*
X434622Y538376D01*
X434735Y538366D01*
X434848Y538352D01*
X434960Y538335D01*
X435071Y538313D01*
X435181Y538288D01*
X435291Y538258D01*
X435399Y538225D01*
X435506Y538188D01*
X435612Y538148D01*
X435716Y538103D01*
X435819Y538055D01*
X435920Y538004D01*
X436019Y537949D01*
X436116Y537891D01*
X436211Y537829D01*
X436304Y537764D01*
X436394Y537696D01*
X436482Y537625D01*
X436568Y537550D01*
X436651Y537473D01*
X436731Y537393D01*
X436808Y537310D01*
X436883Y537224D01*
X436954Y537136D01*
X437022Y537046D01*
X437087Y536953D01*
X437149Y536858D01*
X437207Y536761D01*
X437262Y536662D01*
X437313Y536561D01*
X437361Y536458D01*
X437406Y536354D01*
X437446Y536248D01*
X437483Y536141D01*
X437516Y536033D01*
X437546Y535923D01*
X437571Y535813D01*
X437593Y535702D01*
X437610Y535590D01*
X437624Y535477D01*
X437634Y535364D01*
X437640Y535251D01*
X437642Y535138D01*
X437642Y535137D02*
X437642Y531892D01*
X412242Y511403D02*
X400558Y507508D01*
X400558Y515297D02*
X412242Y511403D01*
X405751Y520137D02*
X405751Y523383D01*
X405750Y523383D02*
X405752Y523496D01*
X405758Y523609D01*
X405768Y523722D01*
X405782Y523835D01*
X405799Y523947D01*
X405821Y524058D01*
X405846Y524168D01*
X405876Y524278D01*
X405909Y524386D01*
X405946Y524493D01*
X405986Y524599D01*
X406031Y524703D01*
X406079Y524806D01*
X406130Y524907D01*
X406185Y525006D01*
X406243Y525103D01*
X406305Y525198D01*
X406370Y525291D01*
X406438Y525381D01*
X406509Y525469D01*
X406584Y525555D01*
X406661Y525638D01*
X406741Y525718D01*
X406824Y525795D01*
X406910Y525870D01*
X406998Y525941D01*
X407088Y526009D01*
X407181Y526074D01*
X407276Y526136D01*
X407373Y526194D01*
X407472Y526249D01*
X407573Y526300D01*
X407676Y526348D01*
X407780Y526393D01*
X407886Y526433D01*
X407993Y526470D01*
X408101Y526503D01*
X408211Y526533D01*
X408321Y526558D01*
X408432Y526580D01*
X408544Y526597D01*
X408657Y526611D01*
X408770Y526621D01*
X408883Y526627D01*
X408996Y526629D01*
X409109Y526627D01*
X409222Y526621D01*
X409335Y526611D01*
X409448Y526597D01*
X409560Y526580D01*
X409671Y526558D01*
X409781Y526533D01*
X409891Y526503D01*
X409999Y526470D01*
X410106Y526433D01*
X410212Y526393D01*
X410316Y526348D01*
X410419Y526300D01*
X410520Y526249D01*
X410619Y526194D01*
X410716Y526136D01*
X410811Y526074D01*
X410904Y526009D01*
X410994Y525941D01*
X411082Y525870D01*
X411168Y525795D01*
X411251Y525718D01*
X411331Y525638D01*
X411408Y525555D01*
X411483Y525469D01*
X411554Y525381D01*
X411622Y525291D01*
X411687Y525198D01*
X411749Y525103D01*
X411807Y525006D01*
X411862Y524907D01*
X411913Y524806D01*
X411961Y524703D01*
X412006Y524599D01*
X412046Y524493D01*
X412083Y524386D01*
X412116Y524278D01*
X412146Y524168D01*
X412171Y524058D01*
X412193Y523947D01*
X412210Y523835D01*
X412224Y523722D01*
X412234Y523609D01*
X412240Y523496D01*
X412242Y523383D01*
X412242Y520137D01*
X400558Y520137D01*
X400558Y523383D01*
X400560Y523484D01*
X400566Y523584D01*
X400576Y523684D01*
X400589Y523784D01*
X400607Y523883D01*
X400628Y523982D01*
X400653Y524079D01*
X400682Y524176D01*
X400715Y524271D01*
X400751Y524365D01*
X400791Y524457D01*
X400834Y524548D01*
X400881Y524637D01*
X400931Y524724D01*
X400985Y524810D01*
X401042Y524893D01*
X401102Y524973D01*
X401165Y525052D01*
X401232Y525128D01*
X401301Y525201D01*
X401373Y525271D01*
X401447Y525339D01*
X401524Y525404D01*
X401604Y525465D01*
X401686Y525524D01*
X401770Y525579D01*
X401856Y525631D01*
X401944Y525680D01*
X402034Y525725D01*
X402126Y525767D01*
X402219Y525805D01*
X402314Y525839D01*
X402409Y525870D01*
X402506Y525897D01*
X402604Y525920D01*
X402703Y525940D01*
X402803Y525955D01*
X402903Y525967D01*
X403003Y525975D01*
X403104Y525979D01*
X403204Y525979D01*
X403305Y525975D01*
X403405Y525967D01*
X403505Y525955D01*
X403605Y525940D01*
X403704Y525920D01*
X403802Y525897D01*
X403899Y525870D01*
X403994Y525839D01*
X404089Y525805D01*
X404182Y525767D01*
X404274Y525725D01*
X404364Y525680D01*
X404452Y525631D01*
X404538Y525579D01*
X404622Y525524D01*
X404704Y525465D01*
X404784Y525404D01*
X404861Y525339D01*
X404935Y525271D01*
X405007Y525201D01*
X405076Y525128D01*
X405143Y525052D01*
X405206Y524973D01*
X405266Y524893D01*
X405323Y524810D01*
X405377Y524724D01*
X405427Y524637D01*
X405474Y524548D01*
X405517Y524457D01*
X405557Y524365D01*
X405593Y524271D01*
X405626Y524176D01*
X405655Y524079D01*
X405680Y523982D01*
X405701Y523883D01*
X405719Y523784D01*
X405732Y523684D01*
X405742Y523584D01*
X405748Y523484D01*
X405750Y523383D01*
X412242Y530368D02*
X400558Y534263D01*
X412242Y538157D01*
X409321Y537184D02*
X409321Y531342D01*
X412242Y544931D02*
X400558Y544931D01*
X400558Y548176D02*
X400558Y541685D01*
X386842Y507508D02*
X375158Y507508D01*
X375158Y510754D01*
X375160Y510867D01*
X375166Y510980D01*
X375176Y511093D01*
X375190Y511206D01*
X375207Y511318D01*
X375229Y511429D01*
X375254Y511539D01*
X375284Y511649D01*
X375317Y511757D01*
X375354Y511864D01*
X375394Y511970D01*
X375439Y512074D01*
X375487Y512177D01*
X375538Y512278D01*
X375593Y512377D01*
X375651Y512474D01*
X375713Y512569D01*
X375778Y512662D01*
X375846Y512752D01*
X375917Y512840D01*
X375992Y512926D01*
X376069Y513009D01*
X376149Y513089D01*
X376232Y513166D01*
X376318Y513241D01*
X376406Y513312D01*
X376496Y513380D01*
X376589Y513445D01*
X376684Y513507D01*
X376781Y513565D01*
X376880Y513620D01*
X376981Y513671D01*
X377084Y513719D01*
X377188Y513764D01*
X377294Y513804D01*
X377401Y513841D01*
X377509Y513874D01*
X377619Y513904D01*
X377729Y513929D01*
X377840Y513951D01*
X377952Y513968D01*
X378065Y513982D01*
X378178Y513992D01*
X378291Y513998D01*
X378404Y514000D01*
X378517Y513998D01*
X378630Y513992D01*
X378743Y513982D01*
X378856Y513968D01*
X378968Y513951D01*
X379079Y513929D01*
X379189Y513904D01*
X379299Y513874D01*
X379407Y513841D01*
X379514Y513804D01*
X379620Y513764D01*
X379724Y513719D01*
X379827Y513671D01*
X379928Y513620D01*
X380027Y513565D01*
X380124Y513507D01*
X380219Y513445D01*
X380312Y513380D01*
X380402Y513312D01*
X380490Y513241D01*
X380576Y513166D01*
X380659Y513089D01*
X380739Y513009D01*
X380816Y512926D01*
X380891Y512840D01*
X380962Y512752D01*
X381030Y512662D01*
X381095Y512569D01*
X381157Y512474D01*
X381215Y512377D01*
X381270Y512278D01*
X381321Y512177D01*
X381369Y512074D01*
X381414Y511970D01*
X381454Y511864D01*
X381491Y511757D01*
X381524Y511649D01*
X381554Y511539D01*
X381579Y511429D01*
X381601Y511318D01*
X381618Y511206D01*
X381632Y511093D01*
X381642Y510980D01*
X381648Y510867D01*
X381650Y510754D01*
X381649Y510754D02*
X381649Y507508D01*
X381649Y511403D02*
X386842Y513999D01*
X386842Y522378D02*
X386840Y522477D01*
X386834Y522577D01*
X386825Y522676D01*
X386812Y522774D01*
X386795Y522872D01*
X386774Y522970D01*
X386749Y523066D01*
X386721Y523161D01*
X386689Y523255D01*
X386654Y523348D01*
X386615Y523440D01*
X386572Y523530D01*
X386527Y523618D01*
X386477Y523705D01*
X386425Y523789D01*
X386369Y523872D01*
X386311Y523952D01*
X386249Y524030D01*
X386184Y524105D01*
X386116Y524178D01*
X386046Y524248D01*
X385973Y524316D01*
X385898Y524381D01*
X385820Y524443D01*
X385740Y524501D01*
X385657Y524557D01*
X385573Y524609D01*
X385486Y524659D01*
X385398Y524704D01*
X385308Y524747D01*
X385216Y524786D01*
X385123Y524821D01*
X385029Y524853D01*
X384934Y524881D01*
X384838Y524906D01*
X384740Y524927D01*
X384642Y524944D01*
X384544Y524957D01*
X384445Y524966D01*
X384345Y524972D01*
X384246Y524974D01*
X386842Y522378D02*
X386840Y522234D01*
X386834Y522089D01*
X386825Y521945D01*
X386812Y521802D01*
X386795Y521658D01*
X386774Y521515D01*
X386749Y521373D01*
X386721Y521232D01*
X386689Y521091D01*
X386653Y520951D01*
X386614Y520812D01*
X386571Y520674D01*
X386524Y520538D01*
X386474Y520402D01*
X386420Y520268D01*
X386363Y520136D01*
X386302Y520005D01*
X386238Y519876D01*
X386170Y519748D01*
X386100Y519622D01*
X386025Y519498D01*
X385948Y519377D01*
X385867Y519257D01*
X385784Y519139D01*
X385697Y519024D01*
X385607Y518911D01*
X385514Y518800D01*
X385419Y518692D01*
X385320Y518586D01*
X385219Y518483D01*
X377754Y518808D02*
X377655Y518810D01*
X377555Y518816D01*
X377456Y518825D01*
X377358Y518838D01*
X377260Y518855D01*
X377162Y518876D01*
X377066Y518901D01*
X376971Y518929D01*
X376877Y518961D01*
X376784Y518996D01*
X376692Y519035D01*
X376602Y519078D01*
X376514Y519123D01*
X376427Y519173D01*
X376343Y519225D01*
X376260Y519281D01*
X376180Y519339D01*
X376102Y519401D01*
X376027Y519466D01*
X375954Y519534D01*
X375884Y519604D01*
X375816Y519677D01*
X375751Y519752D01*
X375689Y519830D01*
X375631Y519910D01*
X375575Y519993D01*
X375523Y520077D01*
X375473Y520164D01*
X375428Y520252D01*
X375385Y520342D01*
X375346Y520434D01*
X375311Y520527D01*
X375279Y520621D01*
X375251Y520716D01*
X375226Y520812D01*
X375205Y520910D01*
X375188Y521008D01*
X375175Y521106D01*
X375166Y521205D01*
X375160Y521305D01*
X375158Y521404D01*
X375160Y521540D01*
X375166Y521676D01*
X375175Y521812D01*
X375188Y521948D01*
X375206Y522083D01*
X375226Y522217D01*
X375251Y522351D01*
X375279Y522485D01*
X375312Y522617D01*
X375347Y522748D01*
X375387Y522879D01*
X375430Y523008D01*
X375476Y523136D01*
X375527Y523262D01*
X375580Y523388D01*
X375638Y523511D01*
X375698Y523633D01*
X375762Y523753D01*
X375830Y523872D01*
X375900Y523988D01*
X375974Y524102D01*
X376051Y524215D01*
X376132Y524325D01*
X380026Y520106D02*
X379973Y520020D01*
X379916Y519936D01*
X379857Y519854D01*
X379794Y519774D01*
X379728Y519697D01*
X379660Y519622D01*
X379588Y519550D01*
X379514Y519481D01*
X379437Y519415D01*
X379358Y519352D01*
X379276Y519292D01*
X379192Y519235D01*
X379106Y519181D01*
X379018Y519131D01*
X378928Y519084D01*
X378837Y519040D01*
X378743Y519001D01*
X378649Y518964D01*
X378553Y518932D01*
X378455Y518903D01*
X378357Y518878D01*
X378258Y518857D01*
X378158Y518839D01*
X378058Y518826D01*
X377957Y518816D01*
X377855Y518810D01*
X377754Y518808D01*
X381974Y523676D02*
X382027Y523762D01*
X382084Y523846D01*
X382143Y523928D01*
X382206Y524008D01*
X382272Y524085D01*
X382340Y524160D01*
X382412Y524232D01*
X382486Y524301D01*
X382563Y524367D01*
X382642Y524430D01*
X382724Y524490D01*
X382808Y524547D01*
X382894Y524601D01*
X382982Y524651D01*
X383072Y524698D01*
X383163Y524742D01*
X383257Y524781D01*
X383351Y524818D01*
X383447Y524850D01*
X383545Y524879D01*
X383643Y524904D01*
X383742Y524925D01*
X383842Y524943D01*
X383942Y524956D01*
X384043Y524966D01*
X384145Y524972D01*
X384246Y524974D01*
X381974Y523676D02*
X380026Y520106D01*
X375158Y532016D02*
X386842Y532016D01*
X375158Y528770D02*
X375158Y535261D01*
X361442Y510754D02*
X361442Y507508D01*
X361442Y510754D02*
X361440Y510867D01*
X361434Y510980D01*
X361424Y511093D01*
X361410Y511206D01*
X361393Y511318D01*
X361371Y511429D01*
X361346Y511539D01*
X361316Y511649D01*
X361283Y511757D01*
X361246Y511864D01*
X361206Y511970D01*
X361161Y512074D01*
X361113Y512177D01*
X361062Y512278D01*
X361007Y512377D01*
X360949Y512474D01*
X360887Y512569D01*
X360822Y512662D01*
X360754Y512752D01*
X360683Y512840D01*
X360608Y512926D01*
X360531Y513009D01*
X360451Y513089D01*
X360368Y513166D01*
X360282Y513241D01*
X360194Y513312D01*
X360104Y513380D01*
X360011Y513445D01*
X359916Y513507D01*
X359819Y513565D01*
X359720Y513620D01*
X359619Y513671D01*
X359516Y513719D01*
X359412Y513764D01*
X359306Y513804D01*
X359199Y513841D01*
X359091Y513874D01*
X358981Y513904D01*
X358871Y513929D01*
X358760Y513951D01*
X358648Y513968D01*
X358535Y513982D01*
X358422Y513992D01*
X358309Y513998D01*
X358196Y514000D01*
X358083Y513998D01*
X357970Y513992D01*
X357857Y513982D01*
X357744Y513968D01*
X357632Y513951D01*
X357521Y513929D01*
X357411Y513904D01*
X357301Y513874D01*
X357193Y513841D01*
X357086Y513804D01*
X356980Y513764D01*
X356876Y513719D01*
X356773Y513671D01*
X356672Y513620D01*
X356573Y513565D01*
X356476Y513507D01*
X356381Y513445D01*
X356288Y513380D01*
X356198Y513312D01*
X356110Y513241D01*
X356024Y513166D01*
X355941Y513089D01*
X355861Y513009D01*
X355784Y512926D01*
X355709Y512840D01*
X355638Y512752D01*
X355570Y512662D01*
X355505Y512569D01*
X355443Y512474D01*
X355385Y512377D01*
X355330Y512278D01*
X355279Y512177D01*
X355231Y512074D01*
X355186Y511970D01*
X355146Y511864D01*
X355109Y511757D01*
X355076Y511649D01*
X355046Y511539D01*
X355021Y511429D01*
X354999Y511318D01*
X354982Y511206D01*
X354968Y511093D01*
X354958Y510980D01*
X354952Y510867D01*
X354950Y510754D01*
X349758Y511403D02*
X349758Y507508D01*
X349758Y511403D02*
X349760Y511504D01*
X349766Y511604D01*
X349776Y511704D01*
X349789Y511804D01*
X349807Y511903D01*
X349828Y512002D01*
X349853Y512099D01*
X349882Y512196D01*
X349915Y512291D01*
X349951Y512385D01*
X349991Y512477D01*
X350034Y512568D01*
X350081Y512657D01*
X350131Y512744D01*
X350185Y512830D01*
X350242Y512913D01*
X350302Y512993D01*
X350365Y513072D01*
X350432Y513148D01*
X350501Y513221D01*
X350573Y513291D01*
X350647Y513359D01*
X350724Y513424D01*
X350804Y513485D01*
X350886Y513544D01*
X350970Y513599D01*
X351056Y513651D01*
X351144Y513700D01*
X351234Y513745D01*
X351326Y513787D01*
X351419Y513825D01*
X351514Y513859D01*
X351609Y513890D01*
X351706Y513917D01*
X351804Y513940D01*
X351903Y513960D01*
X352003Y513975D01*
X352103Y513987D01*
X352203Y513995D01*
X352304Y513999D01*
X352404Y513999D01*
X352505Y513995D01*
X352605Y513987D01*
X352705Y513975D01*
X352805Y513960D01*
X352904Y513940D01*
X353002Y513917D01*
X353099Y513890D01*
X353194Y513859D01*
X353289Y513825D01*
X353382Y513787D01*
X353474Y513745D01*
X353564Y513700D01*
X353652Y513651D01*
X353738Y513599D01*
X353822Y513544D01*
X353904Y513485D01*
X353984Y513424D01*
X354061Y513359D01*
X354135Y513291D01*
X354207Y513221D01*
X354276Y513148D01*
X354343Y513072D01*
X354406Y512993D01*
X354466Y512913D01*
X354523Y512830D01*
X354577Y512744D01*
X354627Y512657D01*
X354674Y512568D01*
X354717Y512477D01*
X354757Y512385D01*
X354793Y512291D01*
X354826Y512196D01*
X354855Y512099D01*
X354880Y512002D01*
X354901Y511903D01*
X354919Y511804D01*
X354932Y511704D01*
X354942Y511604D01*
X354948Y511504D01*
X354950Y511403D01*
X354951Y511403D02*
X354951Y508806D01*
X349758Y518289D02*
X361442Y522184D01*
X349758Y526078D01*
X361442Y530368D02*
X361442Y533614D01*
X361440Y533727D01*
X361434Y533840D01*
X361424Y533953D01*
X361410Y534066D01*
X361393Y534178D01*
X361371Y534289D01*
X361346Y534399D01*
X361316Y534509D01*
X361283Y534617D01*
X361246Y534724D01*
X361206Y534830D01*
X361161Y534934D01*
X361113Y535037D01*
X361062Y535138D01*
X361007Y535237D01*
X360949Y535334D01*
X360887Y535429D01*
X360822Y535522D01*
X360754Y535612D01*
X360683Y535700D01*
X360608Y535786D01*
X360531Y535869D01*
X360451Y535949D01*
X360368Y536026D01*
X360282Y536101D01*
X360194Y536172D01*
X360104Y536240D01*
X360011Y536305D01*
X359916Y536367D01*
X359819Y536425D01*
X359720Y536480D01*
X359619Y536531D01*
X359516Y536579D01*
X359412Y536624D01*
X359306Y536664D01*
X359199Y536701D01*
X359091Y536734D01*
X358981Y536764D01*
X358871Y536789D01*
X358760Y536811D01*
X358648Y536828D01*
X358535Y536842D01*
X358422Y536852D01*
X358309Y536858D01*
X358196Y536860D01*
X358083Y536858D01*
X357970Y536852D01*
X357857Y536842D01*
X357744Y536828D01*
X357632Y536811D01*
X357521Y536789D01*
X357411Y536764D01*
X357301Y536734D01*
X357193Y536701D01*
X357086Y536664D01*
X356980Y536624D01*
X356876Y536579D01*
X356773Y536531D01*
X356672Y536480D01*
X356573Y536425D01*
X356476Y536367D01*
X356381Y536305D01*
X356288Y536240D01*
X356198Y536172D01*
X356110Y536101D01*
X356024Y536026D01*
X355941Y535949D01*
X355861Y535869D01*
X355784Y535786D01*
X355709Y535700D01*
X355638Y535612D01*
X355570Y535522D01*
X355505Y535429D01*
X355443Y535334D01*
X355385Y535237D01*
X355330Y535138D01*
X355279Y535037D01*
X355231Y534934D01*
X355186Y534830D01*
X355146Y534724D01*
X355109Y534617D01*
X355076Y534509D01*
X355046Y534399D01*
X355021Y534289D01*
X354999Y534178D01*
X354982Y534066D01*
X354968Y533953D01*
X354958Y533840D01*
X354952Y533727D01*
X354950Y533614D01*
X349758Y534263D02*
X349758Y530368D01*
X349758Y534263D02*
X349760Y534364D01*
X349766Y534464D01*
X349776Y534564D01*
X349789Y534664D01*
X349807Y534763D01*
X349828Y534862D01*
X349853Y534959D01*
X349882Y535056D01*
X349915Y535151D01*
X349951Y535245D01*
X349991Y535337D01*
X350034Y535428D01*
X350081Y535517D01*
X350131Y535604D01*
X350185Y535690D01*
X350242Y535773D01*
X350302Y535853D01*
X350365Y535932D01*
X350432Y536008D01*
X350501Y536081D01*
X350573Y536151D01*
X350647Y536219D01*
X350724Y536284D01*
X350804Y536345D01*
X350886Y536404D01*
X350970Y536459D01*
X351056Y536511D01*
X351144Y536560D01*
X351234Y536605D01*
X351326Y536647D01*
X351419Y536685D01*
X351514Y536719D01*
X351609Y536750D01*
X351706Y536777D01*
X351804Y536800D01*
X351903Y536820D01*
X352003Y536835D01*
X352103Y536847D01*
X352203Y536855D01*
X352304Y536859D01*
X352404Y536859D01*
X352505Y536855D01*
X352605Y536847D01*
X352705Y536835D01*
X352805Y536820D01*
X352904Y536800D01*
X353002Y536777D01*
X353099Y536750D01*
X353194Y536719D01*
X353289Y536685D01*
X353382Y536647D01*
X353474Y536605D01*
X353564Y536560D01*
X353652Y536511D01*
X353738Y536459D01*
X353822Y536404D01*
X353904Y536345D01*
X353984Y536284D01*
X354061Y536219D01*
X354135Y536151D01*
X354207Y536081D01*
X354276Y536008D01*
X354343Y535932D01*
X354406Y535853D01*
X354466Y535773D01*
X354523Y535690D01*
X354577Y535604D01*
X354627Y535517D01*
X354674Y535428D01*
X354717Y535337D01*
X354757Y535245D01*
X354793Y535151D01*
X354826Y535056D01*
X354855Y534959D01*
X354880Y534862D01*
X354901Y534763D01*
X354919Y534664D01*
X354932Y534564D01*
X354942Y534464D01*
X354948Y534364D01*
X354950Y534263D01*
X354951Y534263D02*
X354951Y531666D01*
D10*
X342900Y304800D02*
X622300Y304800D01*
X647700Y294640D02*
X647700Y279400D01*
X342900Y457200D02*
X342900Y482600D01*
X342900Y457200D02*
X647700Y457200D01*
X647700Y482600D01*
X342900Y304800D02*
X342900Y279400D01*
X622300Y304800D02*
X647700Y304800D01*
X647700Y294640D01*
D12*
X344600Y97500D02*
X274600Y97500D01*
X344600Y97500D02*
X344600Y35500D01*
X344600Y27500D01*
X274600Y27500D01*
X274600Y35500D01*
X274600Y97500D01*
X274600Y35500D02*
X344600Y35500D01*
D10*
X281644Y90607D02*
X281644Y94361D01*
X281643Y90607D02*
X281641Y90542D01*
X281635Y90478D01*
X281625Y90414D01*
X281612Y90350D01*
X281594Y90288D01*
X281573Y90227D01*
X281549Y90167D01*
X281520Y90109D01*
X281488Y90052D01*
X281453Y89998D01*
X281415Y89946D01*
X281373Y89896D01*
X281329Y89849D01*
X281282Y89805D01*
X281232Y89763D01*
X281180Y89725D01*
X281126Y89690D01*
X281069Y89658D01*
X281011Y89629D01*
X280951Y89605D01*
X280890Y89584D01*
X280828Y89566D01*
X280764Y89553D01*
X280700Y89543D01*
X280636Y89537D01*
X280571Y89535D01*
X280035Y89535D01*
X284592Y93289D02*
X285932Y94361D01*
X285932Y89535D01*
X284592Y89535D02*
X287273Y89535D01*
D12*
X363500Y97500D02*
X433500Y97500D01*
X433500Y35500D01*
X433500Y27500D01*
X363500Y27500D01*
X363500Y35500D01*
X363500Y97500D01*
X363500Y35500D02*
X433500Y35500D01*
D10*
X370544Y90607D02*
X370544Y94361D01*
X370543Y90607D02*
X370541Y90542D01*
X370535Y90478D01*
X370525Y90414D01*
X370512Y90350D01*
X370494Y90288D01*
X370473Y90227D01*
X370449Y90167D01*
X370420Y90109D01*
X370388Y90052D01*
X370353Y89998D01*
X370315Y89946D01*
X370273Y89896D01*
X370229Y89849D01*
X370182Y89805D01*
X370132Y89763D01*
X370080Y89725D01*
X370026Y89690D01*
X369969Y89658D01*
X369911Y89629D01*
X369851Y89605D01*
X369790Y89584D01*
X369728Y89566D01*
X369664Y89553D01*
X369600Y89543D01*
X369536Y89537D01*
X369471Y89535D01*
X368935Y89535D01*
X374966Y94361D02*
X375034Y94359D01*
X375101Y94353D01*
X375168Y94344D01*
X375235Y94331D01*
X375300Y94314D01*
X375365Y94293D01*
X375428Y94269D01*
X375490Y94241D01*
X375550Y94210D01*
X375608Y94176D01*
X375664Y94138D01*
X375719Y94098D01*
X375770Y94054D01*
X375819Y94007D01*
X375866Y93958D01*
X375910Y93907D01*
X375950Y93852D01*
X375988Y93796D01*
X376022Y93738D01*
X376053Y93678D01*
X376081Y93616D01*
X376105Y93553D01*
X376126Y93488D01*
X376143Y93423D01*
X376156Y93356D01*
X376165Y93289D01*
X376171Y93222D01*
X376173Y93154D01*
X374966Y94361D02*
X374888Y94359D01*
X374810Y94353D01*
X374733Y94343D01*
X374656Y94330D01*
X374580Y94312D01*
X374505Y94291D01*
X374431Y94266D01*
X374359Y94237D01*
X374288Y94205D01*
X374219Y94169D01*
X374151Y94130D01*
X374086Y94087D01*
X374023Y94041D01*
X373962Y93992D01*
X373904Y93940D01*
X373849Y93885D01*
X373796Y93828D01*
X373747Y93768D01*
X373700Y93705D01*
X373657Y93641D01*
X373617Y93574D01*
X373580Y93505D01*
X373547Y93434D01*
X373517Y93362D01*
X373491Y93289D01*
X375771Y92216D02*
X375820Y92265D01*
X375867Y92317D01*
X375910Y92372D01*
X375951Y92429D01*
X375989Y92488D01*
X376023Y92549D01*
X376054Y92612D01*
X376082Y92676D01*
X376106Y92742D01*
X376126Y92808D01*
X376143Y92876D01*
X376156Y92945D01*
X376165Y93014D01*
X376171Y93084D01*
X376173Y93154D01*
X375771Y92216D02*
X373492Y89535D01*
X376173Y89535D01*
D12*
X452400Y97500D02*
X522400Y97500D01*
X522400Y35500D01*
X522400Y27500D01*
X452400Y27500D01*
X452400Y35500D01*
X452400Y97500D01*
X452400Y35500D02*
X522400Y35500D01*
D10*
X459444Y90607D02*
X459444Y94361D01*
X459443Y90607D02*
X459441Y90542D01*
X459435Y90478D01*
X459425Y90414D01*
X459412Y90350D01*
X459394Y90288D01*
X459373Y90227D01*
X459349Y90167D01*
X459320Y90109D01*
X459288Y90052D01*
X459253Y89998D01*
X459215Y89946D01*
X459173Y89896D01*
X459129Y89849D01*
X459082Y89805D01*
X459032Y89763D01*
X458980Y89725D01*
X458926Y89690D01*
X458869Y89658D01*
X458811Y89629D01*
X458751Y89605D01*
X458690Y89584D01*
X458628Y89566D01*
X458564Y89553D01*
X458500Y89543D01*
X458436Y89537D01*
X458371Y89535D01*
X457835Y89535D01*
X462392Y89535D02*
X463732Y89535D01*
X463803Y89537D01*
X463875Y89543D01*
X463945Y89552D01*
X464015Y89565D01*
X464085Y89582D01*
X464153Y89603D01*
X464220Y89627D01*
X464286Y89655D01*
X464350Y89686D01*
X464413Y89721D01*
X464473Y89759D01*
X464532Y89800D01*
X464588Y89844D01*
X464642Y89891D01*
X464693Y89940D01*
X464741Y89993D01*
X464787Y90048D01*
X464829Y90105D01*
X464869Y90165D01*
X464905Y90226D01*
X464938Y90290D01*
X464967Y90355D01*
X464993Y90421D01*
X465016Y90489D01*
X465035Y90558D01*
X465050Y90628D01*
X465061Y90698D01*
X465069Y90769D01*
X465073Y90840D01*
X465073Y90912D01*
X465069Y90983D01*
X465061Y91054D01*
X465050Y91124D01*
X465035Y91194D01*
X465016Y91263D01*
X464993Y91331D01*
X464967Y91397D01*
X464938Y91462D01*
X464905Y91526D01*
X464869Y91587D01*
X464829Y91647D01*
X464787Y91704D01*
X464741Y91759D01*
X464693Y91812D01*
X464642Y91861D01*
X464588Y91908D01*
X464532Y91952D01*
X464473Y91993D01*
X464413Y92031D01*
X464350Y92066D01*
X464286Y92097D01*
X464220Y92125D01*
X464153Y92149D01*
X464085Y92170D01*
X464015Y92187D01*
X463945Y92200D01*
X463875Y92209D01*
X463803Y92215D01*
X463732Y92217D01*
X464000Y94361D02*
X462392Y94361D01*
X464000Y94361D02*
X464065Y94359D01*
X464129Y94353D01*
X464193Y94343D01*
X464257Y94330D01*
X464319Y94312D01*
X464380Y94291D01*
X464440Y94267D01*
X464498Y94238D01*
X464555Y94206D01*
X464609Y94171D01*
X464661Y94133D01*
X464711Y94091D01*
X464758Y94047D01*
X464802Y94000D01*
X464844Y93950D01*
X464882Y93898D01*
X464917Y93844D01*
X464949Y93787D01*
X464978Y93729D01*
X465002Y93669D01*
X465023Y93608D01*
X465041Y93546D01*
X465054Y93482D01*
X465064Y93418D01*
X465070Y93354D01*
X465072Y93289D01*
X465070Y93224D01*
X465064Y93160D01*
X465054Y93096D01*
X465041Y93032D01*
X465023Y92970D01*
X465002Y92909D01*
X464978Y92849D01*
X464949Y92791D01*
X464917Y92734D01*
X464882Y92680D01*
X464844Y92628D01*
X464802Y92578D01*
X464758Y92531D01*
X464711Y92487D01*
X464661Y92445D01*
X464609Y92407D01*
X464555Y92372D01*
X464498Y92340D01*
X464440Y92311D01*
X464380Y92287D01*
X464319Y92266D01*
X464257Y92248D01*
X464193Y92235D01*
X464129Y92225D01*
X464065Y92219D01*
X464000Y92217D01*
X464000Y92216D02*
X462928Y92216D01*
D12*
X541300Y97500D02*
X611300Y97500D01*
X611300Y35500D01*
X611300Y27500D01*
X541300Y27500D01*
X541300Y35500D01*
X541300Y97500D01*
X541300Y35500D02*
X611300Y35500D01*
D10*
X548344Y90607D02*
X548344Y94361D01*
X548343Y90607D02*
X548341Y90542D01*
X548335Y90478D01*
X548325Y90414D01*
X548312Y90350D01*
X548294Y90288D01*
X548273Y90227D01*
X548249Y90167D01*
X548220Y90109D01*
X548188Y90052D01*
X548153Y89998D01*
X548115Y89946D01*
X548073Y89896D01*
X548029Y89849D01*
X547982Y89805D01*
X547932Y89763D01*
X547880Y89725D01*
X547826Y89690D01*
X547769Y89658D01*
X547711Y89629D01*
X547651Y89605D01*
X547590Y89584D01*
X547528Y89566D01*
X547464Y89553D01*
X547400Y89543D01*
X547336Y89537D01*
X547271Y89535D01*
X546735Y89535D01*
X551292Y90607D02*
X552364Y94361D01*
X551292Y90607D02*
X553973Y90607D01*
X553168Y89535D02*
X553168Y91680D01*
D12*
X630200Y97500D02*
X700200Y97500D01*
X700200Y35500D01*
X700200Y27500D01*
X630200Y27500D01*
X630200Y35500D01*
X630200Y97500D01*
X630200Y35500D02*
X700200Y35500D01*
D10*
X637244Y90607D02*
X637244Y94361D01*
X637243Y90607D02*
X637241Y90542D01*
X637235Y90478D01*
X637225Y90414D01*
X637212Y90350D01*
X637194Y90288D01*
X637173Y90227D01*
X637149Y90167D01*
X637120Y90109D01*
X637088Y90052D01*
X637053Y89998D01*
X637015Y89946D01*
X636973Y89896D01*
X636929Y89849D01*
X636882Y89805D01*
X636832Y89763D01*
X636780Y89725D01*
X636726Y89690D01*
X636669Y89658D01*
X636611Y89629D01*
X636551Y89605D01*
X636490Y89584D01*
X636428Y89566D01*
X636364Y89553D01*
X636300Y89543D01*
X636236Y89537D01*
X636171Y89535D01*
X635635Y89535D01*
X640192Y89535D02*
X641800Y89535D01*
X641865Y89537D01*
X641929Y89543D01*
X641993Y89553D01*
X642057Y89566D01*
X642119Y89584D01*
X642180Y89605D01*
X642240Y89629D01*
X642298Y89658D01*
X642355Y89690D01*
X642409Y89725D01*
X642461Y89763D01*
X642511Y89805D01*
X642558Y89849D01*
X642602Y89896D01*
X642644Y89946D01*
X642682Y89998D01*
X642717Y90052D01*
X642749Y90109D01*
X642778Y90167D01*
X642802Y90227D01*
X642823Y90288D01*
X642841Y90350D01*
X642854Y90414D01*
X642864Y90478D01*
X642870Y90542D01*
X642872Y90607D01*
X642873Y90607D02*
X642873Y91144D01*
X642872Y91144D02*
X642870Y91209D01*
X642864Y91273D01*
X642854Y91337D01*
X642841Y91401D01*
X642823Y91463D01*
X642802Y91524D01*
X642778Y91584D01*
X642749Y91642D01*
X642717Y91699D01*
X642682Y91753D01*
X642644Y91805D01*
X642602Y91855D01*
X642558Y91902D01*
X642511Y91946D01*
X642461Y91988D01*
X642409Y92026D01*
X642355Y92061D01*
X642298Y92093D01*
X642240Y92122D01*
X642180Y92146D01*
X642119Y92167D01*
X642057Y92185D01*
X641993Y92198D01*
X641929Y92208D01*
X641865Y92214D01*
X641800Y92216D01*
X640192Y92216D01*
X640192Y94361D01*
X642873Y94361D01*
M02*
