G04 EAGLE Gerber RS-274X export*
G75*
%MOMM*%
%FSLAX34Y34*%
%LPD*%
%INSilkscreen Bottom*%
%IPPOS*%
%AMOC8*
5,1,8,0,0,1.08239X$1,22.5*%
G01*
%ADD10C,0.127000*%
%ADD11C,0.101600*%
%ADD12C,0.152400*%
%ADD13R,0.650000X1.400000*%
%ADD14R,1.752600X0.736600*%

G36*
X48221Y720225D02*
X48221Y720225D01*
X48250Y720223D01*
X48907Y720310D01*
X48943Y720323D01*
X49003Y720335D01*
X49616Y720589D01*
X49646Y720611D01*
X49701Y720639D01*
X50228Y721042D01*
X50252Y721072D01*
X50298Y721112D01*
X50701Y721639D01*
X50717Y721673D01*
X50751Y721725D01*
X51005Y722337D01*
X51011Y722375D01*
X51029Y722427D01*
X51029Y722429D01*
X51030Y722433D01*
X51117Y723090D01*
X51115Y723112D01*
X51120Y723140D01*
X51120Y730760D01*
X51115Y730781D01*
X51117Y730810D01*
X51030Y731467D01*
X51017Y731503D01*
X51005Y731563D01*
X50751Y732176D01*
X50729Y732206D01*
X50701Y732261D01*
X50298Y732788D01*
X50268Y732812D01*
X50228Y732858D01*
X49701Y733261D01*
X49667Y733277D01*
X49616Y733311D01*
X49003Y733565D01*
X48966Y733571D01*
X48907Y733590D01*
X48250Y733677D01*
X48228Y733675D01*
X48200Y733680D01*
X43139Y733680D01*
X41956Y733797D01*
X40836Y734136D01*
X39804Y734688D01*
X38900Y735430D01*
X38158Y736334D01*
X37606Y737366D01*
X37267Y738486D01*
X37150Y739669D01*
X37150Y744730D01*
X37145Y744751D01*
X37147Y744780D01*
X37060Y745437D01*
X37047Y745473D01*
X37035Y745533D01*
X36781Y746146D01*
X36759Y746176D01*
X36731Y746231D01*
X36328Y746758D01*
X36298Y746782D01*
X36258Y746828D01*
X35731Y747231D01*
X35697Y747247D01*
X35646Y747281D01*
X35033Y747535D01*
X34996Y747541D01*
X34937Y747560D01*
X34280Y747647D01*
X34258Y747645D01*
X34230Y747650D01*
X26610Y747650D01*
X26589Y747645D01*
X26560Y747647D01*
X25903Y747560D01*
X25867Y747547D01*
X25807Y747535D01*
X25195Y747281D01*
X25164Y747259D01*
X25109Y747231D01*
X24582Y746828D01*
X24558Y746798D01*
X24512Y746758D01*
X24109Y746231D01*
X24093Y746197D01*
X24059Y746146D01*
X23805Y745533D01*
X23799Y745496D01*
X23780Y745437D01*
X23693Y744780D01*
X23695Y744758D01*
X23690Y744730D01*
X23690Y737110D01*
X23695Y737089D01*
X23693Y737060D01*
X23780Y736403D01*
X23793Y736367D01*
X23805Y736307D01*
X24059Y735695D01*
X24081Y735664D01*
X24109Y735609D01*
X24512Y735082D01*
X24542Y735058D01*
X24582Y735012D01*
X25109Y734609D01*
X25143Y734593D01*
X25195Y734559D01*
X25807Y734305D01*
X25845Y734299D01*
X25903Y734280D01*
X26560Y734193D01*
X26582Y734195D01*
X26610Y734190D01*
X31671Y734190D01*
X32854Y734073D01*
X33974Y733734D01*
X35006Y733182D01*
X35910Y732440D01*
X36652Y731536D01*
X37204Y730504D01*
X37543Y729384D01*
X37660Y728201D01*
X37660Y723140D01*
X37665Y723119D01*
X37663Y723090D01*
X37750Y722433D01*
X37757Y722413D01*
X37757Y722401D01*
X37765Y722386D01*
X37775Y722337D01*
X38029Y721725D01*
X38051Y721694D01*
X38079Y721639D01*
X38482Y721112D01*
X38487Y721109D01*
X38487Y721108D01*
X38494Y721103D01*
X38512Y721088D01*
X38552Y721042D01*
X39079Y720639D01*
X39113Y720623D01*
X39165Y720589D01*
X39777Y720335D01*
X39815Y720329D01*
X39873Y720310D01*
X40530Y720223D01*
X40552Y720225D01*
X40580Y720220D01*
X48200Y720220D01*
X48221Y720225D01*
G37*
G36*
X20281Y720225D02*
X20281Y720225D01*
X20310Y720223D01*
X20967Y720310D01*
X21003Y720323D01*
X21063Y720335D01*
X21676Y720589D01*
X21706Y720611D01*
X21761Y720639D01*
X22288Y721042D01*
X22312Y721072D01*
X22358Y721112D01*
X22761Y721639D01*
X22777Y721673D01*
X22811Y721725D01*
X23065Y722337D01*
X23071Y722375D01*
X23089Y722428D01*
X23089Y722429D01*
X23090Y722433D01*
X23177Y723090D01*
X23175Y723112D01*
X23180Y723140D01*
X23180Y730760D01*
X23175Y730781D01*
X23177Y730810D01*
X23090Y731467D01*
X23077Y731503D01*
X23065Y731563D01*
X22811Y732176D01*
X22789Y732206D01*
X22761Y732261D01*
X22358Y732788D01*
X22328Y732812D01*
X22288Y732858D01*
X21761Y733261D01*
X21727Y733277D01*
X21676Y733311D01*
X21063Y733565D01*
X21026Y733571D01*
X20967Y733590D01*
X20310Y733677D01*
X20288Y733675D01*
X20260Y733680D01*
X12640Y733680D01*
X12619Y733675D01*
X12590Y733677D01*
X11933Y733590D01*
X11897Y733577D01*
X11837Y733565D01*
X11225Y733311D01*
X11194Y733289D01*
X11139Y733261D01*
X10612Y732858D01*
X10588Y732828D01*
X10542Y732788D01*
X10139Y732261D01*
X10123Y732227D01*
X10089Y732176D01*
X9835Y731563D01*
X9829Y731526D01*
X9810Y731467D01*
X9723Y730810D01*
X9725Y730788D01*
X9720Y730760D01*
X9720Y723140D01*
X9725Y723119D01*
X9723Y723090D01*
X9810Y722433D01*
X9817Y722413D01*
X9817Y722401D01*
X9825Y722386D01*
X9835Y722337D01*
X10089Y721725D01*
X10111Y721694D01*
X10139Y721639D01*
X10542Y721112D01*
X10547Y721109D01*
X10547Y721108D01*
X10554Y721103D01*
X10572Y721088D01*
X10612Y721042D01*
X11139Y720639D01*
X11173Y720623D01*
X11225Y720589D01*
X11837Y720335D01*
X11875Y720329D01*
X11933Y720310D01*
X12590Y720223D01*
X12612Y720225D01*
X12640Y720220D01*
X20260Y720220D01*
X20281Y720225D01*
G37*
D10*
X312420Y482600D02*
X342900Y482600D01*
X647700Y482600D01*
X678180Y467360D01*
X678180Y294640D02*
X647700Y279400D01*
X678180Y294640D02*
X678180Y467360D01*
X647700Y279400D02*
X342900Y279400D01*
X312420Y279400D01*
X678180Y294640D02*
X690960Y294640D01*
X700960Y294640D02*
X713740Y294640D01*
X713740Y304942D01*
X713740Y314942D02*
X713740Y325244D01*
X713740Y335244D02*
X713740Y345547D01*
X713740Y355547D02*
X713740Y365849D01*
X713740Y375849D02*
X713740Y386151D01*
X713740Y396151D02*
X713740Y406453D01*
X713740Y416453D02*
X713740Y426756D01*
X713740Y436756D02*
X713740Y447058D01*
X713740Y457058D02*
X713740Y467360D01*
X698393Y467360D01*
X688393Y467360D02*
X673047Y467360D01*
X663047Y467360D02*
X647700Y467360D01*
X647700Y457200D01*
X640000Y457200D01*
X630000Y457200D02*
X622300Y457200D01*
X622300Y446900D01*
X622300Y436900D02*
X622300Y426600D01*
X622300Y416600D02*
X622300Y406300D01*
X622300Y396300D02*
X622300Y386000D01*
X622300Y376000D02*
X622300Y365700D01*
X622300Y355700D02*
X622300Y345400D01*
X622300Y335400D02*
X622300Y325100D01*
X622300Y315100D02*
X622300Y304800D01*
X630000Y304800D01*
X640000Y304800D02*
X647700Y304800D01*
X647700Y294640D02*
X657940Y294640D01*
X667940Y294640D02*
X678180Y294640D01*
D11*
X670052Y352199D02*
X658368Y352199D01*
X662912Y352199D02*
X670052Y358690D01*
X665508Y354796D02*
X658368Y358690D01*
X658368Y363483D02*
X658368Y368675D01*
X658368Y363483D02*
X670052Y363483D01*
X670052Y368675D01*
X664859Y367377D02*
X664859Y363483D01*
X658368Y373389D02*
X658368Y378581D01*
X658368Y373389D02*
X670052Y373389D01*
X670052Y378581D01*
X664859Y377283D02*
X664859Y373389D01*
X670052Y383441D02*
X658368Y383441D01*
X670052Y383441D02*
X670052Y386687D01*
X670050Y386800D01*
X670044Y386913D01*
X670034Y387026D01*
X670020Y387139D01*
X670003Y387251D01*
X669981Y387362D01*
X669956Y387472D01*
X669926Y387582D01*
X669893Y387690D01*
X669856Y387797D01*
X669816Y387903D01*
X669771Y388007D01*
X669723Y388110D01*
X669672Y388211D01*
X669617Y388310D01*
X669559Y388407D01*
X669497Y388502D01*
X669432Y388595D01*
X669364Y388685D01*
X669293Y388773D01*
X669218Y388859D01*
X669141Y388942D01*
X669061Y389022D01*
X668978Y389099D01*
X668892Y389174D01*
X668804Y389245D01*
X668714Y389313D01*
X668621Y389378D01*
X668526Y389440D01*
X668429Y389498D01*
X668330Y389553D01*
X668229Y389604D01*
X668126Y389652D01*
X668022Y389697D01*
X667916Y389737D01*
X667809Y389774D01*
X667701Y389807D01*
X667591Y389837D01*
X667481Y389862D01*
X667370Y389884D01*
X667258Y389901D01*
X667145Y389915D01*
X667032Y389925D01*
X666919Y389931D01*
X666806Y389933D01*
X666693Y389931D01*
X666580Y389925D01*
X666467Y389915D01*
X666354Y389901D01*
X666242Y389884D01*
X666131Y389862D01*
X666021Y389837D01*
X665911Y389807D01*
X665803Y389774D01*
X665696Y389737D01*
X665590Y389697D01*
X665486Y389652D01*
X665383Y389604D01*
X665282Y389553D01*
X665183Y389498D01*
X665086Y389440D01*
X664991Y389378D01*
X664898Y389313D01*
X664808Y389245D01*
X664720Y389174D01*
X664634Y389099D01*
X664551Y389022D01*
X664471Y388942D01*
X664394Y388859D01*
X664319Y388773D01*
X664248Y388685D01*
X664180Y388595D01*
X664115Y388502D01*
X664053Y388407D01*
X663995Y388310D01*
X663940Y388211D01*
X663889Y388110D01*
X663841Y388007D01*
X663796Y387903D01*
X663756Y387797D01*
X663719Y387690D01*
X663686Y387582D01*
X663656Y387472D01*
X663631Y387362D01*
X663609Y387251D01*
X663592Y387139D01*
X663578Y387026D01*
X663568Y386913D01*
X663562Y386800D01*
X663560Y386687D01*
X663561Y386687D02*
X663561Y383441D01*
X661614Y394321D02*
X666806Y394321D01*
X666919Y394323D01*
X667032Y394329D01*
X667145Y394339D01*
X667258Y394353D01*
X667370Y394370D01*
X667481Y394392D01*
X667591Y394417D01*
X667701Y394447D01*
X667809Y394480D01*
X667916Y394517D01*
X668022Y394557D01*
X668126Y394602D01*
X668229Y394650D01*
X668330Y394701D01*
X668429Y394756D01*
X668526Y394814D01*
X668621Y394876D01*
X668714Y394941D01*
X668804Y395009D01*
X668892Y395080D01*
X668978Y395155D01*
X669061Y395232D01*
X669141Y395312D01*
X669218Y395395D01*
X669293Y395481D01*
X669364Y395569D01*
X669432Y395659D01*
X669497Y395752D01*
X669559Y395847D01*
X669617Y395944D01*
X669672Y396043D01*
X669723Y396144D01*
X669771Y396247D01*
X669816Y396351D01*
X669856Y396457D01*
X669893Y396564D01*
X669926Y396672D01*
X669956Y396782D01*
X669981Y396892D01*
X670003Y397003D01*
X670020Y397115D01*
X670034Y397228D01*
X670044Y397341D01*
X670050Y397454D01*
X670052Y397567D01*
X670050Y397680D01*
X670044Y397793D01*
X670034Y397906D01*
X670020Y398019D01*
X670003Y398131D01*
X669981Y398242D01*
X669956Y398352D01*
X669926Y398462D01*
X669893Y398570D01*
X669856Y398677D01*
X669816Y398783D01*
X669771Y398887D01*
X669723Y398990D01*
X669672Y399091D01*
X669617Y399190D01*
X669559Y399287D01*
X669497Y399382D01*
X669432Y399475D01*
X669364Y399565D01*
X669293Y399653D01*
X669218Y399739D01*
X669141Y399822D01*
X669061Y399902D01*
X668978Y399979D01*
X668892Y400054D01*
X668804Y400125D01*
X668714Y400193D01*
X668621Y400258D01*
X668526Y400320D01*
X668429Y400378D01*
X668330Y400433D01*
X668229Y400484D01*
X668126Y400532D01*
X668022Y400577D01*
X667916Y400617D01*
X667809Y400654D01*
X667701Y400687D01*
X667591Y400717D01*
X667481Y400742D01*
X667370Y400764D01*
X667258Y400781D01*
X667145Y400795D01*
X667032Y400805D01*
X666919Y400811D01*
X666806Y400813D01*
X666806Y400812D02*
X661614Y400812D01*
X661614Y400813D02*
X661501Y400811D01*
X661388Y400805D01*
X661275Y400795D01*
X661162Y400781D01*
X661050Y400764D01*
X660939Y400742D01*
X660829Y400717D01*
X660719Y400687D01*
X660611Y400654D01*
X660504Y400617D01*
X660398Y400577D01*
X660294Y400532D01*
X660191Y400484D01*
X660090Y400433D01*
X659991Y400378D01*
X659894Y400320D01*
X659799Y400258D01*
X659706Y400193D01*
X659616Y400125D01*
X659528Y400054D01*
X659442Y399979D01*
X659359Y399902D01*
X659279Y399822D01*
X659202Y399739D01*
X659127Y399653D01*
X659056Y399565D01*
X658988Y399475D01*
X658923Y399382D01*
X658861Y399287D01*
X658803Y399190D01*
X658748Y399091D01*
X658697Y398990D01*
X658649Y398887D01*
X658604Y398783D01*
X658564Y398677D01*
X658527Y398570D01*
X658494Y398462D01*
X658464Y398352D01*
X658439Y398242D01*
X658417Y398131D01*
X658400Y398019D01*
X658386Y397906D01*
X658376Y397793D01*
X658370Y397680D01*
X658368Y397567D01*
X658370Y397454D01*
X658376Y397341D01*
X658386Y397228D01*
X658400Y397115D01*
X658417Y397003D01*
X658439Y396892D01*
X658464Y396782D01*
X658494Y396672D01*
X658527Y396564D01*
X658564Y396457D01*
X658604Y396351D01*
X658649Y396247D01*
X658697Y396144D01*
X658748Y396043D01*
X658803Y395944D01*
X658861Y395847D01*
X658923Y395752D01*
X658988Y395659D01*
X659056Y395569D01*
X659127Y395481D01*
X659202Y395395D01*
X659279Y395312D01*
X659359Y395232D01*
X659442Y395155D01*
X659528Y395080D01*
X659616Y395009D01*
X659706Y394941D01*
X659799Y394876D01*
X659894Y394814D01*
X659991Y394756D01*
X660090Y394701D01*
X660191Y394650D01*
X660294Y394602D01*
X660398Y394557D01*
X660504Y394517D01*
X660611Y394480D01*
X660719Y394447D01*
X660829Y394417D01*
X660939Y394392D01*
X661050Y394370D01*
X661162Y394353D01*
X661275Y394339D01*
X661388Y394329D01*
X661501Y394323D01*
X661614Y394321D01*
X661614Y406132D02*
X670052Y406132D01*
X661614Y406131D02*
X661501Y406133D01*
X661388Y406139D01*
X661275Y406149D01*
X661162Y406163D01*
X661050Y406180D01*
X660939Y406202D01*
X660829Y406227D01*
X660719Y406257D01*
X660611Y406290D01*
X660504Y406327D01*
X660398Y406367D01*
X660294Y406412D01*
X660191Y406460D01*
X660090Y406511D01*
X659991Y406566D01*
X659894Y406624D01*
X659799Y406686D01*
X659706Y406751D01*
X659616Y406819D01*
X659528Y406890D01*
X659442Y406965D01*
X659359Y407042D01*
X659279Y407122D01*
X659202Y407205D01*
X659127Y407291D01*
X659056Y407379D01*
X658988Y407469D01*
X658923Y407562D01*
X658861Y407657D01*
X658803Y407754D01*
X658748Y407853D01*
X658697Y407954D01*
X658649Y408057D01*
X658604Y408161D01*
X658564Y408267D01*
X658527Y408374D01*
X658494Y408482D01*
X658464Y408592D01*
X658439Y408702D01*
X658417Y408813D01*
X658400Y408925D01*
X658386Y409038D01*
X658376Y409151D01*
X658370Y409264D01*
X658368Y409377D01*
X658370Y409490D01*
X658376Y409603D01*
X658386Y409716D01*
X658400Y409829D01*
X658417Y409941D01*
X658439Y410052D01*
X658464Y410162D01*
X658494Y410272D01*
X658527Y410380D01*
X658564Y410487D01*
X658604Y410593D01*
X658649Y410697D01*
X658697Y410800D01*
X658748Y410901D01*
X658803Y411000D01*
X658861Y411097D01*
X658923Y411192D01*
X658988Y411285D01*
X659056Y411375D01*
X659127Y411463D01*
X659202Y411549D01*
X659279Y411632D01*
X659359Y411712D01*
X659442Y411789D01*
X659528Y411864D01*
X659616Y411935D01*
X659706Y412003D01*
X659799Y412068D01*
X659894Y412130D01*
X659991Y412188D01*
X660090Y412243D01*
X660191Y412294D01*
X660294Y412342D01*
X660398Y412387D01*
X660504Y412427D01*
X660611Y412464D01*
X660719Y412497D01*
X660829Y412527D01*
X660939Y412552D01*
X661050Y412574D01*
X661162Y412591D01*
X661275Y412605D01*
X661388Y412615D01*
X661501Y412621D01*
X661614Y412623D01*
X670052Y412623D01*
X670052Y420426D02*
X658368Y420426D01*
X670052Y417181D02*
X670052Y423672D01*
D10*
X312420Y342900D02*
X312420Y279400D01*
X312420Y342900D02*
X294640Y342900D01*
X312420Y419100D02*
X312420Y482600D01*
X312420Y419100D02*
X294640Y419100D01*
X294640Y342900D01*
D11*
X349758Y231577D02*
X361442Y227683D01*
X361442Y235472D02*
X349758Y231577D01*
X349758Y240721D02*
X361442Y240721D01*
X349758Y239423D02*
X349758Y242020D01*
X361442Y242020D02*
X361442Y239423D01*
X361442Y247001D02*
X349758Y247001D01*
X349758Y253492D02*
X361442Y247001D01*
X361442Y253492D02*
X349758Y253492D01*
X381649Y229108D02*
X381649Y227161D01*
X381649Y229108D02*
X375158Y229108D01*
X375158Y225213D01*
X375160Y225114D01*
X375166Y225014D01*
X375175Y224915D01*
X375188Y224817D01*
X375205Y224719D01*
X375226Y224621D01*
X375251Y224525D01*
X375279Y224430D01*
X375311Y224336D01*
X375346Y224243D01*
X375385Y224151D01*
X375428Y224061D01*
X375473Y223973D01*
X375523Y223886D01*
X375575Y223802D01*
X375631Y223719D01*
X375689Y223639D01*
X375751Y223561D01*
X375816Y223486D01*
X375884Y223413D01*
X375954Y223343D01*
X376027Y223275D01*
X376102Y223210D01*
X376180Y223148D01*
X376260Y223090D01*
X376343Y223034D01*
X376427Y222982D01*
X376514Y222932D01*
X376602Y222887D01*
X376692Y222844D01*
X376784Y222805D01*
X376877Y222770D01*
X376971Y222738D01*
X377066Y222710D01*
X377162Y222685D01*
X377260Y222664D01*
X377358Y222647D01*
X377456Y222634D01*
X377555Y222625D01*
X377655Y222619D01*
X377754Y222617D01*
X384246Y222617D01*
X384345Y222619D01*
X384445Y222625D01*
X384544Y222634D01*
X384642Y222647D01*
X384740Y222664D01*
X384838Y222685D01*
X384934Y222710D01*
X385029Y222738D01*
X385123Y222770D01*
X385216Y222805D01*
X385308Y222844D01*
X385398Y222887D01*
X385486Y222932D01*
X385573Y222982D01*
X385657Y223034D01*
X385740Y223090D01*
X385820Y223148D01*
X385898Y223210D01*
X385973Y223275D01*
X386046Y223343D01*
X386116Y223413D01*
X386184Y223486D01*
X386249Y223561D01*
X386311Y223639D01*
X386369Y223719D01*
X386425Y223802D01*
X386477Y223886D01*
X386527Y223973D01*
X386572Y224061D01*
X386615Y224151D01*
X386654Y224243D01*
X386689Y224335D01*
X386721Y224430D01*
X386749Y224525D01*
X386774Y224621D01*
X386795Y224719D01*
X386812Y224817D01*
X386825Y224915D01*
X386834Y225014D01*
X386840Y225114D01*
X386842Y225213D01*
X386842Y229108D01*
X386842Y234809D02*
X375158Y234809D01*
X375158Y241300D02*
X386842Y234809D01*
X386842Y241300D02*
X375158Y241300D01*
X375158Y247001D02*
X386842Y247001D01*
X386842Y250246D01*
X386840Y250359D01*
X386834Y250472D01*
X386824Y250585D01*
X386810Y250698D01*
X386793Y250810D01*
X386771Y250921D01*
X386746Y251031D01*
X386716Y251141D01*
X386683Y251249D01*
X386646Y251356D01*
X386606Y251462D01*
X386561Y251566D01*
X386513Y251669D01*
X386462Y251770D01*
X386407Y251869D01*
X386349Y251966D01*
X386287Y252061D01*
X386222Y252154D01*
X386154Y252244D01*
X386083Y252332D01*
X386008Y252418D01*
X385931Y252501D01*
X385851Y252581D01*
X385768Y252658D01*
X385682Y252733D01*
X385594Y252804D01*
X385504Y252872D01*
X385411Y252937D01*
X385316Y252999D01*
X385219Y253057D01*
X385120Y253112D01*
X385019Y253163D01*
X384916Y253211D01*
X384812Y253256D01*
X384706Y253296D01*
X384599Y253333D01*
X384491Y253366D01*
X384381Y253396D01*
X384271Y253421D01*
X384160Y253443D01*
X384048Y253460D01*
X383935Y253474D01*
X383822Y253484D01*
X383709Y253490D01*
X383596Y253492D01*
X378404Y253492D01*
X378291Y253490D01*
X378178Y253484D01*
X378065Y253474D01*
X377952Y253460D01*
X377840Y253443D01*
X377729Y253421D01*
X377619Y253396D01*
X377509Y253366D01*
X377401Y253333D01*
X377294Y253296D01*
X377188Y253256D01*
X377084Y253211D01*
X376981Y253163D01*
X376880Y253112D01*
X376781Y253057D01*
X376684Y252999D01*
X376589Y252937D01*
X376496Y252872D01*
X376406Y252804D01*
X376318Y252733D01*
X376232Y252658D01*
X376149Y252581D01*
X376069Y252501D01*
X375992Y252418D01*
X375917Y252332D01*
X375846Y252244D01*
X375778Y252154D01*
X375713Y252061D01*
X375651Y251966D01*
X375593Y251869D01*
X375538Y251770D01*
X375487Y251669D01*
X375439Y251566D01*
X375394Y251462D01*
X375354Y251356D01*
X375317Y251249D01*
X375284Y251141D01*
X375254Y251031D01*
X375229Y250921D01*
X375207Y250810D01*
X375190Y250698D01*
X375176Y250585D01*
X375166Y250472D01*
X375160Y250359D01*
X375158Y250246D01*
X375158Y247001D01*
X400558Y238929D02*
X412242Y238929D01*
X412242Y235684D02*
X412242Y242175D01*
X412242Y253492D02*
X400558Y245703D01*
X400558Y253492D02*
X412242Y245703D01*
X425958Y234995D02*
X437642Y234995D01*
X437642Y238241D01*
X437640Y238354D01*
X437634Y238467D01*
X437624Y238580D01*
X437610Y238693D01*
X437593Y238805D01*
X437571Y238916D01*
X437546Y239026D01*
X437516Y239136D01*
X437483Y239244D01*
X437446Y239351D01*
X437406Y239457D01*
X437361Y239561D01*
X437313Y239664D01*
X437262Y239765D01*
X437207Y239864D01*
X437149Y239961D01*
X437087Y240056D01*
X437022Y240149D01*
X436954Y240239D01*
X436883Y240327D01*
X436808Y240413D01*
X436731Y240496D01*
X436651Y240576D01*
X436568Y240653D01*
X436482Y240728D01*
X436394Y240799D01*
X436304Y240867D01*
X436211Y240932D01*
X436116Y240994D01*
X436019Y241052D01*
X435920Y241107D01*
X435819Y241158D01*
X435716Y241206D01*
X435612Y241251D01*
X435506Y241291D01*
X435399Y241328D01*
X435291Y241361D01*
X435181Y241391D01*
X435071Y241416D01*
X434960Y241438D01*
X434848Y241455D01*
X434735Y241469D01*
X434622Y241479D01*
X434509Y241485D01*
X434396Y241487D01*
X434283Y241485D01*
X434170Y241479D01*
X434057Y241469D01*
X433944Y241455D01*
X433832Y241438D01*
X433721Y241416D01*
X433611Y241391D01*
X433501Y241361D01*
X433393Y241328D01*
X433286Y241291D01*
X433180Y241251D01*
X433076Y241206D01*
X432973Y241158D01*
X432872Y241107D01*
X432773Y241052D01*
X432676Y240994D01*
X432581Y240932D01*
X432488Y240867D01*
X432398Y240799D01*
X432310Y240728D01*
X432224Y240653D01*
X432141Y240576D01*
X432061Y240496D01*
X431984Y240413D01*
X431909Y240327D01*
X431838Y240239D01*
X431770Y240149D01*
X431705Y240056D01*
X431643Y239961D01*
X431585Y239864D01*
X431530Y239765D01*
X431479Y239664D01*
X431431Y239561D01*
X431386Y239457D01*
X431346Y239351D01*
X431309Y239244D01*
X431276Y239136D01*
X431246Y239026D01*
X431221Y238916D01*
X431199Y238805D01*
X431182Y238693D01*
X431168Y238580D01*
X431158Y238467D01*
X431152Y238354D01*
X431150Y238241D01*
X431151Y238241D02*
X431151Y234995D01*
X431151Y238890D02*
X425958Y241487D01*
X425958Y245703D02*
X437642Y253492D01*
X437642Y245703D02*
X425958Y253492D01*
X451358Y222716D02*
X463042Y220119D01*
X459147Y225312D02*
X451358Y222716D01*
X451358Y227909D02*
X459147Y225312D01*
X463042Y230505D02*
X451358Y227909D01*
X451358Y235571D02*
X463042Y235571D01*
X463042Y242062D02*
X455902Y235571D01*
X458498Y238167D02*
X451358Y242062D01*
X451358Y247001D02*
X463042Y247001D01*
X463042Y250246D01*
X463040Y250359D01*
X463034Y250472D01*
X463024Y250585D01*
X463010Y250698D01*
X462993Y250810D01*
X462971Y250921D01*
X462946Y251031D01*
X462916Y251141D01*
X462883Y251249D01*
X462846Y251356D01*
X462806Y251462D01*
X462761Y251566D01*
X462713Y251669D01*
X462662Y251770D01*
X462607Y251869D01*
X462549Y251966D01*
X462487Y252061D01*
X462422Y252154D01*
X462354Y252244D01*
X462283Y252332D01*
X462208Y252418D01*
X462131Y252501D01*
X462051Y252581D01*
X461968Y252658D01*
X461882Y252733D01*
X461794Y252804D01*
X461704Y252872D01*
X461611Y252937D01*
X461516Y252999D01*
X461419Y253057D01*
X461320Y253112D01*
X461219Y253163D01*
X461116Y253211D01*
X461012Y253256D01*
X460906Y253296D01*
X460799Y253333D01*
X460691Y253366D01*
X460581Y253396D01*
X460471Y253421D01*
X460360Y253443D01*
X460248Y253460D01*
X460135Y253474D01*
X460022Y253484D01*
X459909Y253490D01*
X459796Y253492D01*
X459683Y253490D01*
X459570Y253484D01*
X459457Y253474D01*
X459344Y253460D01*
X459232Y253443D01*
X459121Y253421D01*
X459011Y253396D01*
X458901Y253366D01*
X458793Y253333D01*
X458686Y253296D01*
X458580Y253256D01*
X458476Y253211D01*
X458373Y253163D01*
X458272Y253112D01*
X458173Y253057D01*
X458076Y252999D01*
X457981Y252937D01*
X457888Y252872D01*
X457798Y252804D01*
X457710Y252733D01*
X457624Y252658D01*
X457541Y252581D01*
X457461Y252501D01*
X457384Y252418D01*
X457309Y252332D01*
X457238Y252244D01*
X457170Y252154D01*
X457105Y252061D01*
X457043Y251966D01*
X456985Y251869D01*
X456930Y251770D01*
X456879Y251669D01*
X456831Y251566D01*
X456786Y251462D01*
X456746Y251356D01*
X456709Y251249D01*
X456676Y251141D01*
X456646Y251031D01*
X456621Y250921D01*
X456599Y250810D01*
X456582Y250698D01*
X456568Y250585D01*
X456558Y250472D01*
X456552Y250359D01*
X456550Y250246D01*
X456551Y250246D02*
X456551Y247001D01*
X476758Y225091D02*
X488442Y225091D01*
X488442Y228337D01*
X488440Y228450D01*
X488434Y228563D01*
X488424Y228676D01*
X488410Y228789D01*
X488393Y228901D01*
X488371Y229012D01*
X488346Y229122D01*
X488316Y229232D01*
X488283Y229340D01*
X488246Y229447D01*
X488206Y229553D01*
X488161Y229657D01*
X488113Y229760D01*
X488062Y229861D01*
X488007Y229960D01*
X487949Y230057D01*
X487887Y230152D01*
X487822Y230245D01*
X487754Y230335D01*
X487683Y230423D01*
X487608Y230509D01*
X487531Y230592D01*
X487451Y230672D01*
X487368Y230749D01*
X487282Y230824D01*
X487194Y230895D01*
X487104Y230963D01*
X487011Y231028D01*
X486916Y231090D01*
X486819Y231148D01*
X486720Y231203D01*
X486619Y231254D01*
X486516Y231302D01*
X486412Y231347D01*
X486306Y231387D01*
X486199Y231424D01*
X486091Y231457D01*
X485981Y231487D01*
X485871Y231512D01*
X485760Y231534D01*
X485648Y231551D01*
X485535Y231565D01*
X485422Y231575D01*
X485309Y231581D01*
X485196Y231583D01*
X485196Y231582D02*
X480004Y231582D01*
X480004Y231583D02*
X479891Y231581D01*
X479778Y231575D01*
X479665Y231565D01*
X479552Y231551D01*
X479440Y231534D01*
X479329Y231512D01*
X479219Y231487D01*
X479109Y231457D01*
X479001Y231424D01*
X478894Y231387D01*
X478788Y231347D01*
X478684Y231302D01*
X478581Y231254D01*
X478480Y231203D01*
X478381Y231148D01*
X478284Y231090D01*
X478189Y231028D01*
X478096Y230963D01*
X478006Y230895D01*
X477918Y230824D01*
X477832Y230749D01*
X477749Y230672D01*
X477669Y230592D01*
X477592Y230509D01*
X477517Y230423D01*
X477446Y230335D01*
X477378Y230245D01*
X477313Y230152D01*
X477251Y230057D01*
X477193Y229960D01*
X477138Y229861D01*
X477087Y229760D01*
X477039Y229657D01*
X476994Y229553D01*
X476954Y229447D01*
X476917Y229340D01*
X476884Y229232D01*
X476854Y229122D01*
X476829Y229012D01*
X476807Y228901D01*
X476790Y228789D01*
X476776Y228676D01*
X476766Y228563D01*
X476760Y228450D01*
X476758Y228337D01*
X476758Y225091D01*
X476758Y236253D02*
X488442Y240148D01*
X476758Y244043D01*
X479679Y243069D02*
X479679Y237227D01*
X476758Y250896D02*
X476758Y253492D01*
X476758Y250896D02*
X476760Y250797D01*
X476766Y250697D01*
X476775Y250598D01*
X476788Y250500D01*
X476805Y250402D01*
X476826Y250304D01*
X476851Y250208D01*
X476879Y250113D01*
X476911Y250019D01*
X476946Y249926D01*
X476985Y249834D01*
X477028Y249744D01*
X477073Y249656D01*
X477123Y249569D01*
X477175Y249485D01*
X477231Y249402D01*
X477289Y249322D01*
X477351Y249244D01*
X477416Y249169D01*
X477484Y249096D01*
X477554Y249026D01*
X477627Y248958D01*
X477702Y248893D01*
X477780Y248831D01*
X477860Y248773D01*
X477943Y248717D01*
X478027Y248665D01*
X478114Y248615D01*
X478202Y248570D01*
X478292Y248527D01*
X478384Y248488D01*
X478477Y248453D01*
X478571Y248421D01*
X478666Y248393D01*
X478762Y248368D01*
X478860Y248347D01*
X478958Y248330D01*
X479056Y248317D01*
X479155Y248308D01*
X479255Y248302D01*
X479354Y248300D01*
X479354Y248299D02*
X485846Y248299D01*
X485846Y248300D02*
X485945Y248302D01*
X486045Y248308D01*
X486144Y248317D01*
X486242Y248330D01*
X486340Y248347D01*
X486438Y248368D01*
X486534Y248393D01*
X486629Y248421D01*
X486723Y248453D01*
X486816Y248488D01*
X486908Y248527D01*
X486998Y248570D01*
X487086Y248615D01*
X487173Y248665D01*
X487257Y248717D01*
X487340Y248773D01*
X487420Y248831D01*
X487498Y248893D01*
X487573Y248958D01*
X487646Y249026D01*
X487716Y249096D01*
X487784Y249169D01*
X487849Y249244D01*
X487911Y249322D01*
X487969Y249402D01*
X488025Y249485D01*
X488077Y249569D01*
X488127Y249656D01*
X488172Y249744D01*
X488215Y249834D01*
X488254Y249926D01*
X488289Y250018D01*
X488321Y250113D01*
X488349Y250208D01*
X488374Y250304D01*
X488395Y250402D01*
X488412Y250500D01*
X488425Y250598D01*
X488434Y250697D01*
X488440Y250797D01*
X488442Y250896D01*
X488442Y253492D01*
X502158Y234922D02*
X513842Y238816D01*
X502158Y242711D01*
X505079Y241737D02*
X505079Y235895D01*
X502158Y247001D02*
X502158Y250896D01*
X502160Y250995D01*
X502166Y251095D01*
X502175Y251194D01*
X502188Y251292D01*
X502205Y251390D01*
X502226Y251488D01*
X502251Y251584D01*
X502279Y251679D01*
X502311Y251773D01*
X502346Y251866D01*
X502385Y251958D01*
X502428Y252048D01*
X502473Y252136D01*
X502523Y252223D01*
X502575Y252307D01*
X502631Y252390D01*
X502689Y252470D01*
X502751Y252548D01*
X502816Y252623D01*
X502884Y252696D01*
X502954Y252766D01*
X503027Y252834D01*
X503102Y252899D01*
X503180Y252961D01*
X503260Y253019D01*
X503343Y253075D01*
X503427Y253127D01*
X503514Y253177D01*
X503602Y253222D01*
X503692Y253265D01*
X503784Y253304D01*
X503877Y253339D01*
X503971Y253371D01*
X504066Y253399D01*
X504162Y253424D01*
X504260Y253445D01*
X504358Y253462D01*
X504456Y253475D01*
X504555Y253484D01*
X504655Y253490D01*
X504754Y253492D01*
X506053Y253492D01*
X506152Y253490D01*
X506252Y253484D01*
X506351Y253475D01*
X506449Y253462D01*
X506547Y253445D01*
X506645Y253424D01*
X506741Y253399D01*
X506836Y253371D01*
X506930Y253339D01*
X507023Y253304D01*
X507115Y253265D01*
X507205Y253222D01*
X507293Y253177D01*
X507380Y253127D01*
X507464Y253075D01*
X507547Y253019D01*
X507627Y252961D01*
X507705Y252899D01*
X507780Y252834D01*
X507853Y252766D01*
X507923Y252696D01*
X507991Y252623D01*
X508056Y252548D01*
X508118Y252470D01*
X508176Y252390D01*
X508232Y252307D01*
X508284Y252223D01*
X508334Y252136D01*
X508379Y252048D01*
X508422Y251958D01*
X508461Y251866D01*
X508496Y251773D01*
X508528Y251679D01*
X508556Y251584D01*
X508581Y251488D01*
X508602Y251390D01*
X508619Y251292D01*
X508632Y251194D01*
X508641Y251095D01*
X508647Y250995D01*
X508649Y250896D01*
X508649Y247001D01*
X513842Y247001D01*
X513842Y253492D01*
X527558Y234922D02*
X539242Y238816D01*
X527558Y242711D01*
X530479Y241737D02*
X530479Y235895D01*
X530154Y247001D02*
X539242Y249597D01*
X530154Y247001D02*
X530154Y253492D01*
X532751Y251545D02*
X527558Y251545D01*
X552958Y234922D02*
X564642Y238816D01*
X552958Y242711D01*
X555879Y241737D02*
X555879Y235895D01*
X552958Y247001D02*
X552958Y250246D01*
X552960Y250359D01*
X552966Y250472D01*
X552976Y250585D01*
X552990Y250698D01*
X553007Y250810D01*
X553029Y250921D01*
X553054Y251031D01*
X553084Y251141D01*
X553117Y251249D01*
X553154Y251356D01*
X553194Y251462D01*
X553239Y251566D01*
X553287Y251669D01*
X553338Y251770D01*
X553393Y251869D01*
X553451Y251966D01*
X553513Y252061D01*
X553578Y252154D01*
X553646Y252244D01*
X553717Y252332D01*
X553792Y252418D01*
X553869Y252501D01*
X553949Y252581D01*
X554032Y252658D01*
X554118Y252733D01*
X554206Y252804D01*
X554296Y252872D01*
X554389Y252937D01*
X554484Y252999D01*
X554581Y253057D01*
X554680Y253112D01*
X554781Y253163D01*
X554884Y253211D01*
X554988Y253256D01*
X555094Y253296D01*
X555201Y253333D01*
X555309Y253366D01*
X555419Y253396D01*
X555529Y253421D01*
X555640Y253443D01*
X555752Y253460D01*
X555865Y253474D01*
X555978Y253484D01*
X556091Y253490D01*
X556204Y253492D01*
X556317Y253490D01*
X556430Y253484D01*
X556543Y253474D01*
X556656Y253460D01*
X556768Y253443D01*
X556879Y253421D01*
X556989Y253396D01*
X557099Y253366D01*
X557207Y253333D01*
X557314Y253296D01*
X557420Y253256D01*
X557524Y253211D01*
X557627Y253163D01*
X557728Y253112D01*
X557827Y253057D01*
X557924Y252999D01*
X558019Y252937D01*
X558112Y252872D01*
X558202Y252804D01*
X558290Y252733D01*
X558376Y252658D01*
X558459Y252581D01*
X558539Y252501D01*
X558616Y252418D01*
X558691Y252332D01*
X558762Y252244D01*
X558830Y252154D01*
X558895Y252061D01*
X558957Y251966D01*
X559015Y251869D01*
X559070Y251770D01*
X559121Y251669D01*
X559169Y251566D01*
X559214Y251462D01*
X559254Y251356D01*
X559291Y251249D01*
X559324Y251141D01*
X559354Y251031D01*
X559379Y250921D01*
X559401Y250810D01*
X559418Y250698D01*
X559432Y250585D01*
X559442Y250472D01*
X559448Y250359D01*
X559450Y250246D01*
X564642Y250896D02*
X564642Y247001D01*
X564642Y250896D02*
X564640Y250997D01*
X564634Y251097D01*
X564624Y251197D01*
X564611Y251297D01*
X564593Y251396D01*
X564572Y251495D01*
X564547Y251592D01*
X564518Y251689D01*
X564485Y251784D01*
X564449Y251878D01*
X564409Y251970D01*
X564366Y252061D01*
X564319Y252150D01*
X564269Y252237D01*
X564215Y252323D01*
X564158Y252406D01*
X564098Y252486D01*
X564035Y252565D01*
X563968Y252641D01*
X563899Y252714D01*
X563827Y252784D01*
X563753Y252852D01*
X563676Y252917D01*
X563596Y252978D01*
X563514Y253037D01*
X563430Y253092D01*
X563344Y253144D01*
X563256Y253193D01*
X563166Y253238D01*
X563074Y253280D01*
X562981Y253318D01*
X562886Y253352D01*
X562791Y253383D01*
X562694Y253410D01*
X562596Y253433D01*
X562497Y253453D01*
X562397Y253468D01*
X562297Y253480D01*
X562197Y253488D01*
X562096Y253492D01*
X561996Y253492D01*
X561895Y253488D01*
X561795Y253480D01*
X561695Y253468D01*
X561595Y253453D01*
X561496Y253433D01*
X561398Y253410D01*
X561301Y253383D01*
X561206Y253352D01*
X561111Y253318D01*
X561018Y253280D01*
X560926Y253238D01*
X560836Y253193D01*
X560748Y253144D01*
X560662Y253092D01*
X560578Y253037D01*
X560496Y252978D01*
X560416Y252917D01*
X560339Y252852D01*
X560265Y252784D01*
X560193Y252714D01*
X560124Y252641D01*
X560057Y252565D01*
X559994Y252486D01*
X559934Y252406D01*
X559877Y252323D01*
X559823Y252237D01*
X559773Y252150D01*
X559726Y252061D01*
X559683Y251970D01*
X559643Y251878D01*
X559607Y251784D01*
X559574Y251689D01*
X559545Y251592D01*
X559520Y251495D01*
X559499Y251396D01*
X559481Y251297D01*
X559468Y251197D01*
X559458Y251097D01*
X559452Y250997D01*
X559450Y250896D01*
X559449Y250896D02*
X559449Y248299D01*
X578358Y234922D02*
X590042Y238816D01*
X578358Y242711D01*
X581279Y241737D02*
X581279Y235895D01*
X590042Y250571D02*
X590040Y250678D01*
X590034Y250784D01*
X590024Y250890D01*
X590011Y250996D01*
X589993Y251102D01*
X589972Y251206D01*
X589947Y251310D01*
X589918Y251413D01*
X589886Y251514D01*
X589849Y251614D01*
X589809Y251713D01*
X589766Y251811D01*
X589719Y251907D01*
X589668Y252001D01*
X589614Y252093D01*
X589557Y252183D01*
X589497Y252271D01*
X589433Y252356D01*
X589366Y252439D01*
X589296Y252520D01*
X589224Y252598D01*
X589148Y252674D01*
X589070Y252746D01*
X588989Y252816D01*
X588906Y252883D01*
X588821Y252947D01*
X588733Y253007D01*
X588643Y253064D01*
X588551Y253118D01*
X588457Y253169D01*
X588361Y253216D01*
X588263Y253259D01*
X588164Y253299D01*
X588064Y253336D01*
X587963Y253368D01*
X587860Y253397D01*
X587756Y253422D01*
X587652Y253443D01*
X587546Y253461D01*
X587440Y253474D01*
X587334Y253484D01*
X587228Y253490D01*
X587121Y253492D01*
X590042Y250571D02*
X590040Y250450D01*
X590034Y250329D01*
X590024Y250209D01*
X590011Y250088D01*
X589993Y249969D01*
X589972Y249849D01*
X589947Y249731D01*
X589918Y249614D01*
X589885Y249497D01*
X589849Y249382D01*
X589808Y249268D01*
X589765Y249155D01*
X589717Y249043D01*
X589666Y248934D01*
X589611Y248826D01*
X589553Y248719D01*
X589492Y248615D01*
X589427Y248513D01*
X589359Y248413D01*
X589288Y248315D01*
X589214Y248219D01*
X589137Y248126D01*
X589056Y248036D01*
X588973Y247948D01*
X588887Y247863D01*
X588798Y247780D01*
X588707Y247701D01*
X588613Y247624D01*
X588517Y247551D01*
X588419Y247481D01*
X588318Y247414D01*
X588215Y247350D01*
X588110Y247290D01*
X588003Y247233D01*
X587895Y247179D01*
X587785Y247129D01*
X587673Y247083D01*
X587560Y247040D01*
X587445Y247001D01*
X584849Y252519D02*
X584926Y252598D01*
X585007Y252674D01*
X585090Y252747D01*
X585175Y252817D01*
X585263Y252884D01*
X585353Y252948D01*
X585445Y253008D01*
X585540Y253065D01*
X585636Y253119D01*
X585734Y253170D01*
X585834Y253217D01*
X585936Y253261D01*
X586039Y253301D01*
X586143Y253337D01*
X586249Y253369D01*
X586355Y253398D01*
X586463Y253423D01*
X586571Y253445D01*
X586681Y253462D01*
X586790Y253476D01*
X586900Y253485D01*
X587011Y253491D01*
X587121Y253493D01*
X584849Y252518D02*
X578358Y247001D01*
X578358Y253492D01*
X603758Y234922D02*
X615442Y238816D01*
X603758Y242711D01*
X606679Y241737D02*
X606679Y235895D01*
X612846Y247001D02*
X615442Y250246D01*
X603758Y250246D01*
X603758Y247001D02*
X603758Y253492D01*
X629158Y234922D02*
X640842Y238816D01*
X629158Y242711D01*
X632079Y241737D02*
X632079Y235895D01*
X635000Y247001D02*
X635230Y247004D01*
X635460Y247012D01*
X635689Y247026D01*
X635918Y247045D01*
X636147Y247070D01*
X636374Y247100D01*
X636602Y247135D01*
X636828Y247176D01*
X637053Y247222D01*
X637277Y247274D01*
X637499Y247331D01*
X637721Y247393D01*
X637940Y247461D01*
X638158Y247534D01*
X638375Y247612D01*
X638589Y247695D01*
X638801Y247783D01*
X639011Y247876D01*
X639219Y247975D01*
X639219Y247974D02*
X639309Y248007D01*
X639398Y248043D01*
X639486Y248083D01*
X639571Y248127D01*
X639655Y248174D01*
X639737Y248224D01*
X639817Y248278D01*
X639894Y248334D01*
X639970Y248394D01*
X640043Y248457D01*
X640113Y248522D01*
X640181Y248591D01*
X640245Y248662D01*
X640307Y248735D01*
X640366Y248811D01*
X640422Y248889D01*
X640475Y248970D01*
X640524Y249052D01*
X640570Y249136D01*
X640613Y249223D01*
X640652Y249310D01*
X640688Y249400D01*
X640720Y249490D01*
X640748Y249582D01*
X640773Y249675D01*
X640794Y249769D01*
X640811Y249863D01*
X640825Y249958D01*
X640834Y250054D01*
X640840Y250150D01*
X640842Y250246D01*
X640840Y250342D01*
X640834Y250438D01*
X640825Y250534D01*
X640811Y250629D01*
X640794Y250723D01*
X640773Y250817D01*
X640748Y250910D01*
X640720Y251002D01*
X640688Y251092D01*
X640652Y251182D01*
X640613Y251269D01*
X640570Y251356D01*
X640524Y251440D01*
X640475Y251522D01*
X640422Y251603D01*
X640366Y251681D01*
X640307Y251757D01*
X640245Y251830D01*
X640181Y251901D01*
X640113Y251970D01*
X640043Y252035D01*
X639970Y252098D01*
X639894Y252158D01*
X639817Y252214D01*
X639737Y252268D01*
X639655Y252318D01*
X639571Y252365D01*
X639486Y252409D01*
X639398Y252449D01*
X639309Y252485D01*
X639219Y252518D01*
X639219Y252519D02*
X639012Y252618D01*
X638802Y252711D01*
X638589Y252799D01*
X638375Y252882D01*
X638159Y252960D01*
X637941Y253033D01*
X637721Y253101D01*
X637500Y253163D01*
X637277Y253220D01*
X637053Y253272D01*
X636828Y253318D01*
X636602Y253359D01*
X636375Y253394D01*
X636147Y253424D01*
X635918Y253449D01*
X635689Y253468D01*
X635460Y253482D01*
X635230Y253490D01*
X635000Y253493D01*
X635000Y247001D02*
X634770Y247004D01*
X634540Y247012D01*
X634311Y247026D01*
X634082Y247045D01*
X633853Y247070D01*
X633625Y247100D01*
X633398Y247135D01*
X633172Y247176D01*
X632947Y247222D01*
X632723Y247274D01*
X632500Y247331D01*
X632279Y247393D01*
X632059Y247461D01*
X631841Y247534D01*
X631625Y247612D01*
X631411Y247695D01*
X631199Y247783D01*
X630988Y247876D01*
X630781Y247975D01*
X630781Y247974D02*
X630691Y248007D01*
X630602Y248043D01*
X630514Y248084D01*
X630429Y248127D01*
X630345Y248174D01*
X630263Y248224D01*
X630183Y248278D01*
X630106Y248334D01*
X630030Y248394D01*
X629957Y248457D01*
X629887Y248522D01*
X629819Y248591D01*
X629755Y248662D01*
X629693Y248735D01*
X629634Y248811D01*
X629578Y248889D01*
X629525Y248970D01*
X629476Y249052D01*
X629430Y249136D01*
X629387Y249223D01*
X629348Y249310D01*
X629312Y249400D01*
X629280Y249490D01*
X629252Y249582D01*
X629227Y249675D01*
X629206Y249769D01*
X629189Y249863D01*
X629175Y249958D01*
X629166Y250054D01*
X629160Y250150D01*
X629158Y250246D01*
X630781Y252518D02*
X630988Y252617D01*
X631199Y252710D01*
X631411Y252798D01*
X631625Y252881D01*
X631841Y252959D01*
X632059Y253032D01*
X632279Y253100D01*
X632500Y253162D01*
X632723Y253219D01*
X632947Y253271D01*
X633172Y253317D01*
X633398Y253358D01*
X633625Y253393D01*
X633853Y253423D01*
X634082Y253448D01*
X634311Y253467D01*
X634540Y253481D01*
X634770Y253489D01*
X635000Y253492D01*
X630781Y252518D02*
X630691Y252485D01*
X630602Y252449D01*
X630514Y252409D01*
X630429Y252365D01*
X630345Y252318D01*
X630263Y252268D01*
X630183Y252214D01*
X630106Y252158D01*
X630030Y252098D01*
X629957Y252035D01*
X629887Y251970D01*
X629819Y251901D01*
X629755Y251830D01*
X629693Y251757D01*
X629634Y251681D01*
X629578Y251603D01*
X629525Y251522D01*
X629476Y251440D01*
X629430Y251356D01*
X629387Y251269D01*
X629348Y251182D01*
X629312Y251092D01*
X629280Y251002D01*
X629252Y250910D01*
X629227Y250817D01*
X629206Y250723D01*
X629189Y250629D01*
X629175Y250534D01*
X629166Y250438D01*
X629160Y250342D01*
X629158Y250246D01*
X631754Y247650D02*
X638246Y252843D01*
X640842Y507508D02*
X629158Y507508D01*
X640842Y507508D02*
X640842Y510754D01*
X640840Y510867D01*
X640834Y510980D01*
X640824Y511093D01*
X640810Y511206D01*
X640793Y511318D01*
X640771Y511429D01*
X640746Y511539D01*
X640716Y511649D01*
X640683Y511757D01*
X640646Y511864D01*
X640606Y511970D01*
X640561Y512074D01*
X640513Y512177D01*
X640462Y512278D01*
X640407Y512377D01*
X640349Y512474D01*
X640287Y512569D01*
X640222Y512662D01*
X640154Y512752D01*
X640083Y512840D01*
X640008Y512926D01*
X639931Y513009D01*
X639851Y513089D01*
X639768Y513166D01*
X639682Y513241D01*
X639594Y513312D01*
X639504Y513380D01*
X639411Y513445D01*
X639316Y513507D01*
X639219Y513565D01*
X639120Y513620D01*
X639019Y513671D01*
X638916Y513719D01*
X638812Y513764D01*
X638706Y513804D01*
X638599Y513841D01*
X638491Y513874D01*
X638381Y513904D01*
X638271Y513929D01*
X638160Y513951D01*
X638048Y513968D01*
X637935Y513982D01*
X637822Y513992D01*
X637709Y513998D01*
X637596Y514000D01*
X637596Y513999D02*
X632404Y513999D01*
X632404Y514000D02*
X632291Y513998D01*
X632178Y513992D01*
X632065Y513982D01*
X631952Y513968D01*
X631840Y513951D01*
X631729Y513929D01*
X631619Y513904D01*
X631509Y513874D01*
X631401Y513841D01*
X631294Y513804D01*
X631188Y513764D01*
X631084Y513719D01*
X630981Y513671D01*
X630880Y513620D01*
X630781Y513565D01*
X630684Y513507D01*
X630589Y513445D01*
X630496Y513380D01*
X630406Y513312D01*
X630318Y513241D01*
X630232Y513166D01*
X630149Y513089D01*
X630069Y513009D01*
X629992Y512926D01*
X629917Y512840D01*
X629846Y512752D01*
X629778Y512662D01*
X629713Y512569D01*
X629651Y512474D01*
X629593Y512377D01*
X629538Y512278D01*
X629487Y512177D01*
X629439Y512074D01*
X629394Y511970D01*
X629354Y511864D01*
X629317Y511757D01*
X629284Y511649D01*
X629254Y511539D01*
X629229Y511429D01*
X629207Y511318D01*
X629190Y511206D01*
X629176Y511093D01*
X629166Y510980D01*
X629160Y510867D01*
X629158Y510754D01*
X629158Y507508D01*
X635000Y519319D02*
X635230Y519322D01*
X635460Y519330D01*
X635689Y519344D01*
X635918Y519363D01*
X636147Y519388D01*
X636374Y519418D01*
X636602Y519453D01*
X636828Y519494D01*
X637053Y519540D01*
X637277Y519592D01*
X637499Y519649D01*
X637721Y519711D01*
X637940Y519779D01*
X638158Y519852D01*
X638375Y519930D01*
X638589Y520013D01*
X638801Y520101D01*
X639011Y520194D01*
X639219Y520293D01*
X639309Y520326D01*
X639398Y520362D01*
X639486Y520402D01*
X639571Y520446D01*
X639655Y520493D01*
X639737Y520543D01*
X639817Y520597D01*
X639894Y520653D01*
X639970Y520713D01*
X640043Y520776D01*
X640113Y520841D01*
X640181Y520910D01*
X640245Y520981D01*
X640307Y521054D01*
X640366Y521130D01*
X640422Y521208D01*
X640475Y521289D01*
X640524Y521371D01*
X640570Y521455D01*
X640613Y521542D01*
X640652Y521629D01*
X640688Y521719D01*
X640720Y521809D01*
X640748Y521901D01*
X640773Y521994D01*
X640794Y522088D01*
X640811Y522182D01*
X640825Y522277D01*
X640834Y522373D01*
X640840Y522469D01*
X640842Y522565D01*
X640840Y522661D01*
X640834Y522757D01*
X640825Y522853D01*
X640811Y522948D01*
X640794Y523042D01*
X640773Y523136D01*
X640748Y523229D01*
X640720Y523321D01*
X640688Y523411D01*
X640652Y523501D01*
X640613Y523588D01*
X640570Y523675D01*
X640524Y523759D01*
X640475Y523841D01*
X640422Y523922D01*
X640366Y524000D01*
X640307Y524076D01*
X640245Y524149D01*
X640181Y524220D01*
X640113Y524289D01*
X640043Y524354D01*
X639970Y524417D01*
X639894Y524477D01*
X639817Y524533D01*
X639737Y524587D01*
X639655Y524637D01*
X639571Y524684D01*
X639486Y524728D01*
X639398Y524768D01*
X639309Y524804D01*
X639219Y524837D01*
X639012Y524936D01*
X638802Y525029D01*
X638589Y525117D01*
X638375Y525200D01*
X638159Y525278D01*
X637941Y525351D01*
X637721Y525419D01*
X637500Y525481D01*
X637277Y525538D01*
X637053Y525590D01*
X636828Y525636D01*
X636602Y525677D01*
X636375Y525712D01*
X636147Y525742D01*
X635918Y525767D01*
X635689Y525786D01*
X635460Y525800D01*
X635230Y525808D01*
X635000Y525811D01*
X635000Y519319D02*
X634770Y519322D01*
X634540Y519330D01*
X634311Y519344D01*
X634082Y519363D01*
X633853Y519388D01*
X633625Y519418D01*
X633398Y519453D01*
X633172Y519494D01*
X632947Y519540D01*
X632723Y519592D01*
X632500Y519649D01*
X632279Y519711D01*
X632059Y519779D01*
X631841Y519852D01*
X631625Y519930D01*
X631411Y520013D01*
X631199Y520101D01*
X630988Y520194D01*
X630781Y520293D01*
X630691Y520326D01*
X630602Y520362D01*
X630514Y520403D01*
X630429Y520446D01*
X630345Y520493D01*
X630263Y520543D01*
X630183Y520597D01*
X630106Y520653D01*
X630030Y520713D01*
X629957Y520776D01*
X629887Y520841D01*
X629819Y520910D01*
X629755Y520981D01*
X629693Y521054D01*
X629634Y521130D01*
X629578Y521208D01*
X629525Y521289D01*
X629476Y521371D01*
X629430Y521455D01*
X629387Y521542D01*
X629348Y521629D01*
X629312Y521719D01*
X629280Y521809D01*
X629252Y521901D01*
X629227Y521994D01*
X629206Y522088D01*
X629189Y522182D01*
X629175Y522277D01*
X629166Y522373D01*
X629160Y522469D01*
X629158Y522565D01*
X630781Y524836D02*
X630988Y524935D01*
X631199Y525028D01*
X631411Y525116D01*
X631625Y525199D01*
X631841Y525277D01*
X632059Y525350D01*
X632279Y525418D01*
X632500Y525480D01*
X632723Y525537D01*
X632947Y525589D01*
X633172Y525635D01*
X633398Y525676D01*
X633625Y525711D01*
X633853Y525741D01*
X634082Y525766D01*
X634311Y525785D01*
X634540Y525799D01*
X634770Y525807D01*
X635000Y525810D01*
X630781Y524837D02*
X630691Y524804D01*
X630602Y524768D01*
X630514Y524728D01*
X630429Y524684D01*
X630345Y524637D01*
X630263Y524587D01*
X630183Y524533D01*
X630106Y524477D01*
X630030Y524417D01*
X629957Y524354D01*
X629887Y524289D01*
X629819Y524220D01*
X629755Y524149D01*
X629693Y524076D01*
X629634Y524000D01*
X629578Y523922D01*
X629525Y523841D01*
X629476Y523759D01*
X629430Y523675D01*
X629387Y523588D01*
X629348Y523501D01*
X629312Y523411D01*
X629280Y523321D01*
X629252Y523229D01*
X629227Y523136D01*
X629206Y523042D01*
X629189Y522948D01*
X629175Y522853D01*
X629166Y522757D01*
X629160Y522661D01*
X629158Y522565D01*
X631754Y519968D02*
X638246Y525161D01*
X615442Y507508D02*
X603758Y507508D01*
X615442Y507508D02*
X615442Y510754D01*
X615440Y510867D01*
X615434Y510980D01*
X615424Y511093D01*
X615410Y511206D01*
X615393Y511318D01*
X615371Y511429D01*
X615346Y511539D01*
X615316Y511649D01*
X615283Y511757D01*
X615246Y511864D01*
X615206Y511970D01*
X615161Y512074D01*
X615113Y512177D01*
X615062Y512278D01*
X615007Y512377D01*
X614949Y512474D01*
X614887Y512569D01*
X614822Y512662D01*
X614754Y512752D01*
X614683Y512840D01*
X614608Y512926D01*
X614531Y513009D01*
X614451Y513089D01*
X614368Y513166D01*
X614282Y513241D01*
X614194Y513312D01*
X614104Y513380D01*
X614011Y513445D01*
X613916Y513507D01*
X613819Y513565D01*
X613720Y513620D01*
X613619Y513671D01*
X613516Y513719D01*
X613412Y513764D01*
X613306Y513804D01*
X613199Y513841D01*
X613091Y513874D01*
X612981Y513904D01*
X612871Y513929D01*
X612760Y513951D01*
X612648Y513968D01*
X612535Y513982D01*
X612422Y513992D01*
X612309Y513998D01*
X612196Y514000D01*
X612196Y513999D02*
X607004Y513999D01*
X607004Y514000D02*
X606891Y513998D01*
X606778Y513992D01*
X606665Y513982D01*
X606552Y513968D01*
X606440Y513951D01*
X606329Y513929D01*
X606219Y513904D01*
X606109Y513874D01*
X606001Y513841D01*
X605894Y513804D01*
X605788Y513764D01*
X605684Y513719D01*
X605581Y513671D01*
X605480Y513620D01*
X605381Y513565D01*
X605284Y513507D01*
X605189Y513445D01*
X605096Y513380D01*
X605006Y513312D01*
X604918Y513241D01*
X604832Y513166D01*
X604749Y513089D01*
X604669Y513009D01*
X604592Y512926D01*
X604517Y512840D01*
X604446Y512752D01*
X604378Y512662D01*
X604313Y512569D01*
X604251Y512474D01*
X604193Y512377D01*
X604138Y512278D01*
X604087Y512177D01*
X604039Y512074D01*
X603994Y511970D01*
X603954Y511864D01*
X603917Y511757D01*
X603884Y511649D01*
X603854Y511539D01*
X603829Y511429D01*
X603807Y511318D01*
X603790Y511206D01*
X603776Y511093D01*
X603766Y510980D01*
X603760Y510867D01*
X603758Y510754D01*
X603758Y507508D01*
X612846Y519319D02*
X615442Y522565D01*
X603758Y522565D01*
X603758Y525810D02*
X603758Y519319D01*
X590042Y507508D02*
X578358Y507508D01*
X590042Y507508D02*
X590042Y510754D01*
X590040Y510867D01*
X590034Y510980D01*
X590024Y511093D01*
X590010Y511206D01*
X589993Y511318D01*
X589971Y511429D01*
X589946Y511539D01*
X589916Y511649D01*
X589883Y511757D01*
X589846Y511864D01*
X589806Y511970D01*
X589761Y512074D01*
X589713Y512177D01*
X589662Y512278D01*
X589607Y512377D01*
X589549Y512474D01*
X589487Y512569D01*
X589422Y512662D01*
X589354Y512752D01*
X589283Y512840D01*
X589208Y512926D01*
X589131Y513009D01*
X589051Y513089D01*
X588968Y513166D01*
X588882Y513241D01*
X588794Y513312D01*
X588704Y513380D01*
X588611Y513445D01*
X588516Y513507D01*
X588419Y513565D01*
X588320Y513620D01*
X588219Y513671D01*
X588116Y513719D01*
X588012Y513764D01*
X587906Y513804D01*
X587799Y513841D01*
X587691Y513874D01*
X587581Y513904D01*
X587471Y513929D01*
X587360Y513951D01*
X587248Y513968D01*
X587135Y513982D01*
X587022Y513992D01*
X586909Y513998D01*
X586796Y514000D01*
X586796Y513999D02*
X581604Y513999D01*
X581604Y514000D02*
X581491Y513998D01*
X581378Y513992D01*
X581265Y513982D01*
X581152Y513968D01*
X581040Y513951D01*
X580929Y513929D01*
X580819Y513904D01*
X580709Y513874D01*
X580601Y513841D01*
X580494Y513804D01*
X580388Y513764D01*
X580284Y513719D01*
X580181Y513671D01*
X580080Y513620D01*
X579981Y513565D01*
X579884Y513507D01*
X579789Y513445D01*
X579696Y513380D01*
X579606Y513312D01*
X579518Y513241D01*
X579432Y513166D01*
X579349Y513089D01*
X579269Y513009D01*
X579192Y512926D01*
X579117Y512840D01*
X579046Y512752D01*
X578978Y512662D01*
X578913Y512569D01*
X578851Y512474D01*
X578793Y512377D01*
X578738Y512278D01*
X578687Y512177D01*
X578639Y512074D01*
X578594Y511970D01*
X578554Y511864D01*
X578517Y511757D01*
X578484Y511649D01*
X578454Y511539D01*
X578429Y511429D01*
X578407Y511318D01*
X578390Y511206D01*
X578376Y511093D01*
X578366Y510980D01*
X578360Y510867D01*
X578358Y510754D01*
X578358Y507508D01*
X590042Y522889D02*
X590040Y522996D01*
X590034Y523102D01*
X590024Y523208D01*
X590011Y523314D01*
X589993Y523420D01*
X589972Y523524D01*
X589947Y523628D01*
X589918Y523731D01*
X589886Y523832D01*
X589849Y523932D01*
X589809Y524031D01*
X589766Y524129D01*
X589719Y524225D01*
X589668Y524319D01*
X589614Y524411D01*
X589557Y524501D01*
X589497Y524589D01*
X589433Y524674D01*
X589366Y524757D01*
X589296Y524838D01*
X589224Y524916D01*
X589148Y524992D01*
X589070Y525064D01*
X588989Y525134D01*
X588906Y525201D01*
X588821Y525265D01*
X588733Y525325D01*
X588643Y525382D01*
X588551Y525436D01*
X588457Y525487D01*
X588361Y525534D01*
X588263Y525577D01*
X588164Y525617D01*
X588064Y525654D01*
X587963Y525686D01*
X587860Y525715D01*
X587756Y525740D01*
X587652Y525761D01*
X587546Y525779D01*
X587440Y525792D01*
X587334Y525802D01*
X587228Y525808D01*
X587121Y525810D01*
X590042Y522889D02*
X590040Y522768D01*
X590034Y522647D01*
X590024Y522527D01*
X590011Y522406D01*
X589993Y522287D01*
X589972Y522167D01*
X589947Y522049D01*
X589918Y521932D01*
X589885Y521815D01*
X589849Y521700D01*
X589808Y521586D01*
X589765Y521473D01*
X589717Y521361D01*
X589666Y521252D01*
X589611Y521144D01*
X589553Y521037D01*
X589492Y520933D01*
X589427Y520831D01*
X589359Y520731D01*
X589288Y520633D01*
X589214Y520537D01*
X589137Y520444D01*
X589056Y520354D01*
X588973Y520266D01*
X588887Y520181D01*
X588798Y520098D01*
X588707Y520019D01*
X588613Y519942D01*
X588517Y519869D01*
X588419Y519799D01*
X588318Y519732D01*
X588215Y519668D01*
X588110Y519608D01*
X588003Y519551D01*
X587895Y519497D01*
X587785Y519447D01*
X587673Y519401D01*
X587560Y519358D01*
X587445Y519319D01*
X584849Y524837D02*
X584926Y524916D01*
X585007Y524992D01*
X585090Y525065D01*
X585175Y525135D01*
X585263Y525202D01*
X585353Y525266D01*
X585445Y525326D01*
X585540Y525383D01*
X585636Y525437D01*
X585734Y525488D01*
X585834Y525535D01*
X585936Y525579D01*
X586039Y525619D01*
X586143Y525655D01*
X586249Y525687D01*
X586355Y525716D01*
X586463Y525741D01*
X586571Y525763D01*
X586681Y525780D01*
X586790Y525794D01*
X586900Y525803D01*
X587011Y525809D01*
X587121Y525811D01*
X584849Y524836D02*
X578358Y519319D01*
X578358Y525810D01*
X564642Y507508D02*
X552958Y507508D01*
X564642Y507508D02*
X564642Y510754D01*
X564640Y510867D01*
X564634Y510980D01*
X564624Y511093D01*
X564610Y511206D01*
X564593Y511318D01*
X564571Y511429D01*
X564546Y511539D01*
X564516Y511649D01*
X564483Y511757D01*
X564446Y511864D01*
X564406Y511970D01*
X564361Y512074D01*
X564313Y512177D01*
X564262Y512278D01*
X564207Y512377D01*
X564149Y512474D01*
X564087Y512569D01*
X564022Y512662D01*
X563954Y512752D01*
X563883Y512840D01*
X563808Y512926D01*
X563731Y513009D01*
X563651Y513089D01*
X563568Y513166D01*
X563482Y513241D01*
X563394Y513312D01*
X563304Y513380D01*
X563211Y513445D01*
X563116Y513507D01*
X563019Y513565D01*
X562920Y513620D01*
X562819Y513671D01*
X562716Y513719D01*
X562612Y513764D01*
X562506Y513804D01*
X562399Y513841D01*
X562291Y513874D01*
X562181Y513904D01*
X562071Y513929D01*
X561960Y513951D01*
X561848Y513968D01*
X561735Y513982D01*
X561622Y513992D01*
X561509Y513998D01*
X561396Y514000D01*
X561396Y513999D02*
X556204Y513999D01*
X556204Y514000D02*
X556091Y513998D01*
X555978Y513992D01*
X555865Y513982D01*
X555752Y513968D01*
X555640Y513951D01*
X555529Y513929D01*
X555419Y513904D01*
X555309Y513874D01*
X555201Y513841D01*
X555094Y513804D01*
X554988Y513764D01*
X554884Y513719D01*
X554781Y513671D01*
X554680Y513620D01*
X554581Y513565D01*
X554484Y513507D01*
X554389Y513445D01*
X554296Y513380D01*
X554206Y513312D01*
X554118Y513241D01*
X554032Y513166D01*
X553949Y513089D01*
X553869Y513009D01*
X553792Y512926D01*
X553717Y512840D01*
X553646Y512752D01*
X553578Y512662D01*
X553513Y512569D01*
X553451Y512474D01*
X553393Y512377D01*
X553338Y512278D01*
X553287Y512177D01*
X553239Y512074D01*
X553194Y511970D01*
X553154Y511864D01*
X553117Y511757D01*
X553084Y511649D01*
X553054Y511539D01*
X553029Y511429D01*
X553007Y511318D01*
X552990Y511206D01*
X552976Y511093D01*
X552966Y510980D01*
X552960Y510867D01*
X552958Y510754D01*
X552958Y507508D01*
X552958Y519319D02*
X552958Y522565D01*
X552960Y522678D01*
X552966Y522791D01*
X552976Y522904D01*
X552990Y523017D01*
X553007Y523129D01*
X553029Y523240D01*
X553054Y523350D01*
X553084Y523460D01*
X553117Y523568D01*
X553154Y523675D01*
X553194Y523781D01*
X553239Y523885D01*
X553287Y523988D01*
X553338Y524089D01*
X553393Y524188D01*
X553451Y524285D01*
X553513Y524380D01*
X553578Y524473D01*
X553646Y524563D01*
X553717Y524651D01*
X553792Y524737D01*
X553869Y524820D01*
X553949Y524900D01*
X554032Y524977D01*
X554118Y525052D01*
X554206Y525123D01*
X554296Y525191D01*
X554389Y525256D01*
X554484Y525318D01*
X554581Y525376D01*
X554680Y525431D01*
X554781Y525482D01*
X554884Y525530D01*
X554988Y525575D01*
X555094Y525615D01*
X555201Y525652D01*
X555309Y525685D01*
X555419Y525715D01*
X555529Y525740D01*
X555640Y525762D01*
X555752Y525779D01*
X555865Y525793D01*
X555978Y525803D01*
X556091Y525809D01*
X556204Y525811D01*
X556317Y525809D01*
X556430Y525803D01*
X556543Y525793D01*
X556656Y525779D01*
X556768Y525762D01*
X556879Y525740D01*
X556989Y525715D01*
X557099Y525685D01*
X557207Y525652D01*
X557314Y525615D01*
X557420Y525575D01*
X557524Y525530D01*
X557627Y525482D01*
X557728Y525431D01*
X557827Y525376D01*
X557924Y525318D01*
X558019Y525256D01*
X558112Y525191D01*
X558202Y525123D01*
X558290Y525052D01*
X558376Y524977D01*
X558459Y524900D01*
X558539Y524820D01*
X558616Y524737D01*
X558691Y524651D01*
X558762Y524563D01*
X558830Y524473D01*
X558895Y524380D01*
X558957Y524285D01*
X559015Y524188D01*
X559070Y524089D01*
X559121Y523988D01*
X559169Y523885D01*
X559214Y523781D01*
X559254Y523675D01*
X559291Y523568D01*
X559324Y523460D01*
X559354Y523350D01*
X559379Y523240D01*
X559401Y523129D01*
X559418Y523017D01*
X559432Y522904D01*
X559442Y522791D01*
X559448Y522678D01*
X559450Y522565D01*
X564642Y523214D02*
X564642Y519319D01*
X564642Y523214D02*
X564640Y523315D01*
X564634Y523415D01*
X564624Y523515D01*
X564611Y523615D01*
X564593Y523714D01*
X564572Y523813D01*
X564547Y523910D01*
X564518Y524007D01*
X564485Y524102D01*
X564449Y524196D01*
X564409Y524288D01*
X564366Y524379D01*
X564319Y524468D01*
X564269Y524555D01*
X564215Y524641D01*
X564158Y524724D01*
X564098Y524804D01*
X564035Y524883D01*
X563968Y524959D01*
X563899Y525032D01*
X563827Y525102D01*
X563753Y525170D01*
X563676Y525235D01*
X563596Y525296D01*
X563514Y525355D01*
X563430Y525410D01*
X563344Y525462D01*
X563256Y525511D01*
X563166Y525556D01*
X563074Y525598D01*
X562981Y525636D01*
X562886Y525670D01*
X562791Y525701D01*
X562694Y525728D01*
X562596Y525751D01*
X562497Y525771D01*
X562397Y525786D01*
X562297Y525798D01*
X562197Y525806D01*
X562096Y525810D01*
X561996Y525810D01*
X561895Y525806D01*
X561795Y525798D01*
X561695Y525786D01*
X561595Y525771D01*
X561496Y525751D01*
X561398Y525728D01*
X561301Y525701D01*
X561206Y525670D01*
X561111Y525636D01*
X561018Y525598D01*
X560926Y525556D01*
X560836Y525511D01*
X560748Y525462D01*
X560662Y525410D01*
X560578Y525355D01*
X560496Y525296D01*
X560416Y525235D01*
X560339Y525170D01*
X560265Y525102D01*
X560193Y525032D01*
X560124Y524959D01*
X560057Y524883D01*
X559994Y524804D01*
X559934Y524724D01*
X559877Y524641D01*
X559823Y524555D01*
X559773Y524468D01*
X559726Y524379D01*
X559683Y524288D01*
X559643Y524196D01*
X559607Y524102D01*
X559574Y524007D01*
X559545Y523910D01*
X559520Y523813D01*
X559499Y523714D01*
X559481Y523615D01*
X559468Y523515D01*
X559458Y523415D01*
X559452Y523315D01*
X559450Y523214D01*
X559449Y523214D02*
X559449Y520617D01*
X539242Y507508D02*
X527558Y507508D01*
X539242Y507508D02*
X539242Y510754D01*
X539240Y510867D01*
X539234Y510980D01*
X539224Y511093D01*
X539210Y511206D01*
X539193Y511318D01*
X539171Y511429D01*
X539146Y511539D01*
X539116Y511649D01*
X539083Y511757D01*
X539046Y511864D01*
X539006Y511970D01*
X538961Y512074D01*
X538913Y512177D01*
X538862Y512278D01*
X538807Y512377D01*
X538749Y512474D01*
X538687Y512569D01*
X538622Y512662D01*
X538554Y512752D01*
X538483Y512840D01*
X538408Y512926D01*
X538331Y513009D01*
X538251Y513089D01*
X538168Y513166D01*
X538082Y513241D01*
X537994Y513312D01*
X537904Y513380D01*
X537811Y513445D01*
X537716Y513507D01*
X537619Y513565D01*
X537520Y513620D01*
X537419Y513671D01*
X537316Y513719D01*
X537212Y513764D01*
X537106Y513804D01*
X536999Y513841D01*
X536891Y513874D01*
X536781Y513904D01*
X536671Y513929D01*
X536560Y513951D01*
X536448Y513968D01*
X536335Y513982D01*
X536222Y513992D01*
X536109Y513998D01*
X535996Y514000D01*
X535996Y513999D02*
X530804Y513999D01*
X530804Y514000D02*
X530691Y513998D01*
X530578Y513992D01*
X530465Y513982D01*
X530352Y513968D01*
X530240Y513951D01*
X530129Y513929D01*
X530019Y513904D01*
X529909Y513874D01*
X529801Y513841D01*
X529694Y513804D01*
X529588Y513764D01*
X529484Y513719D01*
X529381Y513671D01*
X529280Y513620D01*
X529181Y513565D01*
X529084Y513507D01*
X528989Y513445D01*
X528896Y513380D01*
X528806Y513312D01*
X528718Y513241D01*
X528632Y513166D01*
X528549Y513089D01*
X528469Y513009D01*
X528392Y512926D01*
X528317Y512840D01*
X528246Y512752D01*
X528178Y512662D01*
X528113Y512569D01*
X528051Y512474D01*
X527993Y512377D01*
X527938Y512278D01*
X527887Y512177D01*
X527839Y512074D01*
X527794Y511970D01*
X527754Y511864D01*
X527717Y511757D01*
X527684Y511649D01*
X527654Y511539D01*
X527629Y511429D01*
X527607Y511318D01*
X527590Y511206D01*
X527576Y511093D01*
X527566Y510980D01*
X527560Y510867D01*
X527558Y510754D01*
X527558Y507508D01*
X530154Y519319D02*
X539242Y521915D01*
X530154Y519319D02*
X530154Y525810D01*
X532751Y523863D02*
X527558Y523863D01*
X513842Y507508D02*
X502158Y507508D01*
X513842Y507508D02*
X513842Y510754D01*
X513840Y510867D01*
X513834Y510980D01*
X513824Y511093D01*
X513810Y511206D01*
X513793Y511318D01*
X513771Y511429D01*
X513746Y511539D01*
X513716Y511649D01*
X513683Y511757D01*
X513646Y511864D01*
X513606Y511970D01*
X513561Y512074D01*
X513513Y512177D01*
X513462Y512278D01*
X513407Y512377D01*
X513349Y512474D01*
X513287Y512569D01*
X513222Y512662D01*
X513154Y512752D01*
X513083Y512840D01*
X513008Y512926D01*
X512931Y513009D01*
X512851Y513089D01*
X512768Y513166D01*
X512682Y513241D01*
X512594Y513312D01*
X512504Y513380D01*
X512411Y513445D01*
X512316Y513507D01*
X512219Y513565D01*
X512120Y513620D01*
X512019Y513671D01*
X511916Y513719D01*
X511812Y513764D01*
X511706Y513804D01*
X511599Y513841D01*
X511491Y513874D01*
X511381Y513904D01*
X511271Y513929D01*
X511160Y513951D01*
X511048Y513968D01*
X510935Y513982D01*
X510822Y513992D01*
X510709Y513998D01*
X510596Y514000D01*
X510596Y513999D02*
X505404Y513999D01*
X505404Y514000D02*
X505291Y513998D01*
X505178Y513992D01*
X505065Y513982D01*
X504952Y513968D01*
X504840Y513951D01*
X504729Y513929D01*
X504619Y513904D01*
X504509Y513874D01*
X504401Y513841D01*
X504294Y513804D01*
X504188Y513764D01*
X504084Y513719D01*
X503981Y513671D01*
X503880Y513620D01*
X503781Y513565D01*
X503684Y513507D01*
X503589Y513445D01*
X503496Y513380D01*
X503406Y513312D01*
X503318Y513241D01*
X503232Y513166D01*
X503149Y513089D01*
X503069Y513009D01*
X502992Y512926D01*
X502917Y512840D01*
X502846Y512752D01*
X502778Y512662D01*
X502713Y512569D01*
X502651Y512474D01*
X502593Y512377D01*
X502538Y512278D01*
X502487Y512177D01*
X502439Y512074D01*
X502394Y511970D01*
X502354Y511864D01*
X502317Y511757D01*
X502284Y511649D01*
X502254Y511539D01*
X502229Y511429D01*
X502207Y511318D01*
X502190Y511206D01*
X502176Y511093D01*
X502166Y510980D01*
X502160Y510867D01*
X502158Y510754D01*
X502158Y507508D01*
X502158Y519319D02*
X502158Y523214D01*
X502160Y523313D01*
X502166Y523413D01*
X502175Y523512D01*
X502188Y523610D01*
X502205Y523708D01*
X502226Y523806D01*
X502251Y523902D01*
X502279Y523997D01*
X502311Y524091D01*
X502346Y524184D01*
X502385Y524276D01*
X502428Y524366D01*
X502473Y524454D01*
X502523Y524541D01*
X502575Y524625D01*
X502631Y524708D01*
X502689Y524788D01*
X502751Y524866D01*
X502816Y524941D01*
X502884Y525014D01*
X502954Y525084D01*
X503027Y525152D01*
X503102Y525217D01*
X503180Y525279D01*
X503260Y525337D01*
X503343Y525393D01*
X503427Y525445D01*
X503514Y525495D01*
X503602Y525540D01*
X503692Y525583D01*
X503784Y525622D01*
X503877Y525657D01*
X503971Y525689D01*
X504066Y525717D01*
X504162Y525742D01*
X504260Y525763D01*
X504358Y525780D01*
X504456Y525793D01*
X504555Y525802D01*
X504655Y525808D01*
X504754Y525810D01*
X506053Y525810D01*
X506152Y525808D01*
X506252Y525802D01*
X506351Y525793D01*
X506449Y525780D01*
X506547Y525763D01*
X506645Y525742D01*
X506741Y525717D01*
X506836Y525689D01*
X506930Y525657D01*
X507023Y525622D01*
X507115Y525583D01*
X507205Y525540D01*
X507293Y525495D01*
X507380Y525445D01*
X507464Y525393D01*
X507547Y525337D01*
X507627Y525279D01*
X507705Y525217D01*
X507780Y525152D01*
X507853Y525084D01*
X507923Y525014D01*
X507991Y524941D01*
X508056Y524866D01*
X508118Y524788D01*
X508176Y524708D01*
X508232Y524625D01*
X508284Y524541D01*
X508334Y524454D01*
X508379Y524366D01*
X508422Y524276D01*
X508461Y524184D01*
X508496Y524091D01*
X508528Y523997D01*
X508556Y523902D01*
X508581Y523806D01*
X508602Y523708D01*
X508619Y523610D01*
X508632Y523512D01*
X508641Y523413D01*
X508647Y523313D01*
X508649Y523214D01*
X508649Y519319D01*
X513842Y519319D01*
X513842Y525810D01*
X488442Y507508D02*
X476758Y507508D01*
X488442Y507508D02*
X488442Y510754D01*
X488440Y510867D01*
X488434Y510980D01*
X488424Y511093D01*
X488410Y511206D01*
X488393Y511318D01*
X488371Y511429D01*
X488346Y511539D01*
X488316Y511649D01*
X488283Y511757D01*
X488246Y511864D01*
X488206Y511970D01*
X488161Y512074D01*
X488113Y512177D01*
X488062Y512278D01*
X488007Y512377D01*
X487949Y512474D01*
X487887Y512569D01*
X487822Y512662D01*
X487754Y512752D01*
X487683Y512840D01*
X487608Y512926D01*
X487531Y513009D01*
X487451Y513089D01*
X487368Y513166D01*
X487282Y513241D01*
X487194Y513312D01*
X487104Y513380D01*
X487011Y513445D01*
X486916Y513507D01*
X486819Y513565D01*
X486720Y513620D01*
X486619Y513671D01*
X486516Y513719D01*
X486412Y513764D01*
X486306Y513804D01*
X486199Y513841D01*
X486091Y513874D01*
X485981Y513904D01*
X485871Y513929D01*
X485760Y513951D01*
X485648Y513968D01*
X485535Y513982D01*
X485422Y513992D01*
X485309Y513998D01*
X485196Y514000D01*
X485196Y513999D02*
X480004Y513999D01*
X480004Y514000D02*
X479891Y513998D01*
X479778Y513992D01*
X479665Y513982D01*
X479552Y513968D01*
X479440Y513951D01*
X479329Y513929D01*
X479219Y513904D01*
X479109Y513874D01*
X479001Y513841D01*
X478894Y513804D01*
X478788Y513764D01*
X478684Y513719D01*
X478581Y513671D01*
X478480Y513620D01*
X478381Y513565D01*
X478284Y513507D01*
X478189Y513445D01*
X478096Y513380D01*
X478006Y513312D01*
X477918Y513241D01*
X477832Y513166D01*
X477749Y513089D01*
X477669Y513009D01*
X477592Y512926D01*
X477517Y512840D01*
X477446Y512752D01*
X477378Y512662D01*
X477313Y512569D01*
X477251Y512474D01*
X477193Y512377D01*
X477138Y512278D01*
X477087Y512177D01*
X477039Y512074D01*
X476994Y511970D01*
X476954Y511864D01*
X476917Y511757D01*
X476884Y511649D01*
X476854Y511539D01*
X476829Y511429D01*
X476807Y511318D01*
X476790Y511206D01*
X476776Y511093D01*
X476766Y510980D01*
X476760Y510867D01*
X476758Y510754D01*
X476758Y507508D01*
X483249Y519319D02*
X483249Y523214D01*
X483247Y523313D01*
X483241Y523413D01*
X483232Y523512D01*
X483219Y523610D01*
X483202Y523708D01*
X483181Y523806D01*
X483156Y523902D01*
X483128Y523997D01*
X483096Y524091D01*
X483061Y524184D01*
X483022Y524276D01*
X482979Y524366D01*
X482934Y524454D01*
X482884Y524541D01*
X482832Y524625D01*
X482776Y524708D01*
X482718Y524788D01*
X482656Y524866D01*
X482591Y524941D01*
X482523Y525014D01*
X482453Y525084D01*
X482380Y525152D01*
X482305Y525217D01*
X482227Y525279D01*
X482147Y525337D01*
X482064Y525393D01*
X481980Y525445D01*
X481893Y525495D01*
X481805Y525540D01*
X481715Y525583D01*
X481623Y525622D01*
X481530Y525657D01*
X481436Y525689D01*
X481341Y525717D01*
X481245Y525742D01*
X481147Y525763D01*
X481049Y525780D01*
X480951Y525793D01*
X480852Y525802D01*
X480752Y525808D01*
X480653Y525810D01*
X480004Y525810D01*
X480004Y525811D02*
X479891Y525809D01*
X479778Y525803D01*
X479665Y525793D01*
X479552Y525779D01*
X479440Y525762D01*
X479329Y525740D01*
X479219Y525715D01*
X479109Y525685D01*
X479001Y525652D01*
X478894Y525615D01*
X478788Y525575D01*
X478684Y525530D01*
X478581Y525482D01*
X478480Y525431D01*
X478381Y525376D01*
X478284Y525318D01*
X478189Y525256D01*
X478096Y525191D01*
X478006Y525123D01*
X477918Y525052D01*
X477832Y524977D01*
X477749Y524900D01*
X477669Y524820D01*
X477592Y524737D01*
X477517Y524651D01*
X477446Y524563D01*
X477378Y524473D01*
X477313Y524380D01*
X477251Y524285D01*
X477193Y524188D01*
X477138Y524089D01*
X477087Y523988D01*
X477039Y523885D01*
X476994Y523781D01*
X476954Y523675D01*
X476917Y523568D01*
X476884Y523460D01*
X476854Y523350D01*
X476829Y523240D01*
X476807Y523129D01*
X476790Y523017D01*
X476776Y522904D01*
X476766Y522791D01*
X476760Y522678D01*
X476758Y522565D01*
X476760Y522452D01*
X476766Y522339D01*
X476776Y522226D01*
X476790Y522113D01*
X476807Y522001D01*
X476829Y521890D01*
X476854Y521780D01*
X476884Y521670D01*
X476917Y521562D01*
X476954Y521455D01*
X476994Y521349D01*
X477039Y521245D01*
X477087Y521142D01*
X477138Y521041D01*
X477193Y520942D01*
X477251Y520845D01*
X477313Y520750D01*
X477378Y520657D01*
X477446Y520567D01*
X477517Y520479D01*
X477592Y520393D01*
X477669Y520310D01*
X477749Y520230D01*
X477832Y520153D01*
X477918Y520078D01*
X478006Y520007D01*
X478096Y519939D01*
X478189Y519874D01*
X478284Y519812D01*
X478381Y519754D01*
X478480Y519699D01*
X478581Y519648D01*
X478684Y519600D01*
X478788Y519555D01*
X478894Y519515D01*
X479001Y519478D01*
X479109Y519445D01*
X479219Y519415D01*
X479329Y519390D01*
X479440Y519368D01*
X479552Y519351D01*
X479665Y519337D01*
X479778Y519327D01*
X479891Y519321D01*
X480004Y519319D01*
X483249Y519319D01*
X483392Y519321D01*
X483535Y519327D01*
X483678Y519337D01*
X483820Y519351D01*
X483962Y519368D01*
X484104Y519390D01*
X484245Y519415D01*
X484385Y519445D01*
X484524Y519478D01*
X484662Y519515D01*
X484799Y519556D01*
X484935Y519600D01*
X485070Y519649D01*
X485203Y519701D01*
X485335Y519756D01*
X485465Y519816D01*
X485594Y519879D01*
X485721Y519945D01*
X485845Y520015D01*
X485968Y520088D01*
X486089Y520165D01*
X486208Y520245D01*
X486324Y520328D01*
X486439Y520414D01*
X486550Y520503D01*
X486660Y520596D01*
X486766Y520691D01*
X486870Y520790D01*
X486971Y520891D01*
X487070Y520995D01*
X487165Y521101D01*
X487258Y521211D01*
X487347Y521322D01*
X487433Y521437D01*
X487516Y521553D01*
X487596Y521672D01*
X487673Y521793D01*
X487746Y521915D01*
X487816Y522040D01*
X487882Y522167D01*
X487945Y522296D01*
X488005Y522426D01*
X488060Y522558D01*
X488112Y522691D01*
X488161Y522826D01*
X488205Y522962D01*
X488246Y523099D01*
X488283Y523237D01*
X488316Y523376D01*
X488346Y523516D01*
X488371Y523657D01*
X488393Y523799D01*
X488410Y523941D01*
X488424Y524083D01*
X488434Y524226D01*
X488440Y524369D01*
X488442Y524512D01*
X463042Y507508D02*
X451358Y507508D01*
X463042Y507508D02*
X463042Y510754D01*
X463040Y510867D01*
X463034Y510980D01*
X463024Y511093D01*
X463010Y511206D01*
X462993Y511318D01*
X462971Y511429D01*
X462946Y511539D01*
X462916Y511649D01*
X462883Y511757D01*
X462846Y511864D01*
X462806Y511970D01*
X462761Y512074D01*
X462713Y512177D01*
X462662Y512278D01*
X462607Y512377D01*
X462549Y512474D01*
X462487Y512569D01*
X462422Y512662D01*
X462354Y512752D01*
X462283Y512840D01*
X462208Y512926D01*
X462131Y513009D01*
X462051Y513089D01*
X461968Y513166D01*
X461882Y513241D01*
X461794Y513312D01*
X461704Y513380D01*
X461611Y513445D01*
X461516Y513507D01*
X461419Y513565D01*
X461320Y513620D01*
X461219Y513671D01*
X461116Y513719D01*
X461012Y513764D01*
X460906Y513804D01*
X460799Y513841D01*
X460691Y513874D01*
X460581Y513904D01*
X460471Y513929D01*
X460360Y513951D01*
X460248Y513968D01*
X460135Y513982D01*
X460022Y513992D01*
X459909Y513998D01*
X459796Y514000D01*
X459796Y513999D02*
X454604Y513999D01*
X454604Y514000D02*
X454491Y513998D01*
X454378Y513992D01*
X454265Y513982D01*
X454152Y513968D01*
X454040Y513951D01*
X453929Y513929D01*
X453819Y513904D01*
X453709Y513874D01*
X453601Y513841D01*
X453494Y513804D01*
X453388Y513764D01*
X453284Y513719D01*
X453181Y513671D01*
X453080Y513620D01*
X452981Y513565D01*
X452884Y513507D01*
X452789Y513445D01*
X452696Y513380D01*
X452606Y513312D01*
X452518Y513241D01*
X452432Y513166D01*
X452349Y513089D01*
X452269Y513009D01*
X452192Y512926D01*
X452117Y512840D01*
X452046Y512752D01*
X451978Y512662D01*
X451913Y512569D01*
X451851Y512474D01*
X451793Y512377D01*
X451738Y512278D01*
X451687Y512177D01*
X451639Y512074D01*
X451594Y511970D01*
X451554Y511864D01*
X451517Y511757D01*
X451484Y511649D01*
X451454Y511539D01*
X451429Y511429D01*
X451407Y511318D01*
X451390Y511206D01*
X451376Y511093D01*
X451366Y510980D01*
X451360Y510867D01*
X451358Y510754D01*
X451358Y507508D01*
X461744Y519319D02*
X463042Y519319D01*
X463042Y525810D01*
X451358Y522565D01*
X432449Y513999D02*
X432449Y512052D01*
X432449Y513999D02*
X425958Y513999D01*
X425958Y510104D01*
X425960Y510005D01*
X425966Y509905D01*
X425975Y509806D01*
X425988Y509708D01*
X426005Y509610D01*
X426026Y509512D01*
X426051Y509416D01*
X426079Y509321D01*
X426111Y509227D01*
X426146Y509134D01*
X426185Y509042D01*
X426228Y508952D01*
X426273Y508864D01*
X426323Y508777D01*
X426375Y508693D01*
X426431Y508610D01*
X426489Y508530D01*
X426551Y508452D01*
X426616Y508377D01*
X426684Y508304D01*
X426754Y508234D01*
X426827Y508166D01*
X426902Y508101D01*
X426980Y508039D01*
X427060Y507981D01*
X427143Y507925D01*
X427227Y507873D01*
X427314Y507823D01*
X427402Y507778D01*
X427492Y507735D01*
X427584Y507696D01*
X427677Y507661D01*
X427771Y507629D01*
X427866Y507601D01*
X427962Y507576D01*
X428060Y507555D01*
X428158Y507538D01*
X428256Y507525D01*
X428355Y507516D01*
X428455Y507510D01*
X428554Y507508D01*
X435046Y507508D01*
X435145Y507510D01*
X435245Y507516D01*
X435344Y507525D01*
X435442Y507538D01*
X435540Y507555D01*
X435638Y507576D01*
X435734Y507601D01*
X435829Y507629D01*
X435923Y507661D01*
X436016Y507696D01*
X436108Y507735D01*
X436198Y507778D01*
X436286Y507823D01*
X436373Y507873D01*
X436457Y507925D01*
X436540Y507981D01*
X436620Y508039D01*
X436698Y508101D01*
X436773Y508166D01*
X436846Y508234D01*
X436916Y508304D01*
X436984Y508377D01*
X437049Y508452D01*
X437111Y508530D01*
X437169Y508610D01*
X437225Y508693D01*
X437277Y508777D01*
X437327Y508864D01*
X437372Y508952D01*
X437415Y509042D01*
X437454Y509134D01*
X437489Y509226D01*
X437521Y509321D01*
X437549Y509416D01*
X437574Y509512D01*
X437595Y509610D01*
X437612Y509708D01*
X437625Y509806D01*
X437634Y509905D01*
X437640Y510005D01*
X437642Y510104D01*
X437642Y513999D01*
X437642Y519700D02*
X425958Y519700D01*
X425958Y526191D02*
X437642Y519700D01*
X437642Y526191D02*
X425958Y526191D01*
X425958Y531892D02*
X437642Y531892D01*
X437642Y535137D01*
X437640Y535250D01*
X437634Y535363D01*
X437624Y535476D01*
X437610Y535589D01*
X437593Y535701D01*
X437571Y535812D01*
X437546Y535922D01*
X437516Y536032D01*
X437483Y536140D01*
X437446Y536247D01*
X437406Y536353D01*
X437361Y536457D01*
X437313Y536560D01*
X437262Y536661D01*
X437207Y536760D01*
X437149Y536857D01*
X437087Y536952D01*
X437022Y537045D01*
X436954Y537135D01*
X436883Y537223D01*
X436808Y537309D01*
X436731Y537392D01*
X436651Y537472D01*
X436568Y537549D01*
X436482Y537624D01*
X436394Y537695D01*
X436304Y537763D01*
X436211Y537828D01*
X436116Y537890D01*
X436019Y537948D01*
X435920Y538003D01*
X435819Y538054D01*
X435716Y538102D01*
X435612Y538147D01*
X435506Y538187D01*
X435399Y538224D01*
X435291Y538257D01*
X435181Y538287D01*
X435071Y538312D01*
X434960Y538334D01*
X434848Y538351D01*
X434735Y538365D01*
X434622Y538375D01*
X434509Y538381D01*
X434396Y538383D01*
X429204Y538383D01*
X429091Y538381D01*
X428978Y538375D01*
X428865Y538365D01*
X428752Y538351D01*
X428640Y538334D01*
X428529Y538312D01*
X428419Y538287D01*
X428309Y538257D01*
X428201Y538224D01*
X428094Y538187D01*
X427988Y538147D01*
X427884Y538102D01*
X427781Y538054D01*
X427680Y538003D01*
X427581Y537948D01*
X427484Y537890D01*
X427389Y537828D01*
X427296Y537763D01*
X427206Y537695D01*
X427118Y537624D01*
X427032Y537549D01*
X426949Y537472D01*
X426869Y537392D01*
X426792Y537309D01*
X426717Y537223D01*
X426646Y537135D01*
X426578Y537045D01*
X426513Y536952D01*
X426451Y536857D01*
X426393Y536760D01*
X426338Y536661D01*
X426287Y536560D01*
X426239Y536457D01*
X426194Y536353D01*
X426154Y536247D01*
X426117Y536140D01*
X426084Y536032D01*
X426054Y535922D01*
X426029Y535812D01*
X426007Y535701D01*
X425990Y535589D01*
X425976Y535476D01*
X425966Y535363D01*
X425960Y535250D01*
X425958Y535137D01*
X425958Y531892D01*
X412242Y507508D02*
X400558Y511403D01*
X412242Y515297D01*
X407049Y520137D02*
X407049Y523383D01*
X407050Y523383D02*
X407048Y523496D01*
X407042Y523609D01*
X407032Y523722D01*
X407018Y523835D01*
X407001Y523947D01*
X406979Y524058D01*
X406954Y524168D01*
X406924Y524278D01*
X406891Y524386D01*
X406854Y524493D01*
X406814Y524599D01*
X406769Y524703D01*
X406721Y524806D01*
X406670Y524907D01*
X406615Y525006D01*
X406557Y525103D01*
X406495Y525198D01*
X406430Y525291D01*
X406362Y525381D01*
X406291Y525469D01*
X406216Y525555D01*
X406139Y525638D01*
X406059Y525718D01*
X405976Y525795D01*
X405890Y525870D01*
X405802Y525941D01*
X405712Y526009D01*
X405619Y526074D01*
X405524Y526136D01*
X405427Y526194D01*
X405328Y526249D01*
X405227Y526300D01*
X405124Y526348D01*
X405020Y526393D01*
X404914Y526433D01*
X404807Y526470D01*
X404699Y526503D01*
X404589Y526533D01*
X404479Y526558D01*
X404368Y526580D01*
X404256Y526597D01*
X404143Y526611D01*
X404030Y526621D01*
X403917Y526627D01*
X403804Y526629D01*
X403691Y526627D01*
X403578Y526621D01*
X403465Y526611D01*
X403352Y526597D01*
X403240Y526580D01*
X403129Y526558D01*
X403019Y526533D01*
X402909Y526503D01*
X402801Y526470D01*
X402694Y526433D01*
X402588Y526393D01*
X402484Y526348D01*
X402381Y526300D01*
X402280Y526249D01*
X402181Y526194D01*
X402084Y526136D01*
X401989Y526074D01*
X401896Y526009D01*
X401806Y525941D01*
X401718Y525870D01*
X401632Y525795D01*
X401549Y525718D01*
X401469Y525638D01*
X401392Y525555D01*
X401317Y525469D01*
X401246Y525381D01*
X401178Y525291D01*
X401113Y525198D01*
X401051Y525103D01*
X400993Y525006D01*
X400938Y524907D01*
X400887Y524806D01*
X400839Y524703D01*
X400794Y524599D01*
X400754Y524493D01*
X400717Y524386D01*
X400684Y524278D01*
X400654Y524168D01*
X400629Y524058D01*
X400607Y523947D01*
X400590Y523835D01*
X400576Y523722D01*
X400566Y523609D01*
X400560Y523496D01*
X400558Y523383D01*
X400558Y520137D01*
X412242Y520137D01*
X412242Y523383D01*
X412240Y523484D01*
X412234Y523584D01*
X412224Y523684D01*
X412211Y523784D01*
X412193Y523883D01*
X412172Y523982D01*
X412147Y524079D01*
X412118Y524176D01*
X412085Y524271D01*
X412049Y524365D01*
X412009Y524457D01*
X411966Y524548D01*
X411919Y524637D01*
X411869Y524724D01*
X411815Y524810D01*
X411758Y524893D01*
X411698Y524973D01*
X411635Y525052D01*
X411568Y525128D01*
X411499Y525201D01*
X411427Y525271D01*
X411353Y525339D01*
X411276Y525404D01*
X411196Y525465D01*
X411114Y525524D01*
X411030Y525579D01*
X410944Y525631D01*
X410856Y525680D01*
X410766Y525725D01*
X410674Y525767D01*
X410581Y525805D01*
X410486Y525839D01*
X410391Y525870D01*
X410294Y525897D01*
X410196Y525920D01*
X410097Y525940D01*
X409997Y525955D01*
X409897Y525967D01*
X409797Y525975D01*
X409696Y525979D01*
X409596Y525979D01*
X409495Y525975D01*
X409395Y525967D01*
X409295Y525955D01*
X409195Y525940D01*
X409096Y525920D01*
X408998Y525897D01*
X408901Y525870D01*
X408806Y525839D01*
X408711Y525805D01*
X408618Y525767D01*
X408526Y525725D01*
X408436Y525680D01*
X408348Y525631D01*
X408262Y525579D01*
X408178Y525524D01*
X408096Y525465D01*
X408016Y525404D01*
X407939Y525339D01*
X407865Y525271D01*
X407793Y525201D01*
X407724Y525128D01*
X407657Y525052D01*
X407594Y524973D01*
X407534Y524893D01*
X407477Y524810D01*
X407423Y524724D01*
X407373Y524637D01*
X407326Y524548D01*
X407283Y524457D01*
X407243Y524365D01*
X407207Y524271D01*
X407174Y524176D01*
X407145Y524079D01*
X407120Y523982D01*
X407099Y523883D01*
X407081Y523784D01*
X407068Y523684D01*
X407058Y523584D01*
X407052Y523484D01*
X407050Y523383D01*
X400558Y530368D02*
X412242Y534263D01*
X400558Y538157D01*
X403479Y537184D02*
X403479Y531342D01*
X400558Y544931D02*
X412242Y544931D01*
X412242Y548176D02*
X412242Y541685D01*
X386842Y507508D02*
X375158Y507508D01*
X386842Y507508D02*
X386842Y510754D01*
X386840Y510867D01*
X386834Y510980D01*
X386824Y511093D01*
X386810Y511206D01*
X386793Y511318D01*
X386771Y511429D01*
X386746Y511539D01*
X386716Y511649D01*
X386683Y511757D01*
X386646Y511864D01*
X386606Y511970D01*
X386561Y512074D01*
X386513Y512177D01*
X386462Y512278D01*
X386407Y512377D01*
X386349Y512474D01*
X386287Y512569D01*
X386222Y512662D01*
X386154Y512752D01*
X386083Y512840D01*
X386008Y512926D01*
X385931Y513009D01*
X385851Y513089D01*
X385768Y513166D01*
X385682Y513241D01*
X385594Y513312D01*
X385504Y513380D01*
X385411Y513445D01*
X385316Y513507D01*
X385219Y513565D01*
X385120Y513620D01*
X385019Y513671D01*
X384916Y513719D01*
X384812Y513764D01*
X384706Y513804D01*
X384599Y513841D01*
X384491Y513874D01*
X384381Y513904D01*
X384271Y513929D01*
X384160Y513951D01*
X384048Y513968D01*
X383935Y513982D01*
X383822Y513992D01*
X383709Y513998D01*
X383596Y514000D01*
X383483Y513998D01*
X383370Y513992D01*
X383257Y513982D01*
X383144Y513968D01*
X383032Y513951D01*
X382921Y513929D01*
X382811Y513904D01*
X382701Y513874D01*
X382593Y513841D01*
X382486Y513804D01*
X382380Y513764D01*
X382276Y513719D01*
X382173Y513671D01*
X382072Y513620D01*
X381973Y513565D01*
X381876Y513507D01*
X381781Y513445D01*
X381688Y513380D01*
X381598Y513312D01*
X381510Y513241D01*
X381424Y513166D01*
X381341Y513089D01*
X381261Y513009D01*
X381184Y512926D01*
X381109Y512840D01*
X381038Y512752D01*
X380970Y512662D01*
X380905Y512569D01*
X380843Y512474D01*
X380785Y512377D01*
X380730Y512278D01*
X380679Y512177D01*
X380631Y512074D01*
X380586Y511970D01*
X380546Y511864D01*
X380509Y511757D01*
X380476Y511649D01*
X380446Y511539D01*
X380421Y511429D01*
X380399Y511318D01*
X380382Y511206D01*
X380368Y511093D01*
X380358Y510980D01*
X380352Y510867D01*
X380350Y510754D01*
X380351Y510754D02*
X380351Y507508D01*
X380351Y511403D02*
X375158Y513999D01*
X375158Y522378D02*
X375160Y522477D01*
X375166Y522577D01*
X375175Y522676D01*
X375188Y522774D01*
X375205Y522872D01*
X375226Y522970D01*
X375251Y523066D01*
X375279Y523161D01*
X375311Y523255D01*
X375346Y523348D01*
X375385Y523440D01*
X375428Y523530D01*
X375473Y523618D01*
X375523Y523705D01*
X375575Y523789D01*
X375631Y523872D01*
X375689Y523952D01*
X375751Y524030D01*
X375816Y524105D01*
X375884Y524178D01*
X375954Y524248D01*
X376027Y524316D01*
X376102Y524381D01*
X376180Y524443D01*
X376260Y524501D01*
X376343Y524557D01*
X376427Y524609D01*
X376514Y524659D01*
X376602Y524704D01*
X376692Y524747D01*
X376784Y524786D01*
X376877Y524821D01*
X376971Y524853D01*
X377066Y524881D01*
X377162Y524906D01*
X377260Y524927D01*
X377358Y524944D01*
X377456Y524957D01*
X377555Y524966D01*
X377655Y524972D01*
X377754Y524974D01*
X375158Y522378D02*
X375160Y522234D01*
X375166Y522089D01*
X375175Y521945D01*
X375188Y521802D01*
X375205Y521658D01*
X375226Y521515D01*
X375251Y521373D01*
X375279Y521232D01*
X375311Y521091D01*
X375347Y520951D01*
X375386Y520812D01*
X375429Y520674D01*
X375476Y520538D01*
X375526Y520402D01*
X375580Y520268D01*
X375637Y520136D01*
X375698Y520005D01*
X375762Y519876D01*
X375830Y519748D01*
X375900Y519622D01*
X375975Y519498D01*
X376052Y519377D01*
X376133Y519257D01*
X376216Y519139D01*
X376303Y519024D01*
X376393Y518911D01*
X376486Y518800D01*
X376581Y518692D01*
X376680Y518586D01*
X376781Y518483D01*
X384246Y518808D02*
X384345Y518810D01*
X384445Y518816D01*
X384544Y518825D01*
X384642Y518838D01*
X384740Y518855D01*
X384838Y518876D01*
X384934Y518901D01*
X385029Y518929D01*
X385123Y518961D01*
X385216Y518996D01*
X385308Y519035D01*
X385398Y519078D01*
X385486Y519123D01*
X385573Y519173D01*
X385657Y519225D01*
X385740Y519281D01*
X385820Y519339D01*
X385898Y519401D01*
X385973Y519466D01*
X386046Y519534D01*
X386116Y519604D01*
X386184Y519677D01*
X386249Y519752D01*
X386311Y519830D01*
X386369Y519910D01*
X386425Y519993D01*
X386477Y520077D01*
X386527Y520164D01*
X386572Y520252D01*
X386615Y520342D01*
X386654Y520434D01*
X386689Y520527D01*
X386721Y520621D01*
X386749Y520716D01*
X386774Y520813D01*
X386795Y520910D01*
X386812Y521008D01*
X386825Y521106D01*
X386834Y521205D01*
X386840Y521305D01*
X386842Y521404D01*
X386840Y521540D01*
X386834Y521676D01*
X386825Y521812D01*
X386812Y521948D01*
X386794Y522083D01*
X386774Y522217D01*
X386749Y522351D01*
X386721Y522485D01*
X386688Y522617D01*
X386653Y522748D01*
X386613Y522879D01*
X386570Y523008D01*
X386524Y523136D01*
X386473Y523262D01*
X386420Y523388D01*
X386362Y523511D01*
X386302Y523633D01*
X386238Y523753D01*
X386170Y523872D01*
X386100Y523988D01*
X386026Y524102D01*
X385949Y524215D01*
X385868Y524325D01*
X381974Y520106D02*
X382027Y520020D01*
X382084Y519936D01*
X382143Y519854D01*
X382206Y519774D01*
X382272Y519697D01*
X382340Y519622D01*
X382412Y519550D01*
X382486Y519481D01*
X382563Y519415D01*
X382642Y519352D01*
X382724Y519292D01*
X382808Y519235D01*
X382894Y519181D01*
X382982Y519131D01*
X383072Y519084D01*
X383163Y519040D01*
X383257Y519001D01*
X383351Y518964D01*
X383447Y518932D01*
X383545Y518903D01*
X383643Y518878D01*
X383742Y518857D01*
X383842Y518839D01*
X383942Y518826D01*
X384043Y518816D01*
X384145Y518810D01*
X384246Y518808D01*
X380026Y523676D02*
X379973Y523762D01*
X379916Y523846D01*
X379857Y523928D01*
X379794Y524008D01*
X379728Y524085D01*
X379660Y524160D01*
X379588Y524232D01*
X379514Y524301D01*
X379437Y524367D01*
X379358Y524430D01*
X379276Y524490D01*
X379192Y524547D01*
X379106Y524601D01*
X379018Y524651D01*
X378928Y524698D01*
X378837Y524742D01*
X378743Y524781D01*
X378649Y524818D01*
X378553Y524850D01*
X378455Y524879D01*
X378357Y524904D01*
X378258Y524925D01*
X378158Y524943D01*
X378058Y524956D01*
X377957Y524966D01*
X377855Y524972D01*
X377754Y524974D01*
X380026Y523676D02*
X381974Y520106D01*
X386842Y532016D02*
X375158Y532016D01*
X386842Y528770D02*
X386842Y535261D01*
X349758Y510754D02*
X349758Y507508D01*
X349758Y510754D02*
X349760Y510867D01*
X349766Y510980D01*
X349776Y511093D01*
X349790Y511206D01*
X349807Y511318D01*
X349829Y511429D01*
X349854Y511539D01*
X349884Y511649D01*
X349917Y511757D01*
X349954Y511864D01*
X349994Y511970D01*
X350039Y512074D01*
X350087Y512177D01*
X350138Y512278D01*
X350193Y512377D01*
X350251Y512474D01*
X350313Y512569D01*
X350378Y512662D01*
X350446Y512752D01*
X350517Y512840D01*
X350592Y512926D01*
X350669Y513009D01*
X350749Y513089D01*
X350832Y513166D01*
X350918Y513241D01*
X351006Y513312D01*
X351096Y513380D01*
X351189Y513445D01*
X351284Y513507D01*
X351381Y513565D01*
X351480Y513620D01*
X351581Y513671D01*
X351684Y513719D01*
X351788Y513764D01*
X351894Y513804D01*
X352001Y513841D01*
X352109Y513874D01*
X352219Y513904D01*
X352329Y513929D01*
X352440Y513951D01*
X352552Y513968D01*
X352665Y513982D01*
X352778Y513992D01*
X352891Y513998D01*
X353004Y514000D01*
X353117Y513998D01*
X353230Y513992D01*
X353343Y513982D01*
X353456Y513968D01*
X353568Y513951D01*
X353679Y513929D01*
X353789Y513904D01*
X353899Y513874D01*
X354007Y513841D01*
X354114Y513804D01*
X354220Y513764D01*
X354324Y513719D01*
X354427Y513671D01*
X354528Y513620D01*
X354627Y513565D01*
X354724Y513507D01*
X354819Y513445D01*
X354912Y513380D01*
X355002Y513312D01*
X355090Y513241D01*
X355176Y513166D01*
X355259Y513089D01*
X355339Y513009D01*
X355416Y512926D01*
X355491Y512840D01*
X355562Y512752D01*
X355630Y512662D01*
X355695Y512569D01*
X355757Y512474D01*
X355815Y512377D01*
X355870Y512278D01*
X355921Y512177D01*
X355969Y512074D01*
X356014Y511970D01*
X356054Y511864D01*
X356091Y511757D01*
X356124Y511649D01*
X356154Y511539D01*
X356179Y511429D01*
X356201Y511318D01*
X356218Y511206D01*
X356232Y511093D01*
X356242Y510980D01*
X356248Y510867D01*
X356250Y510754D01*
X361442Y511403D02*
X361442Y507508D01*
X361442Y511403D02*
X361440Y511504D01*
X361434Y511604D01*
X361424Y511704D01*
X361411Y511804D01*
X361393Y511903D01*
X361372Y512002D01*
X361347Y512099D01*
X361318Y512196D01*
X361285Y512291D01*
X361249Y512385D01*
X361209Y512477D01*
X361166Y512568D01*
X361119Y512657D01*
X361069Y512744D01*
X361015Y512830D01*
X360958Y512913D01*
X360898Y512993D01*
X360835Y513072D01*
X360768Y513148D01*
X360699Y513221D01*
X360627Y513291D01*
X360553Y513359D01*
X360476Y513424D01*
X360396Y513485D01*
X360314Y513544D01*
X360230Y513599D01*
X360144Y513651D01*
X360056Y513700D01*
X359966Y513745D01*
X359874Y513787D01*
X359781Y513825D01*
X359686Y513859D01*
X359591Y513890D01*
X359494Y513917D01*
X359396Y513940D01*
X359297Y513960D01*
X359197Y513975D01*
X359097Y513987D01*
X358997Y513995D01*
X358896Y513999D01*
X358796Y513999D01*
X358695Y513995D01*
X358595Y513987D01*
X358495Y513975D01*
X358395Y513960D01*
X358296Y513940D01*
X358198Y513917D01*
X358101Y513890D01*
X358006Y513859D01*
X357911Y513825D01*
X357818Y513787D01*
X357726Y513745D01*
X357636Y513700D01*
X357548Y513651D01*
X357462Y513599D01*
X357378Y513544D01*
X357296Y513485D01*
X357216Y513424D01*
X357139Y513359D01*
X357065Y513291D01*
X356993Y513221D01*
X356924Y513148D01*
X356857Y513072D01*
X356794Y512993D01*
X356734Y512913D01*
X356677Y512830D01*
X356623Y512744D01*
X356573Y512657D01*
X356526Y512568D01*
X356483Y512477D01*
X356443Y512385D01*
X356407Y512291D01*
X356374Y512196D01*
X356345Y512099D01*
X356320Y512002D01*
X356299Y511903D01*
X356281Y511804D01*
X356268Y511704D01*
X356258Y511604D01*
X356252Y511504D01*
X356250Y511403D01*
X356249Y511403D02*
X356249Y508806D01*
X361442Y518289D02*
X349758Y522184D01*
X361442Y526078D01*
X349758Y530368D02*
X349758Y533614D01*
X349760Y533727D01*
X349766Y533840D01*
X349776Y533953D01*
X349790Y534066D01*
X349807Y534178D01*
X349829Y534289D01*
X349854Y534399D01*
X349884Y534509D01*
X349917Y534617D01*
X349954Y534724D01*
X349994Y534830D01*
X350039Y534934D01*
X350087Y535037D01*
X350138Y535138D01*
X350193Y535237D01*
X350251Y535334D01*
X350313Y535429D01*
X350378Y535522D01*
X350446Y535612D01*
X350517Y535700D01*
X350592Y535786D01*
X350669Y535869D01*
X350749Y535949D01*
X350832Y536026D01*
X350918Y536101D01*
X351006Y536172D01*
X351096Y536240D01*
X351189Y536305D01*
X351284Y536367D01*
X351381Y536425D01*
X351480Y536480D01*
X351581Y536531D01*
X351684Y536579D01*
X351788Y536624D01*
X351894Y536664D01*
X352001Y536701D01*
X352109Y536734D01*
X352219Y536764D01*
X352329Y536789D01*
X352440Y536811D01*
X352552Y536828D01*
X352665Y536842D01*
X352778Y536852D01*
X352891Y536858D01*
X353004Y536860D01*
X353117Y536858D01*
X353230Y536852D01*
X353343Y536842D01*
X353456Y536828D01*
X353568Y536811D01*
X353679Y536789D01*
X353789Y536764D01*
X353899Y536734D01*
X354007Y536701D01*
X354114Y536664D01*
X354220Y536624D01*
X354324Y536579D01*
X354427Y536531D01*
X354528Y536480D01*
X354627Y536425D01*
X354724Y536367D01*
X354819Y536305D01*
X354912Y536240D01*
X355002Y536172D01*
X355090Y536101D01*
X355176Y536026D01*
X355259Y535949D01*
X355339Y535869D01*
X355416Y535786D01*
X355491Y535700D01*
X355562Y535612D01*
X355630Y535522D01*
X355695Y535429D01*
X355757Y535334D01*
X355815Y535237D01*
X355870Y535138D01*
X355921Y535037D01*
X355969Y534934D01*
X356014Y534830D01*
X356054Y534724D01*
X356091Y534617D01*
X356124Y534509D01*
X356154Y534399D01*
X356179Y534289D01*
X356201Y534178D01*
X356218Y534066D01*
X356232Y533953D01*
X356242Y533840D01*
X356248Y533727D01*
X356250Y533614D01*
X361442Y534263D02*
X361442Y530368D01*
X361442Y534263D02*
X361440Y534364D01*
X361434Y534464D01*
X361424Y534564D01*
X361411Y534664D01*
X361393Y534763D01*
X361372Y534862D01*
X361347Y534959D01*
X361318Y535056D01*
X361285Y535151D01*
X361249Y535245D01*
X361209Y535337D01*
X361166Y535428D01*
X361119Y535517D01*
X361069Y535604D01*
X361015Y535690D01*
X360958Y535773D01*
X360898Y535853D01*
X360835Y535932D01*
X360768Y536008D01*
X360699Y536081D01*
X360627Y536151D01*
X360553Y536219D01*
X360476Y536284D01*
X360396Y536345D01*
X360314Y536404D01*
X360230Y536459D01*
X360144Y536511D01*
X360056Y536560D01*
X359966Y536605D01*
X359874Y536647D01*
X359781Y536685D01*
X359686Y536719D01*
X359591Y536750D01*
X359494Y536777D01*
X359396Y536800D01*
X359297Y536820D01*
X359197Y536835D01*
X359097Y536847D01*
X358997Y536855D01*
X358896Y536859D01*
X358796Y536859D01*
X358695Y536855D01*
X358595Y536847D01*
X358495Y536835D01*
X358395Y536820D01*
X358296Y536800D01*
X358198Y536777D01*
X358101Y536750D01*
X358006Y536719D01*
X357911Y536685D01*
X357818Y536647D01*
X357726Y536605D01*
X357636Y536560D01*
X357548Y536511D01*
X357462Y536459D01*
X357378Y536404D01*
X357296Y536345D01*
X357216Y536284D01*
X357139Y536219D01*
X357065Y536151D01*
X356993Y536081D01*
X356924Y536008D01*
X356857Y535932D01*
X356794Y535853D01*
X356734Y535773D01*
X356677Y535690D01*
X356623Y535604D01*
X356573Y535517D01*
X356526Y535428D01*
X356483Y535337D01*
X356443Y535245D01*
X356407Y535151D01*
X356374Y535056D01*
X356345Y534959D01*
X356320Y534862D01*
X356299Y534763D01*
X356281Y534664D01*
X356268Y534564D01*
X356258Y534464D01*
X356252Y534364D01*
X356250Y534263D01*
X356249Y534263D02*
X356249Y531666D01*
D10*
X342900Y304800D02*
X342900Y279400D01*
X342900Y304800D02*
X622300Y304800D01*
X647700Y294640D02*
X647700Y279400D01*
X342900Y457200D02*
X342900Y482600D01*
X342900Y457200D02*
X647700Y457200D01*
X647700Y482600D01*
X647700Y304800D02*
X647700Y294640D01*
X647700Y304800D02*
X622300Y304800D01*
X355600Y198120D02*
X355600Y160020D01*
X355600Y198120D02*
X406400Y198120D01*
X406400Y160020D01*
X355600Y160020D01*
X358775Y191770D02*
X358777Y191882D01*
X358783Y191994D01*
X358793Y192106D01*
X358807Y192217D01*
X358824Y192327D01*
X358846Y192437D01*
X358871Y192547D01*
X358901Y192655D01*
X358934Y192762D01*
X358971Y192868D01*
X359011Y192972D01*
X359056Y193075D01*
X359103Y193176D01*
X359155Y193276D01*
X359210Y193374D01*
X359268Y193469D01*
X359330Y193563D01*
X359395Y193654D01*
X359463Y193743D01*
X359534Y193830D01*
X359608Y193914D01*
X359685Y193995D01*
X359765Y194074D01*
X359848Y194149D01*
X359933Y194222D01*
X360021Y194292D01*
X360111Y194358D01*
X360204Y194422D01*
X360298Y194482D01*
X360395Y194538D01*
X360494Y194591D01*
X360594Y194641D01*
X360696Y194687D01*
X360800Y194729D01*
X360905Y194768D01*
X361012Y194803D01*
X361119Y194834D01*
X361228Y194862D01*
X361337Y194885D01*
X361448Y194905D01*
X361559Y194921D01*
X361670Y194933D01*
X361782Y194941D01*
X361894Y194945D01*
X362006Y194945D01*
X362118Y194941D01*
X362230Y194933D01*
X362341Y194921D01*
X362452Y194905D01*
X362563Y194885D01*
X362672Y194862D01*
X362781Y194834D01*
X362888Y194803D01*
X362995Y194768D01*
X363100Y194729D01*
X363204Y194687D01*
X363306Y194641D01*
X363406Y194591D01*
X363505Y194538D01*
X363602Y194482D01*
X363696Y194422D01*
X363789Y194358D01*
X363879Y194292D01*
X363967Y194222D01*
X364052Y194149D01*
X364135Y194074D01*
X364215Y193995D01*
X364292Y193914D01*
X364366Y193830D01*
X364437Y193743D01*
X364505Y193654D01*
X364570Y193563D01*
X364632Y193469D01*
X364690Y193374D01*
X364745Y193276D01*
X364797Y193176D01*
X364844Y193075D01*
X364889Y192972D01*
X364929Y192868D01*
X364966Y192762D01*
X364999Y192655D01*
X365029Y192547D01*
X365054Y192437D01*
X365076Y192327D01*
X365093Y192217D01*
X365107Y192106D01*
X365117Y191994D01*
X365123Y191882D01*
X365125Y191770D01*
X365123Y191658D01*
X365117Y191546D01*
X365107Y191434D01*
X365093Y191323D01*
X365076Y191213D01*
X365054Y191103D01*
X365029Y190993D01*
X364999Y190885D01*
X364966Y190778D01*
X364929Y190672D01*
X364889Y190568D01*
X364844Y190465D01*
X364797Y190364D01*
X364745Y190264D01*
X364690Y190166D01*
X364632Y190071D01*
X364570Y189977D01*
X364505Y189886D01*
X364437Y189797D01*
X364366Y189710D01*
X364292Y189626D01*
X364215Y189545D01*
X364135Y189466D01*
X364052Y189391D01*
X363967Y189318D01*
X363879Y189248D01*
X363789Y189182D01*
X363696Y189118D01*
X363602Y189058D01*
X363505Y189002D01*
X363406Y188949D01*
X363306Y188899D01*
X363204Y188853D01*
X363100Y188811D01*
X362995Y188772D01*
X362888Y188737D01*
X362781Y188706D01*
X362672Y188678D01*
X362563Y188655D01*
X362452Y188635D01*
X362341Y188619D01*
X362230Y188607D01*
X362118Y188599D01*
X362006Y188595D01*
X361894Y188595D01*
X361782Y188599D01*
X361670Y188607D01*
X361559Y188619D01*
X361448Y188635D01*
X361337Y188655D01*
X361228Y188678D01*
X361119Y188706D01*
X361012Y188737D01*
X360905Y188772D01*
X360800Y188811D01*
X360696Y188853D01*
X360594Y188899D01*
X360494Y188949D01*
X360395Y189002D01*
X360298Y189058D01*
X360204Y189118D01*
X360111Y189182D01*
X360021Y189248D01*
X359933Y189318D01*
X359848Y189391D01*
X359765Y189466D01*
X359685Y189545D01*
X359608Y189626D01*
X359534Y189710D01*
X359463Y189797D01*
X359395Y189886D01*
X359330Y189977D01*
X359268Y190071D01*
X359210Y190166D01*
X359155Y190264D01*
X359103Y190364D01*
X359056Y190465D01*
X359011Y190568D01*
X358971Y190672D01*
X358934Y190778D01*
X358901Y190885D01*
X358871Y190993D01*
X358846Y191103D01*
X358824Y191213D01*
X358807Y191323D01*
X358793Y191434D01*
X358783Y191546D01*
X358777Y191658D01*
X358775Y191770D01*
D12*
X364200Y133350D02*
X372400Y133350D01*
X372400Y120650D02*
X364200Y120650D01*
D13*
X360986Y127015D03*
X375718Y127015D03*
D11*
X374142Y140208D02*
X374142Y151892D01*
X370896Y151892D01*
X370783Y151890D01*
X370670Y151884D01*
X370557Y151874D01*
X370444Y151860D01*
X370332Y151843D01*
X370221Y151821D01*
X370111Y151796D01*
X370001Y151766D01*
X369893Y151733D01*
X369786Y151696D01*
X369680Y151656D01*
X369576Y151611D01*
X369473Y151563D01*
X369372Y151512D01*
X369273Y151457D01*
X369176Y151399D01*
X369081Y151337D01*
X368988Y151272D01*
X368898Y151204D01*
X368810Y151133D01*
X368724Y151058D01*
X368641Y150981D01*
X368561Y150901D01*
X368484Y150818D01*
X368409Y150732D01*
X368338Y150644D01*
X368270Y150554D01*
X368205Y150461D01*
X368143Y150366D01*
X368085Y150269D01*
X368030Y150170D01*
X367979Y150069D01*
X367931Y149966D01*
X367886Y149862D01*
X367846Y149756D01*
X367809Y149649D01*
X367776Y149541D01*
X367746Y149431D01*
X367721Y149321D01*
X367699Y149210D01*
X367682Y149098D01*
X367668Y148985D01*
X367658Y148872D01*
X367652Y148759D01*
X367650Y148646D01*
X367652Y148533D01*
X367658Y148420D01*
X367668Y148307D01*
X367682Y148194D01*
X367699Y148082D01*
X367721Y147971D01*
X367746Y147861D01*
X367776Y147751D01*
X367809Y147643D01*
X367846Y147536D01*
X367886Y147430D01*
X367931Y147326D01*
X367979Y147223D01*
X368030Y147122D01*
X368085Y147023D01*
X368143Y146926D01*
X368205Y146831D01*
X368270Y146738D01*
X368338Y146648D01*
X368409Y146560D01*
X368484Y146474D01*
X368561Y146391D01*
X368641Y146311D01*
X368724Y146234D01*
X368810Y146159D01*
X368898Y146088D01*
X368988Y146020D01*
X369081Y145955D01*
X369176Y145893D01*
X369273Y145835D01*
X369372Y145780D01*
X369473Y145729D01*
X369576Y145681D01*
X369680Y145636D01*
X369786Y145596D01*
X369893Y145559D01*
X370001Y145526D01*
X370111Y145496D01*
X370221Y145471D01*
X370332Y145449D01*
X370444Y145432D01*
X370557Y145418D01*
X370670Y145408D01*
X370783Y145402D01*
X370896Y145400D01*
X370896Y145401D02*
X374142Y145401D01*
X370247Y145401D02*
X367651Y140208D01*
X362786Y149296D02*
X359540Y151892D01*
X359540Y140208D01*
X356295Y140208D02*
X362786Y140208D01*
D10*
X567690Y175260D02*
X567690Y213360D01*
X618490Y213360D01*
X618490Y175260D01*
X567690Y175260D01*
X570865Y207010D02*
X570867Y207122D01*
X570873Y207234D01*
X570883Y207346D01*
X570897Y207457D01*
X570914Y207567D01*
X570936Y207677D01*
X570961Y207787D01*
X570991Y207895D01*
X571024Y208002D01*
X571061Y208108D01*
X571101Y208212D01*
X571146Y208315D01*
X571193Y208416D01*
X571245Y208516D01*
X571300Y208614D01*
X571358Y208709D01*
X571420Y208803D01*
X571485Y208894D01*
X571553Y208983D01*
X571624Y209070D01*
X571698Y209154D01*
X571775Y209235D01*
X571855Y209314D01*
X571938Y209389D01*
X572023Y209462D01*
X572111Y209532D01*
X572201Y209598D01*
X572294Y209662D01*
X572388Y209722D01*
X572485Y209778D01*
X572584Y209831D01*
X572684Y209881D01*
X572786Y209927D01*
X572890Y209969D01*
X572995Y210008D01*
X573102Y210043D01*
X573209Y210074D01*
X573318Y210102D01*
X573427Y210125D01*
X573538Y210145D01*
X573649Y210161D01*
X573760Y210173D01*
X573872Y210181D01*
X573984Y210185D01*
X574096Y210185D01*
X574208Y210181D01*
X574320Y210173D01*
X574431Y210161D01*
X574542Y210145D01*
X574653Y210125D01*
X574762Y210102D01*
X574871Y210074D01*
X574978Y210043D01*
X575085Y210008D01*
X575190Y209969D01*
X575294Y209927D01*
X575396Y209881D01*
X575496Y209831D01*
X575595Y209778D01*
X575692Y209722D01*
X575786Y209662D01*
X575879Y209598D01*
X575969Y209532D01*
X576057Y209462D01*
X576142Y209389D01*
X576225Y209314D01*
X576305Y209235D01*
X576382Y209154D01*
X576456Y209070D01*
X576527Y208983D01*
X576595Y208894D01*
X576660Y208803D01*
X576722Y208709D01*
X576780Y208614D01*
X576835Y208516D01*
X576887Y208416D01*
X576934Y208315D01*
X576979Y208212D01*
X577019Y208108D01*
X577056Y208002D01*
X577089Y207895D01*
X577119Y207787D01*
X577144Y207677D01*
X577166Y207567D01*
X577183Y207457D01*
X577197Y207346D01*
X577207Y207234D01*
X577213Y207122D01*
X577215Y207010D01*
X577213Y206898D01*
X577207Y206786D01*
X577197Y206674D01*
X577183Y206563D01*
X577166Y206453D01*
X577144Y206343D01*
X577119Y206233D01*
X577089Y206125D01*
X577056Y206018D01*
X577019Y205912D01*
X576979Y205808D01*
X576934Y205705D01*
X576887Y205604D01*
X576835Y205504D01*
X576780Y205406D01*
X576722Y205311D01*
X576660Y205217D01*
X576595Y205126D01*
X576527Y205037D01*
X576456Y204950D01*
X576382Y204866D01*
X576305Y204785D01*
X576225Y204706D01*
X576142Y204631D01*
X576057Y204558D01*
X575969Y204488D01*
X575879Y204422D01*
X575786Y204358D01*
X575692Y204298D01*
X575595Y204242D01*
X575496Y204189D01*
X575396Y204139D01*
X575294Y204093D01*
X575190Y204051D01*
X575085Y204012D01*
X574978Y203977D01*
X574871Y203946D01*
X574762Y203918D01*
X574653Y203895D01*
X574542Y203875D01*
X574431Y203859D01*
X574320Y203847D01*
X574208Y203839D01*
X574096Y203835D01*
X573984Y203835D01*
X573872Y203839D01*
X573760Y203847D01*
X573649Y203859D01*
X573538Y203875D01*
X573427Y203895D01*
X573318Y203918D01*
X573209Y203946D01*
X573102Y203977D01*
X572995Y204012D01*
X572890Y204051D01*
X572786Y204093D01*
X572684Y204139D01*
X572584Y204189D01*
X572485Y204242D01*
X572388Y204298D01*
X572294Y204358D01*
X572201Y204422D01*
X572111Y204488D01*
X572023Y204558D01*
X571938Y204631D01*
X571855Y204706D01*
X571775Y204785D01*
X571698Y204866D01*
X571624Y204950D01*
X571553Y205037D01*
X571485Y205126D01*
X571420Y205217D01*
X571358Y205311D01*
X571300Y205406D01*
X571245Y205504D01*
X571193Y205604D01*
X571146Y205705D01*
X571101Y205808D01*
X571061Y205912D01*
X571024Y206018D01*
X570991Y206125D01*
X570961Y206233D01*
X570936Y206343D01*
X570914Y206453D01*
X570897Y206563D01*
X570883Y206674D01*
X570873Y206786D01*
X570867Y206898D01*
X570865Y207010D01*
D12*
X576290Y149860D02*
X584490Y149860D01*
X584490Y137160D02*
X576290Y137160D01*
D13*
X573076Y143525D03*
X587808Y143525D03*
D11*
X-1331468Y779018D02*
X-1331468Y790702D01*
X-1334714Y790702D01*
X-1334827Y790700D01*
X-1334940Y790694D01*
X-1335053Y790684D01*
X-1335166Y790670D01*
X-1335278Y790653D01*
X-1335389Y790631D01*
X-1335499Y790606D01*
X-1335609Y790576D01*
X-1335717Y790543D01*
X-1335824Y790506D01*
X-1335930Y790466D01*
X-1336034Y790421D01*
X-1336137Y790373D01*
X-1336238Y790322D01*
X-1336337Y790267D01*
X-1336434Y790209D01*
X-1336529Y790147D01*
X-1336622Y790082D01*
X-1336712Y790014D01*
X-1336800Y789943D01*
X-1336886Y789868D01*
X-1336969Y789791D01*
X-1337049Y789711D01*
X-1337126Y789628D01*
X-1337201Y789542D01*
X-1337272Y789454D01*
X-1337340Y789364D01*
X-1337405Y789271D01*
X-1337467Y789176D01*
X-1337525Y789079D01*
X-1337580Y788980D01*
X-1337631Y788879D01*
X-1337679Y788776D01*
X-1337724Y788672D01*
X-1337764Y788566D01*
X-1337801Y788459D01*
X-1337834Y788351D01*
X-1337864Y788241D01*
X-1337889Y788131D01*
X-1337911Y788020D01*
X-1337928Y787908D01*
X-1337942Y787795D01*
X-1337952Y787682D01*
X-1337958Y787569D01*
X-1337960Y787456D01*
X-1337958Y787343D01*
X-1337952Y787230D01*
X-1337942Y787117D01*
X-1337928Y787004D01*
X-1337911Y786892D01*
X-1337889Y786781D01*
X-1337864Y786671D01*
X-1337834Y786561D01*
X-1337801Y786453D01*
X-1337764Y786346D01*
X-1337724Y786240D01*
X-1337679Y786136D01*
X-1337631Y786033D01*
X-1337580Y785932D01*
X-1337525Y785833D01*
X-1337467Y785736D01*
X-1337405Y785641D01*
X-1337340Y785548D01*
X-1337272Y785458D01*
X-1337201Y785370D01*
X-1337126Y785284D01*
X-1337049Y785201D01*
X-1336969Y785121D01*
X-1336886Y785044D01*
X-1336800Y784969D01*
X-1336712Y784898D01*
X-1336622Y784830D01*
X-1336529Y784765D01*
X-1336434Y784703D01*
X-1336337Y784645D01*
X-1336238Y784590D01*
X-1336137Y784539D01*
X-1336034Y784491D01*
X-1335930Y784446D01*
X-1335824Y784406D01*
X-1335717Y784369D01*
X-1335609Y784336D01*
X-1335499Y784306D01*
X-1335389Y784281D01*
X-1335278Y784259D01*
X-1335166Y784242D01*
X-1335053Y784228D01*
X-1334940Y784218D01*
X-1334827Y784212D01*
X-1334714Y784210D01*
X-1334714Y784211D02*
X-1331468Y784211D01*
X-1335363Y784211D02*
X-1337959Y779018D01*
X-1349315Y787781D02*
X-1349313Y787888D01*
X-1349307Y787994D01*
X-1349297Y788100D01*
X-1349284Y788206D01*
X-1349266Y788312D01*
X-1349245Y788416D01*
X-1349220Y788520D01*
X-1349191Y788623D01*
X-1349159Y788724D01*
X-1349122Y788824D01*
X-1349082Y788923D01*
X-1349039Y789021D01*
X-1348992Y789117D01*
X-1348941Y789211D01*
X-1348887Y789303D01*
X-1348830Y789393D01*
X-1348770Y789481D01*
X-1348706Y789566D01*
X-1348639Y789649D01*
X-1348569Y789730D01*
X-1348497Y789808D01*
X-1348421Y789884D01*
X-1348343Y789956D01*
X-1348262Y790026D01*
X-1348179Y790093D01*
X-1348094Y790157D01*
X-1348006Y790217D01*
X-1347916Y790274D01*
X-1347824Y790328D01*
X-1347730Y790379D01*
X-1347634Y790426D01*
X-1347536Y790469D01*
X-1347437Y790509D01*
X-1347337Y790546D01*
X-1347236Y790578D01*
X-1347133Y790607D01*
X-1347029Y790632D01*
X-1346925Y790653D01*
X-1346819Y790671D01*
X-1346713Y790684D01*
X-1346607Y790694D01*
X-1346501Y790700D01*
X-1346394Y790702D01*
X-1346273Y790700D01*
X-1346152Y790694D01*
X-1346032Y790684D01*
X-1345911Y790671D01*
X-1345792Y790653D01*
X-1345672Y790632D01*
X-1345554Y790607D01*
X-1345437Y790578D01*
X-1345320Y790545D01*
X-1345205Y790509D01*
X-1345091Y790468D01*
X-1344978Y790425D01*
X-1344866Y790377D01*
X-1344757Y790326D01*
X-1344649Y790271D01*
X-1344542Y790213D01*
X-1344438Y790152D01*
X-1344336Y790087D01*
X-1344236Y790019D01*
X-1344138Y789948D01*
X-1344042Y789874D01*
X-1343949Y789797D01*
X-1343859Y789716D01*
X-1343771Y789633D01*
X-1343686Y789547D01*
X-1343603Y789458D01*
X-1343524Y789367D01*
X-1343447Y789273D01*
X-1343374Y789177D01*
X-1343304Y789079D01*
X-1343237Y788978D01*
X-1343173Y788875D01*
X-1343113Y788770D01*
X-1343056Y788663D01*
X-1343002Y788555D01*
X-1342952Y788445D01*
X-1342906Y788333D01*
X-1342863Y788220D01*
X-1342824Y788105D01*
X-1348342Y785509D02*
X-1348421Y785586D01*
X-1348497Y785667D01*
X-1348570Y785750D01*
X-1348640Y785835D01*
X-1348707Y785923D01*
X-1348771Y786013D01*
X-1348831Y786105D01*
X-1348888Y786200D01*
X-1348942Y786296D01*
X-1348993Y786394D01*
X-1349040Y786494D01*
X-1349084Y786596D01*
X-1349124Y786699D01*
X-1349160Y786803D01*
X-1349192Y786909D01*
X-1349221Y787015D01*
X-1349246Y787123D01*
X-1349268Y787231D01*
X-1349285Y787341D01*
X-1349299Y787450D01*
X-1349308Y787560D01*
X-1349314Y787671D01*
X-1349316Y787781D01*
X-1348342Y785509D02*
X-1342824Y779018D01*
X-1349315Y779018D01*
D10*
X501650Y171450D02*
X501650Y133350D01*
X501650Y171450D02*
X552450Y171450D01*
X552450Y133350D01*
X501650Y133350D01*
X504825Y165100D02*
X504827Y165212D01*
X504833Y165324D01*
X504843Y165436D01*
X504857Y165547D01*
X504874Y165657D01*
X504896Y165767D01*
X504921Y165877D01*
X504951Y165985D01*
X504984Y166092D01*
X505021Y166198D01*
X505061Y166302D01*
X505106Y166405D01*
X505153Y166506D01*
X505205Y166606D01*
X505260Y166704D01*
X505318Y166799D01*
X505380Y166893D01*
X505445Y166984D01*
X505513Y167073D01*
X505584Y167160D01*
X505658Y167244D01*
X505735Y167325D01*
X505815Y167404D01*
X505898Y167479D01*
X505983Y167552D01*
X506071Y167622D01*
X506161Y167688D01*
X506254Y167752D01*
X506348Y167812D01*
X506445Y167868D01*
X506544Y167921D01*
X506644Y167971D01*
X506746Y168017D01*
X506850Y168059D01*
X506955Y168098D01*
X507062Y168133D01*
X507169Y168164D01*
X507278Y168192D01*
X507387Y168215D01*
X507498Y168235D01*
X507609Y168251D01*
X507720Y168263D01*
X507832Y168271D01*
X507944Y168275D01*
X508056Y168275D01*
X508168Y168271D01*
X508280Y168263D01*
X508391Y168251D01*
X508502Y168235D01*
X508613Y168215D01*
X508722Y168192D01*
X508831Y168164D01*
X508938Y168133D01*
X509045Y168098D01*
X509150Y168059D01*
X509254Y168017D01*
X509356Y167971D01*
X509456Y167921D01*
X509555Y167868D01*
X509652Y167812D01*
X509746Y167752D01*
X509839Y167688D01*
X509929Y167622D01*
X510017Y167552D01*
X510102Y167479D01*
X510185Y167404D01*
X510265Y167325D01*
X510342Y167244D01*
X510416Y167160D01*
X510487Y167073D01*
X510555Y166984D01*
X510620Y166893D01*
X510682Y166799D01*
X510740Y166704D01*
X510795Y166606D01*
X510847Y166506D01*
X510894Y166405D01*
X510939Y166302D01*
X510979Y166198D01*
X511016Y166092D01*
X511049Y165985D01*
X511079Y165877D01*
X511104Y165767D01*
X511126Y165657D01*
X511143Y165547D01*
X511157Y165436D01*
X511167Y165324D01*
X511173Y165212D01*
X511175Y165100D01*
X511173Y164988D01*
X511167Y164876D01*
X511157Y164764D01*
X511143Y164653D01*
X511126Y164543D01*
X511104Y164433D01*
X511079Y164323D01*
X511049Y164215D01*
X511016Y164108D01*
X510979Y164002D01*
X510939Y163898D01*
X510894Y163795D01*
X510847Y163694D01*
X510795Y163594D01*
X510740Y163496D01*
X510682Y163401D01*
X510620Y163307D01*
X510555Y163216D01*
X510487Y163127D01*
X510416Y163040D01*
X510342Y162956D01*
X510265Y162875D01*
X510185Y162796D01*
X510102Y162721D01*
X510017Y162648D01*
X509929Y162578D01*
X509839Y162512D01*
X509746Y162448D01*
X509652Y162388D01*
X509555Y162332D01*
X509456Y162279D01*
X509356Y162229D01*
X509254Y162183D01*
X509150Y162141D01*
X509045Y162102D01*
X508938Y162067D01*
X508831Y162036D01*
X508722Y162008D01*
X508613Y161985D01*
X508502Y161965D01*
X508391Y161949D01*
X508280Y161937D01*
X508168Y161929D01*
X508056Y161925D01*
X507944Y161925D01*
X507832Y161929D01*
X507720Y161937D01*
X507609Y161949D01*
X507498Y161965D01*
X507387Y161985D01*
X507278Y162008D01*
X507169Y162036D01*
X507062Y162067D01*
X506955Y162102D01*
X506850Y162141D01*
X506746Y162183D01*
X506644Y162229D01*
X506544Y162279D01*
X506445Y162332D01*
X506348Y162388D01*
X506254Y162448D01*
X506161Y162512D01*
X506071Y162578D01*
X505983Y162648D01*
X505898Y162721D01*
X505815Y162796D01*
X505735Y162875D01*
X505658Y162956D01*
X505584Y163040D01*
X505513Y163127D01*
X505445Y163216D01*
X505380Y163307D01*
X505318Y163401D01*
X505260Y163496D01*
X505205Y163594D01*
X505153Y163694D01*
X505106Y163795D01*
X505061Y163898D01*
X505021Y164002D01*
X504984Y164108D01*
X504951Y164215D01*
X504921Y164323D01*
X504896Y164433D01*
X504874Y164543D01*
X504857Y164653D01*
X504843Y164764D01*
X504833Y164876D01*
X504827Y164988D01*
X504825Y165100D01*
D12*
X510250Y107950D02*
X518450Y107950D01*
X518450Y95250D02*
X510250Y95250D01*
D13*
X507036Y101615D03*
X521768Y101615D03*
D11*
X570992Y191008D02*
X570992Y202692D01*
X567746Y202692D01*
X567633Y202690D01*
X567520Y202684D01*
X567407Y202674D01*
X567294Y202660D01*
X567182Y202643D01*
X567071Y202621D01*
X566961Y202596D01*
X566851Y202566D01*
X566743Y202533D01*
X566636Y202496D01*
X566530Y202456D01*
X566426Y202411D01*
X566323Y202363D01*
X566222Y202312D01*
X566123Y202257D01*
X566026Y202199D01*
X565931Y202137D01*
X565838Y202072D01*
X565748Y202004D01*
X565660Y201933D01*
X565574Y201858D01*
X565491Y201781D01*
X565411Y201701D01*
X565334Y201618D01*
X565259Y201532D01*
X565188Y201444D01*
X565120Y201354D01*
X565055Y201261D01*
X564993Y201166D01*
X564935Y201069D01*
X564880Y200970D01*
X564829Y200869D01*
X564781Y200766D01*
X564736Y200662D01*
X564696Y200556D01*
X564659Y200449D01*
X564626Y200341D01*
X564596Y200231D01*
X564571Y200121D01*
X564549Y200010D01*
X564532Y199898D01*
X564518Y199785D01*
X564508Y199672D01*
X564502Y199559D01*
X564500Y199446D01*
X564502Y199333D01*
X564508Y199220D01*
X564518Y199107D01*
X564532Y198994D01*
X564549Y198882D01*
X564571Y198771D01*
X564596Y198661D01*
X564626Y198551D01*
X564659Y198443D01*
X564696Y198336D01*
X564736Y198230D01*
X564781Y198126D01*
X564829Y198023D01*
X564880Y197922D01*
X564935Y197823D01*
X564993Y197726D01*
X565055Y197631D01*
X565120Y197538D01*
X565188Y197448D01*
X565259Y197360D01*
X565334Y197274D01*
X565411Y197191D01*
X565491Y197111D01*
X565574Y197034D01*
X565660Y196959D01*
X565748Y196888D01*
X565838Y196820D01*
X565931Y196755D01*
X566026Y196693D01*
X566123Y196635D01*
X566222Y196580D01*
X566323Y196529D01*
X566426Y196481D01*
X566530Y196436D01*
X566636Y196396D01*
X566743Y196359D01*
X566851Y196326D01*
X566961Y196296D01*
X567071Y196271D01*
X567182Y196249D01*
X567294Y196232D01*
X567407Y196218D01*
X567520Y196208D01*
X567633Y196202D01*
X567746Y196200D01*
X567746Y196201D02*
X570992Y196201D01*
X567097Y196201D02*
X564501Y191008D01*
X559636Y191008D02*
X556390Y191008D01*
X556277Y191010D01*
X556164Y191016D01*
X556051Y191026D01*
X555938Y191040D01*
X555826Y191057D01*
X555715Y191079D01*
X555605Y191104D01*
X555495Y191134D01*
X555387Y191167D01*
X555280Y191204D01*
X555174Y191244D01*
X555070Y191289D01*
X554967Y191337D01*
X554866Y191388D01*
X554767Y191443D01*
X554670Y191501D01*
X554575Y191563D01*
X554482Y191628D01*
X554392Y191696D01*
X554304Y191767D01*
X554218Y191842D01*
X554135Y191919D01*
X554055Y191999D01*
X553978Y192082D01*
X553903Y192168D01*
X553832Y192256D01*
X553764Y192346D01*
X553699Y192439D01*
X553637Y192534D01*
X553579Y192631D01*
X553524Y192730D01*
X553473Y192831D01*
X553425Y192934D01*
X553380Y193038D01*
X553340Y193144D01*
X553303Y193251D01*
X553270Y193359D01*
X553240Y193469D01*
X553215Y193579D01*
X553193Y193690D01*
X553176Y193802D01*
X553162Y193915D01*
X553152Y194028D01*
X553146Y194141D01*
X553144Y194254D01*
X553146Y194367D01*
X553152Y194480D01*
X553162Y194593D01*
X553176Y194706D01*
X553193Y194818D01*
X553215Y194929D01*
X553240Y195039D01*
X553270Y195149D01*
X553303Y195257D01*
X553340Y195364D01*
X553380Y195470D01*
X553425Y195574D01*
X553473Y195677D01*
X553524Y195778D01*
X553579Y195877D01*
X553637Y195974D01*
X553699Y196069D01*
X553764Y196162D01*
X553832Y196252D01*
X553903Y196340D01*
X553978Y196426D01*
X554055Y196509D01*
X554135Y196589D01*
X554218Y196666D01*
X554304Y196741D01*
X554392Y196812D01*
X554482Y196880D01*
X554575Y196945D01*
X554670Y197007D01*
X554767Y197065D01*
X554866Y197120D01*
X554967Y197171D01*
X555070Y197219D01*
X555174Y197264D01*
X555280Y197304D01*
X555387Y197341D01*
X555495Y197374D01*
X555605Y197404D01*
X555715Y197429D01*
X555826Y197451D01*
X555938Y197468D01*
X556051Y197482D01*
X556164Y197492D01*
X556277Y197498D01*
X556390Y197500D01*
X555741Y202692D02*
X559636Y202692D01*
X555741Y202692D02*
X555640Y202690D01*
X555540Y202684D01*
X555440Y202674D01*
X555340Y202661D01*
X555241Y202643D01*
X555142Y202622D01*
X555045Y202597D01*
X554948Y202568D01*
X554853Y202535D01*
X554759Y202499D01*
X554667Y202459D01*
X554576Y202416D01*
X554487Y202369D01*
X554400Y202319D01*
X554314Y202265D01*
X554231Y202208D01*
X554151Y202148D01*
X554072Y202085D01*
X553996Y202018D01*
X553923Y201949D01*
X553853Y201877D01*
X553785Y201803D01*
X553720Y201726D01*
X553659Y201646D01*
X553600Y201564D01*
X553545Y201480D01*
X553493Y201394D01*
X553444Y201306D01*
X553399Y201216D01*
X553357Y201124D01*
X553319Y201031D01*
X553285Y200936D01*
X553254Y200841D01*
X553227Y200744D01*
X553204Y200646D01*
X553184Y200547D01*
X553169Y200447D01*
X553157Y200347D01*
X553149Y200247D01*
X553145Y200146D01*
X553145Y200046D01*
X553149Y199945D01*
X553157Y199845D01*
X553169Y199745D01*
X553184Y199645D01*
X553204Y199546D01*
X553227Y199448D01*
X553254Y199351D01*
X553285Y199256D01*
X553319Y199161D01*
X553357Y199068D01*
X553399Y198976D01*
X553444Y198886D01*
X553493Y198798D01*
X553545Y198712D01*
X553600Y198628D01*
X553659Y198546D01*
X553720Y198466D01*
X553785Y198389D01*
X553853Y198315D01*
X553923Y198243D01*
X553996Y198174D01*
X554072Y198107D01*
X554151Y198044D01*
X554231Y197984D01*
X554314Y197927D01*
X554400Y197873D01*
X554487Y197823D01*
X554576Y197776D01*
X554667Y197733D01*
X554759Y197693D01*
X554853Y197657D01*
X554948Y197624D01*
X555045Y197595D01*
X555142Y197570D01*
X555241Y197549D01*
X555340Y197531D01*
X555440Y197518D01*
X555540Y197508D01*
X555640Y197502D01*
X555741Y197500D01*
X555741Y197499D02*
X558337Y197499D01*
X428498Y159371D02*
X428498Y156774D01*
X428500Y156675D01*
X428506Y156575D01*
X428515Y156476D01*
X428528Y156378D01*
X428545Y156280D01*
X428566Y156182D01*
X428591Y156086D01*
X428619Y155991D01*
X428651Y155897D01*
X428686Y155804D01*
X428725Y155712D01*
X428768Y155622D01*
X428813Y155534D01*
X428863Y155447D01*
X428915Y155363D01*
X428971Y155280D01*
X429029Y155200D01*
X429091Y155122D01*
X429156Y155047D01*
X429224Y154974D01*
X429294Y154904D01*
X429367Y154836D01*
X429442Y154771D01*
X429520Y154709D01*
X429600Y154651D01*
X429683Y154595D01*
X429767Y154543D01*
X429854Y154493D01*
X429942Y154448D01*
X430032Y154405D01*
X430124Y154366D01*
X430217Y154331D01*
X430311Y154299D01*
X430406Y154271D01*
X430502Y154246D01*
X430600Y154225D01*
X430698Y154208D01*
X430796Y154195D01*
X430895Y154186D01*
X430995Y154180D01*
X431094Y154178D01*
X437586Y154178D01*
X437685Y154180D01*
X437785Y154186D01*
X437884Y154195D01*
X437982Y154208D01*
X438080Y154225D01*
X438178Y154246D01*
X438274Y154271D01*
X438369Y154299D01*
X438463Y154331D01*
X438556Y154366D01*
X438648Y154405D01*
X438738Y154448D01*
X438826Y154493D01*
X438913Y154543D01*
X438997Y154595D01*
X439080Y154651D01*
X439160Y154709D01*
X439238Y154771D01*
X439313Y154836D01*
X439386Y154904D01*
X439456Y154974D01*
X439524Y155047D01*
X439589Y155122D01*
X439651Y155200D01*
X439709Y155280D01*
X439765Y155363D01*
X439817Y155447D01*
X439867Y155534D01*
X439912Y155622D01*
X439955Y155712D01*
X439994Y155804D01*
X440029Y155896D01*
X440061Y155991D01*
X440089Y156086D01*
X440114Y156182D01*
X440135Y156280D01*
X440152Y156378D01*
X440165Y156476D01*
X440174Y156575D01*
X440180Y156675D01*
X440182Y156774D01*
X440182Y159371D01*
X437586Y163736D02*
X440182Y166982D01*
X428498Y166982D01*
X428498Y170227D02*
X428498Y163736D01*
X544068Y110556D02*
X544068Y107959D01*
X544070Y107860D01*
X544076Y107760D01*
X544085Y107661D01*
X544098Y107563D01*
X544115Y107465D01*
X544136Y107367D01*
X544161Y107271D01*
X544189Y107176D01*
X544221Y107082D01*
X544256Y106989D01*
X544295Y106897D01*
X544338Y106807D01*
X544383Y106719D01*
X544433Y106632D01*
X544485Y106548D01*
X544541Y106465D01*
X544599Y106385D01*
X544661Y106307D01*
X544726Y106232D01*
X544794Y106159D01*
X544864Y106089D01*
X544937Y106021D01*
X545012Y105956D01*
X545090Y105894D01*
X545170Y105836D01*
X545253Y105780D01*
X545337Y105728D01*
X545424Y105678D01*
X545512Y105633D01*
X545602Y105590D01*
X545694Y105551D01*
X545787Y105516D01*
X545881Y105484D01*
X545976Y105456D01*
X546072Y105431D01*
X546170Y105410D01*
X546268Y105393D01*
X546366Y105380D01*
X546465Y105371D01*
X546565Y105365D01*
X546664Y105363D01*
X553156Y105363D01*
X553255Y105365D01*
X553355Y105371D01*
X553454Y105380D01*
X553552Y105393D01*
X553650Y105410D01*
X553748Y105431D01*
X553844Y105456D01*
X553939Y105484D01*
X554033Y105516D01*
X554126Y105551D01*
X554218Y105590D01*
X554308Y105633D01*
X554396Y105678D01*
X554483Y105728D01*
X554567Y105780D01*
X554650Y105836D01*
X554730Y105894D01*
X554808Y105956D01*
X554883Y106021D01*
X554956Y106089D01*
X555026Y106159D01*
X555094Y106232D01*
X555159Y106307D01*
X555221Y106385D01*
X555279Y106465D01*
X555335Y106548D01*
X555387Y106632D01*
X555437Y106719D01*
X555482Y106807D01*
X555525Y106897D01*
X555564Y106989D01*
X555599Y107081D01*
X555631Y107176D01*
X555659Y107271D01*
X555684Y107367D01*
X555705Y107465D01*
X555722Y107563D01*
X555735Y107661D01*
X555744Y107760D01*
X555750Y107860D01*
X555752Y107959D01*
X555752Y110556D01*
X555752Y118491D02*
X555750Y118598D01*
X555744Y118704D01*
X555734Y118810D01*
X555721Y118916D01*
X555703Y119022D01*
X555682Y119126D01*
X555657Y119230D01*
X555628Y119333D01*
X555596Y119434D01*
X555559Y119534D01*
X555519Y119633D01*
X555476Y119731D01*
X555429Y119827D01*
X555378Y119921D01*
X555324Y120013D01*
X555267Y120103D01*
X555207Y120191D01*
X555143Y120276D01*
X555076Y120359D01*
X555006Y120440D01*
X554934Y120518D01*
X554858Y120594D01*
X554780Y120666D01*
X554699Y120736D01*
X554616Y120803D01*
X554531Y120867D01*
X554443Y120927D01*
X554353Y120984D01*
X554261Y121038D01*
X554167Y121089D01*
X554071Y121136D01*
X553973Y121179D01*
X553874Y121219D01*
X553774Y121256D01*
X553673Y121288D01*
X553570Y121317D01*
X553466Y121342D01*
X553362Y121363D01*
X553256Y121381D01*
X553150Y121394D01*
X553044Y121404D01*
X552938Y121410D01*
X552831Y121412D01*
X555752Y118491D02*
X555750Y118370D01*
X555744Y118249D01*
X555734Y118129D01*
X555721Y118008D01*
X555703Y117889D01*
X555682Y117769D01*
X555657Y117651D01*
X555628Y117534D01*
X555595Y117417D01*
X555559Y117302D01*
X555518Y117188D01*
X555475Y117075D01*
X555427Y116963D01*
X555376Y116854D01*
X555321Y116746D01*
X555263Y116639D01*
X555202Y116535D01*
X555137Y116433D01*
X555069Y116333D01*
X554998Y116235D01*
X554924Y116139D01*
X554847Y116046D01*
X554766Y115956D01*
X554683Y115868D01*
X554597Y115783D01*
X554508Y115700D01*
X554417Y115621D01*
X554323Y115544D01*
X554227Y115471D01*
X554129Y115401D01*
X554028Y115334D01*
X553925Y115270D01*
X553820Y115210D01*
X553713Y115153D01*
X553605Y115099D01*
X553495Y115049D01*
X553383Y115003D01*
X553270Y114960D01*
X553155Y114921D01*
X550559Y120439D02*
X550636Y120518D01*
X550717Y120594D01*
X550800Y120667D01*
X550885Y120737D01*
X550973Y120804D01*
X551063Y120868D01*
X551155Y120928D01*
X551250Y120985D01*
X551346Y121039D01*
X551444Y121090D01*
X551544Y121137D01*
X551646Y121181D01*
X551749Y121221D01*
X551853Y121257D01*
X551959Y121289D01*
X552065Y121318D01*
X552173Y121343D01*
X552281Y121365D01*
X552391Y121382D01*
X552500Y121396D01*
X552610Y121405D01*
X552721Y121411D01*
X552831Y121413D01*
X550559Y120438D02*
X544068Y114921D01*
X544068Y121412D01*
X619139Y150368D02*
X621736Y150368D01*
X621835Y150370D01*
X621935Y150376D01*
X622034Y150385D01*
X622132Y150398D01*
X622230Y150415D01*
X622328Y150436D01*
X622424Y150461D01*
X622519Y150489D01*
X622613Y150521D01*
X622706Y150556D01*
X622798Y150595D01*
X622888Y150638D01*
X622976Y150683D01*
X623063Y150733D01*
X623147Y150785D01*
X623230Y150841D01*
X623310Y150899D01*
X623388Y150961D01*
X623463Y151026D01*
X623536Y151094D01*
X623606Y151164D01*
X623674Y151237D01*
X623739Y151312D01*
X623801Y151390D01*
X623859Y151470D01*
X623915Y151553D01*
X623967Y151637D01*
X624017Y151724D01*
X624062Y151812D01*
X624105Y151902D01*
X624144Y151994D01*
X624179Y152087D01*
X624211Y152181D01*
X624239Y152276D01*
X624264Y152372D01*
X624285Y152470D01*
X624302Y152568D01*
X624315Y152666D01*
X624324Y152765D01*
X624330Y152865D01*
X624332Y152964D01*
X624332Y159456D01*
X624330Y159555D01*
X624324Y159655D01*
X624315Y159754D01*
X624302Y159852D01*
X624285Y159950D01*
X624264Y160048D01*
X624239Y160144D01*
X624211Y160239D01*
X624179Y160333D01*
X624144Y160426D01*
X624105Y160518D01*
X624062Y160608D01*
X624017Y160696D01*
X623967Y160783D01*
X623915Y160867D01*
X623859Y160950D01*
X623801Y161030D01*
X623739Y161108D01*
X623674Y161183D01*
X623606Y161256D01*
X623536Y161326D01*
X623463Y161394D01*
X623388Y161459D01*
X623310Y161521D01*
X623230Y161579D01*
X623147Y161635D01*
X623063Y161687D01*
X622976Y161737D01*
X622888Y161782D01*
X622798Y161825D01*
X622706Y161864D01*
X622613Y161899D01*
X622519Y161931D01*
X622424Y161959D01*
X622328Y161984D01*
X622230Y162005D01*
X622132Y162022D01*
X622034Y162035D01*
X621935Y162044D01*
X621835Y162050D01*
X621736Y162052D01*
X619139Y162052D01*
X614774Y150368D02*
X611528Y150368D01*
X611415Y150370D01*
X611302Y150376D01*
X611189Y150386D01*
X611076Y150400D01*
X610964Y150417D01*
X610853Y150439D01*
X610743Y150464D01*
X610633Y150494D01*
X610525Y150527D01*
X610418Y150564D01*
X610312Y150604D01*
X610208Y150649D01*
X610105Y150697D01*
X610004Y150748D01*
X609905Y150803D01*
X609808Y150861D01*
X609713Y150923D01*
X609620Y150988D01*
X609530Y151056D01*
X609442Y151127D01*
X609356Y151202D01*
X609273Y151279D01*
X609193Y151359D01*
X609116Y151442D01*
X609041Y151528D01*
X608970Y151616D01*
X608902Y151706D01*
X608837Y151799D01*
X608775Y151894D01*
X608717Y151991D01*
X608662Y152090D01*
X608611Y152191D01*
X608563Y152294D01*
X608518Y152398D01*
X608478Y152504D01*
X608441Y152611D01*
X608408Y152719D01*
X608378Y152829D01*
X608353Y152939D01*
X608331Y153050D01*
X608314Y153162D01*
X608300Y153275D01*
X608290Y153388D01*
X608284Y153501D01*
X608282Y153614D01*
X608284Y153727D01*
X608290Y153840D01*
X608300Y153953D01*
X608314Y154066D01*
X608331Y154178D01*
X608353Y154289D01*
X608378Y154399D01*
X608408Y154509D01*
X608441Y154617D01*
X608478Y154724D01*
X608518Y154830D01*
X608563Y154934D01*
X608611Y155037D01*
X608662Y155138D01*
X608717Y155237D01*
X608775Y155334D01*
X608837Y155429D01*
X608902Y155522D01*
X608970Y155612D01*
X609041Y155700D01*
X609116Y155786D01*
X609193Y155869D01*
X609273Y155949D01*
X609356Y156026D01*
X609442Y156101D01*
X609530Y156172D01*
X609620Y156240D01*
X609713Y156305D01*
X609808Y156367D01*
X609905Y156425D01*
X610004Y156480D01*
X610105Y156531D01*
X610208Y156579D01*
X610312Y156624D01*
X610418Y156664D01*
X610525Y156701D01*
X610633Y156734D01*
X610743Y156764D01*
X610853Y156789D01*
X610964Y156811D01*
X611076Y156828D01*
X611189Y156842D01*
X611302Y156852D01*
X611415Y156858D01*
X611528Y156860D01*
X610879Y162052D02*
X614774Y162052D01*
X610879Y162052D02*
X610778Y162050D01*
X610678Y162044D01*
X610578Y162034D01*
X610478Y162021D01*
X610379Y162003D01*
X610280Y161982D01*
X610183Y161957D01*
X610086Y161928D01*
X609991Y161895D01*
X609897Y161859D01*
X609805Y161819D01*
X609714Y161776D01*
X609625Y161729D01*
X609538Y161679D01*
X609452Y161625D01*
X609369Y161568D01*
X609289Y161508D01*
X609210Y161445D01*
X609134Y161378D01*
X609061Y161309D01*
X608991Y161237D01*
X608923Y161163D01*
X608858Y161086D01*
X608797Y161006D01*
X608738Y160924D01*
X608683Y160840D01*
X608631Y160754D01*
X608582Y160666D01*
X608537Y160576D01*
X608495Y160484D01*
X608457Y160391D01*
X608423Y160296D01*
X608392Y160201D01*
X608365Y160104D01*
X608342Y160006D01*
X608322Y159907D01*
X608307Y159807D01*
X608295Y159707D01*
X608287Y159607D01*
X608283Y159506D01*
X608283Y159406D01*
X608287Y159305D01*
X608295Y159205D01*
X608307Y159105D01*
X608322Y159005D01*
X608342Y158906D01*
X608365Y158808D01*
X608392Y158711D01*
X608423Y158616D01*
X608457Y158521D01*
X608495Y158428D01*
X608537Y158336D01*
X608582Y158246D01*
X608631Y158158D01*
X608683Y158072D01*
X608738Y157988D01*
X608797Y157906D01*
X608858Y157826D01*
X608923Y157749D01*
X608991Y157675D01*
X609061Y157603D01*
X609134Y157534D01*
X609210Y157467D01*
X609289Y157404D01*
X609369Y157344D01*
X609452Y157287D01*
X609538Y157233D01*
X609625Y157183D01*
X609714Y157136D01*
X609805Y157093D01*
X609897Y157053D01*
X609991Y157017D01*
X610086Y156984D01*
X610183Y156955D01*
X610280Y156930D01*
X610379Y156909D01*
X610478Y156891D01*
X610578Y156878D01*
X610678Y156868D01*
X610778Y156862D01*
X610879Y156860D01*
X610879Y156859D02*
X613476Y156859D01*
D12*
X744728Y85852D02*
X744728Y66675D01*
X728472Y66675D02*
X728472Y85852D01*
D14*
X736600Y89408D03*
X736600Y62992D03*
D11*
X723392Y70545D02*
X711708Y70545D01*
X723392Y70545D02*
X723392Y73790D01*
X723390Y73903D01*
X723384Y74016D01*
X723374Y74129D01*
X723360Y74242D01*
X723343Y74354D01*
X723321Y74465D01*
X723296Y74575D01*
X723266Y74685D01*
X723233Y74793D01*
X723196Y74900D01*
X723156Y75006D01*
X723111Y75110D01*
X723063Y75213D01*
X723012Y75314D01*
X722957Y75413D01*
X722899Y75510D01*
X722837Y75605D01*
X722772Y75698D01*
X722704Y75788D01*
X722633Y75876D01*
X722558Y75962D01*
X722481Y76045D01*
X722401Y76125D01*
X722318Y76202D01*
X722232Y76277D01*
X722144Y76348D01*
X722054Y76416D01*
X721961Y76481D01*
X721866Y76543D01*
X721769Y76601D01*
X721670Y76656D01*
X721569Y76707D01*
X721466Y76755D01*
X721362Y76800D01*
X721256Y76840D01*
X721149Y76877D01*
X721041Y76910D01*
X720931Y76940D01*
X720821Y76965D01*
X720710Y76987D01*
X720598Y77004D01*
X720485Y77018D01*
X720372Y77028D01*
X720259Y77034D01*
X720146Y77036D01*
X720033Y77034D01*
X719920Y77028D01*
X719807Y77018D01*
X719694Y77004D01*
X719582Y76987D01*
X719471Y76965D01*
X719361Y76940D01*
X719251Y76910D01*
X719143Y76877D01*
X719036Y76840D01*
X718930Y76800D01*
X718826Y76755D01*
X718723Y76707D01*
X718622Y76656D01*
X718523Y76601D01*
X718426Y76543D01*
X718331Y76481D01*
X718238Y76416D01*
X718148Y76348D01*
X718060Y76277D01*
X717974Y76202D01*
X717891Y76125D01*
X717811Y76045D01*
X717734Y75962D01*
X717659Y75876D01*
X717588Y75788D01*
X717520Y75698D01*
X717455Y75605D01*
X717393Y75510D01*
X717335Y75413D01*
X717280Y75314D01*
X717229Y75213D01*
X717181Y75110D01*
X717136Y75006D01*
X717096Y74900D01*
X717059Y74793D01*
X717026Y74685D01*
X716996Y74575D01*
X716971Y74465D01*
X716949Y74354D01*
X716932Y74242D01*
X716918Y74129D01*
X716908Y74016D01*
X716902Y73903D01*
X716900Y73790D01*
X716901Y73790D02*
X716901Y70545D01*
X716901Y74439D02*
X711708Y77036D01*
X714304Y81901D02*
X723392Y84497D01*
X714304Y81901D02*
X714304Y88392D01*
X716901Y86445D02*
X711708Y86445D01*
D12*
X770128Y85852D02*
X770128Y66675D01*
X753872Y66675D02*
X753872Y85852D01*
D14*
X762000Y89408D03*
X762000Y62992D03*
D11*
X748792Y70545D02*
X737108Y70545D01*
X748792Y70545D02*
X748792Y73790D01*
X748790Y73903D01*
X748784Y74016D01*
X748774Y74129D01*
X748760Y74242D01*
X748743Y74354D01*
X748721Y74465D01*
X748696Y74575D01*
X748666Y74685D01*
X748633Y74793D01*
X748596Y74900D01*
X748556Y75006D01*
X748511Y75110D01*
X748463Y75213D01*
X748412Y75314D01*
X748357Y75413D01*
X748299Y75510D01*
X748237Y75605D01*
X748172Y75698D01*
X748104Y75788D01*
X748033Y75876D01*
X747958Y75962D01*
X747881Y76045D01*
X747801Y76125D01*
X747718Y76202D01*
X747632Y76277D01*
X747544Y76348D01*
X747454Y76416D01*
X747361Y76481D01*
X747266Y76543D01*
X747169Y76601D01*
X747070Y76656D01*
X746969Y76707D01*
X746866Y76755D01*
X746762Y76800D01*
X746656Y76840D01*
X746549Y76877D01*
X746441Y76910D01*
X746331Y76940D01*
X746221Y76965D01*
X746110Y76987D01*
X745998Y77004D01*
X745885Y77018D01*
X745772Y77028D01*
X745659Y77034D01*
X745546Y77036D01*
X745433Y77034D01*
X745320Y77028D01*
X745207Y77018D01*
X745094Y77004D01*
X744982Y76987D01*
X744871Y76965D01*
X744761Y76940D01*
X744651Y76910D01*
X744543Y76877D01*
X744436Y76840D01*
X744330Y76800D01*
X744226Y76755D01*
X744123Y76707D01*
X744022Y76656D01*
X743923Y76601D01*
X743826Y76543D01*
X743731Y76481D01*
X743638Y76416D01*
X743548Y76348D01*
X743460Y76277D01*
X743374Y76202D01*
X743291Y76125D01*
X743211Y76045D01*
X743134Y75962D01*
X743059Y75876D01*
X742988Y75788D01*
X742920Y75698D01*
X742855Y75605D01*
X742793Y75510D01*
X742735Y75413D01*
X742680Y75314D01*
X742629Y75213D01*
X742581Y75110D01*
X742536Y75006D01*
X742496Y74900D01*
X742459Y74793D01*
X742426Y74685D01*
X742396Y74575D01*
X742371Y74465D01*
X742349Y74354D01*
X742332Y74242D01*
X742318Y74129D01*
X742308Y74016D01*
X742302Y73903D01*
X742300Y73790D01*
X742301Y73790D02*
X742301Y70545D01*
X742301Y74439D02*
X737108Y77036D01*
X737108Y81901D02*
X737108Y85796D01*
X737110Y85895D01*
X737116Y85995D01*
X737125Y86094D01*
X737138Y86192D01*
X737155Y86290D01*
X737176Y86388D01*
X737201Y86484D01*
X737229Y86579D01*
X737261Y86673D01*
X737296Y86766D01*
X737335Y86858D01*
X737378Y86948D01*
X737423Y87036D01*
X737473Y87123D01*
X737525Y87207D01*
X737581Y87290D01*
X737639Y87370D01*
X737701Y87448D01*
X737766Y87523D01*
X737834Y87596D01*
X737904Y87666D01*
X737977Y87734D01*
X738052Y87799D01*
X738130Y87861D01*
X738210Y87919D01*
X738293Y87975D01*
X738377Y88027D01*
X738464Y88077D01*
X738552Y88122D01*
X738642Y88165D01*
X738734Y88204D01*
X738827Y88239D01*
X738921Y88271D01*
X739016Y88299D01*
X739112Y88324D01*
X739210Y88345D01*
X739308Y88362D01*
X739406Y88375D01*
X739505Y88384D01*
X739605Y88390D01*
X739704Y88392D01*
X741003Y88392D01*
X741102Y88390D01*
X741202Y88384D01*
X741301Y88375D01*
X741399Y88362D01*
X741497Y88345D01*
X741595Y88324D01*
X741691Y88299D01*
X741786Y88271D01*
X741880Y88239D01*
X741973Y88204D01*
X742065Y88165D01*
X742155Y88122D01*
X742243Y88077D01*
X742330Y88027D01*
X742414Y87975D01*
X742497Y87919D01*
X742577Y87861D01*
X742655Y87799D01*
X742730Y87734D01*
X742803Y87666D01*
X742873Y87596D01*
X742941Y87523D01*
X743006Y87448D01*
X743068Y87370D01*
X743126Y87290D01*
X743182Y87207D01*
X743234Y87123D01*
X743284Y87036D01*
X743329Y86948D01*
X743372Y86858D01*
X743411Y86766D01*
X743446Y86673D01*
X743478Y86579D01*
X743506Y86484D01*
X743531Y86388D01*
X743552Y86290D01*
X743569Y86192D01*
X743582Y86094D01*
X743591Y85995D01*
X743597Y85895D01*
X743599Y85796D01*
X743599Y81901D01*
X748792Y81901D01*
X748792Y88392D01*
D12*
X795528Y85852D02*
X795528Y66675D01*
X779272Y66675D02*
X779272Y85852D01*
D14*
X787400Y89408D03*
X787400Y62992D03*
D11*
X774192Y70545D02*
X762508Y70545D01*
X774192Y70545D02*
X774192Y73790D01*
X774190Y73903D01*
X774184Y74016D01*
X774174Y74129D01*
X774160Y74242D01*
X774143Y74354D01*
X774121Y74465D01*
X774096Y74575D01*
X774066Y74685D01*
X774033Y74793D01*
X773996Y74900D01*
X773956Y75006D01*
X773911Y75110D01*
X773863Y75213D01*
X773812Y75314D01*
X773757Y75413D01*
X773699Y75510D01*
X773637Y75605D01*
X773572Y75698D01*
X773504Y75788D01*
X773433Y75876D01*
X773358Y75962D01*
X773281Y76045D01*
X773201Y76125D01*
X773118Y76202D01*
X773032Y76277D01*
X772944Y76348D01*
X772854Y76416D01*
X772761Y76481D01*
X772666Y76543D01*
X772569Y76601D01*
X772470Y76656D01*
X772369Y76707D01*
X772266Y76755D01*
X772162Y76800D01*
X772056Y76840D01*
X771949Y76877D01*
X771841Y76910D01*
X771731Y76940D01*
X771621Y76965D01*
X771510Y76987D01*
X771398Y77004D01*
X771285Y77018D01*
X771172Y77028D01*
X771059Y77034D01*
X770946Y77036D01*
X770833Y77034D01*
X770720Y77028D01*
X770607Y77018D01*
X770494Y77004D01*
X770382Y76987D01*
X770271Y76965D01*
X770161Y76940D01*
X770051Y76910D01*
X769943Y76877D01*
X769836Y76840D01*
X769730Y76800D01*
X769626Y76755D01*
X769523Y76707D01*
X769422Y76656D01*
X769323Y76601D01*
X769226Y76543D01*
X769131Y76481D01*
X769038Y76416D01*
X768948Y76348D01*
X768860Y76277D01*
X768774Y76202D01*
X768691Y76125D01*
X768611Y76045D01*
X768534Y75962D01*
X768459Y75876D01*
X768388Y75788D01*
X768320Y75698D01*
X768255Y75605D01*
X768193Y75510D01*
X768135Y75413D01*
X768080Y75314D01*
X768029Y75213D01*
X767981Y75110D01*
X767936Y75006D01*
X767896Y74900D01*
X767859Y74793D01*
X767826Y74685D01*
X767796Y74575D01*
X767771Y74465D01*
X767749Y74354D01*
X767732Y74242D01*
X767718Y74129D01*
X767708Y74016D01*
X767702Y73903D01*
X767700Y73790D01*
X767701Y73790D02*
X767701Y70545D01*
X767701Y74439D02*
X762508Y77036D01*
X768999Y81901D02*
X768999Y85796D01*
X768997Y85895D01*
X768991Y85995D01*
X768982Y86094D01*
X768969Y86192D01*
X768952Y86290D01*
X768931Y86388D01*
X768906Y86484D01*
X768878Y86579D01*
X768846Y86673D01*
X768811Y86766D01*
X768772Y86858D01*
X768729Y86948D01*
X768684Y87036D01*
X768634Y87123D01*
X768582Y87207D01*
X768526Y87290D01*
X768468Y87370D01*
X768406Y87448D01*
X768341Y87523D01*
X768273Y87596D01*
X768203Y87666D01*
X768130Y87734D01*
X768055Y87799D01*
X767977Y87861D01*
X767897Y87919D01*
X767814Y87975D01*
X767730Y88027D01*
X767643Y88077D01*
X767555Y88122D01*
X767465Y88165D01*
X767373Y88204D01*
X767280Y88239D01*
X767186Y88271D01*
X767091Y88299D01*
X766995Y88324D01*
X766897Y88345D01*
X766799Y88362D01*
X766701Y88375D01*
X766602Y88384D01*
X766502Y88390D01*
X766403Y88392D01*
X765754Y88392D01*
X765641Y88390D01*
X765528Y88384D01*
X765415Y88374D01*
X765302Y88360D01*
X765190Y88343D01*
X765079Y88321D01*
X764969Y88296D01*
X764859Y88266D01*
X764751Y88233D01*
X764644Y88196D01*
X764538Y88156D01*
X764434Y88111D01*
X764331Y88063D01*
X764230Y88012D01*
X764131Y87957D01*
X764034Y87899D01*
X763939Y87837D01*
X763846Y87772D01*
X763756Y87704D01*
X763668Y87633D01*
X763582Y87558D01*
X763499Y87481D01*
X763419Y87401D01*
X763342Y87318D01*
X763267Y87232D01*
X763196Y87144D01*
X763128Y87054D01*
X763063Y86961D01*
X763001Y86866D01*
X762943Y86769D01*
X762888Y86670D01*
X762837Y86569D01*
X762789Y86466D01*
X762744Y86362D01*
X762704Y86256D01*
X762667Y86149D01*
X762634Y86041D01*
X762604Y85931D01*
X762579Y85821D01*
X762557Y85710D01*
X762540Y85598D01*
X762526Y85485D01*
X762516Y85372D01*
X762510Y85259D01*
X762508Y85146D01*
X762510Y85033D01*
X762516Y84920D01*
X762526Y84807D01*
X762540Y84694D01*
X762557Y84582D01*
X762579Y84471D01*
X762604Y84361D01*
X762634Y84251D01*
X762667Y84143D01*
X762704Y84036D01*
X762744Y83930D01*
X762789Y83826D01*
X762837Y83723D01*
X762888Y83622D01*
X762943Y83523D01*
X763001Y83426D01*
X763063Y83331D01*
X763128Y83238D01*
X763196Y83148D01*
X763267Y83060D01*
X763342Y82974D01*
X763419Y82891D01*
X763499Y82811D01*
X763582Y82734D01*
X763668Y82659D01*
X763756Y82588D01*
X763846Y82520D01*
X763939Y82455D01*
X764034Y82393D01*
X764131Y82335D01*
X764230Y82280D01*
X764331Y82229D01*
X764434Y82181D01*
X764538Y82136D01*
X764644Y82096D01*
X764751Y82059D01*
X764859Y82026D01*
X764969Y81996D01*
X765079Y81971D01*
X765190Y81949D01*
X765302Y81932D01*
X765415Y81918D01*
X765528Y81908D01*
X765641Y81902D01*
X765754Y81900D01*
X765754Y81901D02*
X768999Y81901D01*
X769142Y81903D01*
X769285Y81909D01*
X769428Y81919D01*
X769570Y81933D01*
X769712Y81950D01*
X769854Y81972D01*
X769995Y81997D01*
X770135Y82027D01*
X770274Y82060D01*
X770412Y82097D01*
X770549Y82138D01*
X770685Y82182D01*
X770820Y82231D01*
X770953Y82283D01*
X771085Y82338D01*
X771215Y82398D01*
X771344Y82461D01*
X771471Y82527D01*
X771595Y82597D01*
X771718Y82670D01*
X771839Y82747D01*
X771958Y82827D01*
X772074Y82910D01*
X772189Y82996D01*
X772300Y83085D01*
X772410Y83178D01*
X772516Y83273D01*
X772620Y83372D01*
X772721Y83473D01*
X772820Y83577D01*
X772915Y83683D01*
X773008Y83793D01*
X773097Y83904D01*
X773183Y84019D01*
X773266Y84135D01*
X773346Y84254D01*
X773423Y84375D01*
X773496Y84497D01*
X773566Y84622D01*
X773632Y84749D01*
X773695Y84878D01*
X773755Y85008D01*
X773810Y85140D01*
X773862Y85273D01*
X773911Y85408D01*
X773955Y85544D01*
X773996Y85681D01*
X774033Y85819D01*
X774066Y85958D01*
X774096Y86098D01*
X774121Y86239D01*
X774143Y86381D01*
X774160Y86523D01*
X774174Y86665D01*
X774184Y86808D01*
X774190Y86951D01*
X774192Y87094D01*
D12*
X820928Y85852D02*
X820928Y66675D01*
X804672Y66675D02*
X804672Y85852D01*
D14*
X812800Y89408D03*
X812800Y62992D03*
D11*
X799592Y70545D02*
X787908Y70545D01*
X799592Y70545D02*
X799592Y73790D01*
X799590Y73903D01*
X799584Y74016D01*
X799574Y74129D01*
X799560Y74242D01*
X799543Y74354D01*
X799521Y74465D01*
X799496Y74575D01*
X799466Y74685D01*
X799433Y74793D01*
X799396Y74900D01*
X799356Y75006D01*
X799311Y75110D01*
X799263Y75213D01*
X799212Y75314D01*
X799157Y75413D01*
X799099Y75510D01*
X799037Y75605D01*
X798972Y75698D01*
X798904Y75788D01*
X798833Y75876D01*
X798758Y75962D01*
X798681Y76045D01*
X798601Y76125D01*
X798518Y76202D01*
X798432Y76277D01*
X798344Y76348D01*
X798254Y76416D01*
X798161Y76481D01*
X798066Y76543D01*
X797969Y76601D01*
X797870Y76656D01*
X797769Y76707D01*
X797666Y76755D01*
X797562Y76800D01*
X797456Y76840D01*
X797349Y76877D01*
X797241Y76910D01*
X797131Y76940D01*
X797021Y76965D01*
X796910Y76987D01*
X796798Y77004D01*
X796685Y77018D01*
X796572Y77028D01*
X796459Y77034D01*
X796346Y77036D01*
X796233Y77034D01*
X796120Y77028D01*
X796007Y77018D01*
X795894Y77004D01*
X795782Y76987D01*
X795671Y76965D01*
X795561Y76940D01*
X795451Y76910D01*
X795343Y76877D01*
X795236Y76840D01*
X795130Y76800D01*
X795026Y76755D01*
X794923Y76707D01*
X794822Y76656D01*
X794723Y76601D01*
X794626Y76543D01*
X794531Y76481D01*
X794438Y76416D01*
X794348Y76348D01*
X794260Y76277D01*
X794174Y76202D01*
X794091Y76125D01*
X794011Y76045D01*
X793934Y75962D01*
X793859Y75876D01*
X793788Y75788D01*
X793720Y75698D01*
X793655Y75605D01*
X793593Y75510D01*
X793535Y75413D01*
X793480Y75314D01*
X793429Y75213D01*
X793381Y75110D01*
X793336Y75006D01*
X793296Y74900D01*
X793259Y74793D01*
X793226Y74685D01*
X793196Y74575D01*
X793171Y74465D01*
X793149Y74354D01*
X793132Y74242D01*
X793118Y74129D01*
X793108Y74016D01*
X793102Y73903D01*
X793100Y73790D01*
X793101Y73790D02*
X793101Y70545D01*
X793101Y74439D02*
X787908Y77036D01*
X798294Y81901D02*
X799592Y81901D01*
X799592Y88392D01*
X787908Y85146D01*
M02*
