G04 EAGLE Gerber RS-274X export*
G75*
%MOMM*%
%FSLAX34Y34*%
%LPD*%
%INSoldermask Top*%
%IPNEG*%
%AMOC8*
5,1,8,0,0,1.08239X$1,22.5*%
G01*
%ADD10C,1.603200*%
%ADD11R,1.203200X2.203200*%
%ADD12C,1.203200*%
%ADD13R,2.235200X2.235200*%
%ADD14C,2.235200*%
%ADD15C,1.003200*%


D10*
X381000Y292100D03*
X406400Y292100D03*
X431800Y292100D03*
X457200Y292100D03*
X482600Y292100D03*
X508000Y292100D03*
X533400Y292100D03*
X558800Y292100D03*
X584200Y292100D03*
X609600Y292100D03*
X635000Y292100D03*
X381000Y469900D03*
X406400Y469900D03*
X431800Y469900D03*
X457200Y469900D03*
X482600Y469900D03*
X508000Y469900D03*
X533400Y469900D03*
X558800Y469900D03*
X584200Y469900D03*
X609600Y469900D03*
X635000Y469900D03*
X355600Y292100D03*
X355600Y469900D03*
D11*
X355600Y270700D03*
X381000Y270700D03*
X406400Y270700D03*
X431800Y270700D03*
X457200Y270700D03*
X482600Y270700D03*
X508000Y270700D03*
X533400Y270700D03*
X558800Y270700D03*
X584200Y270700D03*
X609600Y270700D03*
X635000Y270700D03*
X355600Y491300D03*
X381000Y491300D03*
X406400Y491300D03*
X431800Y491300D03*
X457200Y491300D03*
X482600Y491300D03*
X508000Y491300D03*
X533400Y491300D03*
X558800Y491300D03*
X584200Y491300D03*
X609600Y491300D03*
X635000Y491300D03*
D12*
X35000Y35000D03*
X981000Y727000D03*
D13*
X292100Y63500D03*
D14*
X327100Y63500D03*
D13*
X381000Y63500D03*
D14*
X416000Y63500D03*
D13*
X469900Y63500D03*
D14*
X504900Y63500D03*
D13*
X558800Y63500D03*
D14*
X593800Y63500D03*
D13*
X647700Y63500D03*
D14*
X682700Y63500D03*
D15*
X579736Y123190D03*
X626110Y127000D03*
X421640Y139700D03*
D10*
X558800Y41910D03*
X499110Y34290D03*
M02*
