G04 EAGLE Gerber RS-274X export*
G75*
%MOMM*%
%FSLAX34Y34*%
%LPD*%
%INSolderpaste Bottom*%
%IPPOS*%
%AMOC8*
5,1,8,0,0,1.08239X$1,22.5*%
G01*
%ADD10R,1.000000X2.000000*%
%ADD11R,0.550000X1.500000*%
%ADD12R,1.300000X1.500000*%
%ADD13R,1.000000X1.100000*%
%ADD14R,1.100000X1.000000*%
%ADD15R,1.803000X1.600000*%


D10*
X355600Y270700D03*
X381000Y270700D03*
X406400Y270700D03*
X431800Y270700D03*
X457200Y270700D03*
X482600Y270700D03*
X508000Y270700D03*
X533400Y270700D03*
X558800Y270700D03*
X584200Y270700D03*
X609600Y270700D03*
X635000Y270700D03*
X355600Y491300D03*
X381000Y491300D03*
X406400Y491300D03*
X431800Y491300D03*
X457200Y491300D03*
X482600Y491300D03*
X508000Y491300D03*
X533400Y491300D03*
X558800Y491300D03*
X584200Y491300D03*
X609600Y491300D03*
X635000Y491300D03*
D11*
X374650Y152070D03*
X387350Y152070D03*
X400050Y152070D03*
X361950Y152070D03*
X361950Y206070D03*
X374650Y206070D03*
X387350Y206070D03*
X400050Y206070D03*
D12*
X377800Y127000D03*
X358800Y127000D03*
D11*
X586740Y167310D03*
X599440Y167310D03*
X612140Y167310D03*
X574040Y167310D03*
X574040Y221310D03*
X586740Y221310D03*
X599440Y221310D03*
X612140Y221310D03*
D12*
X589890Y143510D03*
X570890Y143510D03*
D11*
X520700Y125400D03*
X533400Y125400D03*
X546100Y125400D03*
X508000Y125400D03*
X508000Y179400D03*
X520700Y179400D03*
X533400Y179400D03*
X546100Y179400D03*
D12*
X523850Y101600D03*
X504850Y101600D03*
D13*
X421640Y151520D03*
X421640Y168520D03*
X562610Y124070D03*
X562610Y107070D03*
D14*
X626990Y143510D03*
X609990Y143510D03*
D15*
X736600Y61980D03*
X736600Y90420D03*
X762000Y61980D03*
X762000Y90420D03*
X787400Y61980D03*
X787400Y90420D03*
X812800Y61980D03*
X812800Y90420D03*
M02*
